<svg width="28" height="25" viewBox="0 0 28 25" fill="none" xmlns="http://www.w3.org/2000/svg">
<path d="M14.1333 20.7333L14 20.8667L13.8533 20.7333C7.51996 14.9867 3.33329 11.1867 3.33329 7.33333C3.33329 4.66667 5.33329 2.66667 7.99996 2.66667C10.0533 2.66667 12.0533 4 12.76 5.81333H15.24C15.9466 4 17.9466 2.66667 20 2.66667C22.6666 2.66667 24.6666 4.66667 24.6666 7.33333C24.6666 11.1867 20.48 14.9867 14.1333 20.7333ZM20 0C17.68 0 15.4533 1.08 14 2.77333C12.5466 1.08 10.32 0 7.99996 0C3.89329 0 0.666626 3.21333 0.666626 7.33333C0.666626 12.36 5.19996 16.48 12.0666 22.7067L14 24.4667L15.9333 22.7067C22.8 16.48 27.3333 12.36 27.3333 7.33333C27.3333 3.21333 24.1066 0 20 0Z" fill="white"/>
</svg>
