<svg width="74" height="91" viewBox="0 0 74 91" fill="none" xmlns="http://www.w3.org/2000/svg">
<path d="M69.074 33.4806L68.3592 33.2631C68.1764 33.2068 67.9894 33.1653 67.8 33.1389C67.1175 33.0479 66.4327 33.4182 65.8736 33.6981L65.687 33.325C65.8422 33.234 65.9978 33.1698 66.1839 33.0765C65.8823 32.7481 65.6405 32.3695 65.4695 31.9577C65.3549 31.6926 65.2088 31.4423 65.0345 31.212C64.9065 31.026 64.7406 30.8691 64.5479 30.7515C64.3551 30.6339 64.1397 30.5583 63.9157 30.5295C63.8168 30.5223 63.7176 30.5382 63.6259 30.5759C63.5343 30.6137 63.4526 30.6722 63.3875 30.747L63.3565 30.7779C63.3875 31.2746 63.3875 31.7727 63.3565 32.2694C63.3565 32.2694 62.9525 32.3008 62.9525 32.2385C62.9834 31.6381 62.9834 31.0366 62.9525 30.4362C62.7979 30.1442 62.5711 29.8966 62.2937 29.717C62.0163 29.5375 61.6975 29.432 61.3677 29.4107H61.0256C60.8077 29.4313 60.5881 29.4209 60.3731 29.3797C59.3476 29.1932 58.9126 28.0434 58.6642 27.2044C58.4157 26.3344 58.0426 25.4331 57.2992 25.2479C57.104 25.2116 56.9062 25.1908 56.7077 25.1856C56.2418 25.1856 55.7445 25.1546 55.4651 24.7197C55.3447 24.4781 55.2809 24.2124 55.2786 23.9425C55.2979 23.7238 55.243 23.5049 55.1229 23.321C55.0297 23.1968 54.8122 23.1659 54.6261 23.1035C54.3597 23.0616 54.1113 22.9428 53.9113 22.7618C53.7333 22.5558 53.6439 22.2878 53.6624 22.0161C53.567 21.3209 53.4634 20.6268 53.3517 19.934C53.2274 19.2516 53.1342 18.5359 53.0723 18.0686C52.6059 18.7834 52.5126 19.778 52.3898 20.6165C52.2656 21.5484 51.9858 22.573 51.1468 23.0403C51.0284 23.1051 50.9035 23.1571 50.7741 23.1954C50.8983 23.7546 51.0539 24.3452 51.2091 24.9044C51.24 24.9667 51.24 25.0286 51.2714 25.06C51.3258 25.0988 51.3907 25.1204 51.4575 25.1219L53.1979 25.495L53.2288 25.586C53.443 26.2009 53.7356 26.7857 54.0992 27.3259C54.134 27.3922 54.1881 27.4465 54.2544 27.4815C54.3167 27.5124 54.4095 27.4505 54.5342 27.4192C54.5961 27.3882 54.6584 27.3882 54.7203 27.3573C55.4028 27.1707 56.0257 27.7299 56.3674 28.3824C56.4322 28.5009 56.4843 28.626 56.523 28.7555C56.6595 29.1753 56.9062 29.5509 57.2373 29.8429L57.0198 30.1851C56.5925 29.8725 56.2855 29.4228 56.1499 28.9111C56.0875 28.7869 56.0589 28.6627 55.9947 28.5694C55.7458 28.0721 55.3122 27.6062 54.8449 27.7304C54.7981 27.7382 54.7547 27.7599 54.7203 27.7927C54.6368 27.8422 54.5438 27.8733 54.4474 27.8839C54.3509 27.8946 54.2533 27.8846 54.1611 27.8546C54.0199 27.7857 53.9013 27.6779 53.8194 27.5438C53.4562 27.0145 53.1638 26.44 52.9494 25.8349L51.4266 25.4932C51.2944 25.4629 51.1684 25.4103 51.0539 25.3376C50.9661 25.2563 50.9108 25.1458 50.8983 25.0268C50.7432 24.4676 50.5876 23.9084 50.4634 23.3492C50.2098 23.4304 49.9908 23.5945 49.8418 23.8151C49.6924 24.1351 49.6489 24.4943 49.7176 24.8407C49.7795 25.6174 49.8418 26.3631 49.9042 27.1402C49.9297 27.3084 49.9082 27.4804 49.8418 27.6371C49.7342 27.7644 49.5948 27.8609 49.4378 27.9169C48.8057 28.2352 48.2454 28.6792 47.7912 29.2218C47.8355 29.3949 47.9207 29.5548 48.0396 29.6882C48.2144 29.8746 48.4261 30.0228 48.6611 30.1232C48.747 30.1582 48.83 30.1997 48.9095 30.2474C49.4201 30.5726 49.8807 30.9703 50.2768 31.4281C50.3678 31.3371 50.4634 31.2106 50.5566 31.1173C50.9194 30.7838 51.3409 30.5205 51.7997 30.3407C52.2422 30.1149 52.7321 29.9978 53.2288 29.999C53.1979 30.0299 53.1669 30.09 53.1355 30.1232H53.1669C53.4149 31.0316 53.7902 31.9003 54.2817 32.7035C54.2986 32.7203 54.3097 32.7421 54.3131 32.7658H54.3749C54.7038 32.714 55.0368 32.6931 55.3696 32.7035C55.497 32.6936 55.6249 32.715 55.7422 32.7658C55.887 32.8552 56.0135 32.9711 56.1153 33.1075C56.8006 34.0473 57.548 34.9401 58.3525 35.7801L58.0727 36.0595C57.258 35.2093 56.5003 34.3063 55.8045 33.3564C55.7573 33.2624 55.681 33.1861 55.587 33.1389C55.5182 33.1108 55.4435 33.1 55.3696 33.1075C55.0575 33.0972 54.7452 33.1181 54.4373 33.1698C54.3328 33.1891 54.2251 33.1783 54.1265 33.1389C54.0496 33.0934 53.9854 33.0292 53.94 32.9523C53.4714 32.2073 53.1057 31.4024 52.8525 30.5595C51.7039 32.2976 51.0583 34.3195 50.9871 36.4016C48.329 37.2617 45.4658 37.2507 42.8144 36.3702C40.2041 35.5003 38.2154 33.6357 36.5997 31.3985C37.2521 30.1245 37.8737 28.8815 38.5261 27.6075C38.6501 27.3176 38.8421 27.0619 39.0858 26.8618C39.2423 26.7824 39.4113 26.7304 39.5854 26.708C40.4504 26.5628 41.3344 26.5735 42.1957 26.7394C42.6306 25.8071 42.9105 25.03 43.7495 24.4399C44.2094 24.1606 44.6869 23.9115 45.1791 23.6941C45.5339 23.5029 45.8672 23.2741 46.1732 23.0116C45.0234 20.7744 45.5208 17.5117 47.4472 15.4919C48.3917 14.5338 49.5778 13.8489 50.8797 13.5097C52.1817 13.1705 53.5511 13.1896 54.8431 13.565C55.7482 13.7977 56.5884 14.2334 57.3001 14.839C57.993 15.471 58.5408 16.2457 58.9055 17.1097C59.2703 17.9738 59.4435 18.9066 59.4131 19.844C59.3697 21.6795 58.701 23.4451 57.5176 24.8489C58.3875 25.1283 58.7916 26.0919 59.0714 27.0238C59.2889 27.7695 59.6629 28.7641 60.4696 28.9193C60.6547 28.9507 60.8437 28.9507 61.0288 28.9193H61.4328C61.8382 28.9412 62.2311 29.0671 62.5737 29.2848C62.9163 29.5025 63.1972 29.8047 63.3893 30.1623C63.5763 30.0496 63.7928 29.9956 64.0108 30.0072C64.2945 30.0389 64.5684 30.13 64.8147 30.2746C65.0609 30.4191 65.2739 30.6139 65.4399 30.8462C65.6135 31.1045 65.7693 31.3743 65.9063 31.6538C66.0845 32.0691 66.3372 32.4483 66.652 32.7726C67.0533 32.6008 67.4924 32.5365 67.926 32.5861C68.1374 32.6196 68.3453 32.6717 68.5475 32.7417L69.2623 32.9592C70.801 33.4472 72.3678 33.8415 73.9542 34.1399C73.9491 34.0148 73.9596 33.8896 73.9856 33.7672C69.2309 31.0637 60.4682 26.0605 59.0077 25.1283L59.2252 24.7866C60.6238 25.6879 69.1381 30.565 73.9542 33.3009C73.7368 31.0946 71.9345 29.3233 70.7538 27.3659C70.3476 26.6882 70.0142 25.9694 69.7592 25.2215L60.0956 22.7668L60.1866 22.3628L69.5089 24.9108C69.036 23.3955 68.7338 21.8322 68.6081 20.2498L60.5597 20.3408V19.9368L68.5457 19.8458C68.4215 18.3234 68.3282 16.8005 68.204 15.309L60.4041 17.8261L60.2799 17.453L68.1726 14.905V14.7417C68.0672 13.4093 67.7636 12.1001 67.2717 10.8574C64.5991 12.3179 62.2068 13.6852 59.4722 15.3941L59.2547 15.0524C62.0202 13.343 64.413 11.9448 67.0852 10.4843C66.3762 8.84776 65.11 7.51552 63.5117 6.72421C61.5229 8.96187 59.6274 11.1991 57.6695 13.5605L57.3592 13.3121C59.3157 10.9816 61.1812 8.77532 63.1377 6.53812C61.2999 5.85056 59.3 5.72078 57.3888 6.16502C57.3265 6.16502 57.2332 6.19596 57.1713 6.19596C56.5189 8.27802 55.866 10.3601 55.2444 12.4421L54.8718 12.3179C55.4633 10.2977 56.0834 8.30895 56.7373 6.28924C55.2144 6.63139 53.6606 7.06637 52.0758 7.56322C52.1691 9.11702 52.2315 10.6708 52.2315 12.1932H51.8274C51.7965 10.7018 51.7651 9.17936 51.6718 7.65649C50.2427 8.09147 48.8131 8.55784 47.384 8.99281C47.9205 10.4361 48.4384 11.8863 48.9373 13.343L48.5647 13.4677C48.0674 12.0071 47.5391 10.5776 47.0109 9.11702C45.5503 9.552 44.0898 9.92509 42.5974 10.2359C43.967 11.8894 45.2933 13.5783 46.575 15.3008L46.2642 15.5493C44.9593 13.7784 43.5606 12.0381 42.1624 10.3291C39.9436 10.7772 37.6678 10.8715 35.4194 10.6085C32.8715 10.2668 30.4787 9.2103 28.024 8.46456C24.202 7.28385 19.8514 6.87982 16.3397 8.80626C13.4824 10.3924 11.6487 13.3444 9.13216 15.4574C6.24203 17.8811 2.32681 19.404 0.679732 22.8223C-1.21577 26.6752 1.23937 30.5595 3.32234 33.7604C5.83891 37.6756 9.41243 40.7828 13.2039 43.424C15.6586 45.1334 18.2375 46.6545 20.5684 48.52C21.6748 49.3931 22.704 50.3599 23.6446 51.4096C24.4837 52.3733 25.0738 53.989 26.0375 54.797C27.8706 56.3195 32.3764 55.2006 34.7069 55.3562C38.4009 55.6005 42.052 56.289 45.5813 57.4069C45.9407 57.5755 46.3491 57.6078 46.7306 57.4979C47.1149 57.2941 47.4047 56.9486 47.5387 56.5347C48.7194 54.2042 49.7759 51.128 51.5472 49.2634C53.6915 47.0262 56.5521 45.5657 59.3781 44.385C63.1381 42.8312 67.0843 41.6505 70.378 39.289C71.9627 38.1393 73.4856 36.5545 73.8273 34.69C72.2201 34.3821 70.6328 33.9783 69.074 33.4806V33.4806ZM34.3334 10.4238L44.8674 17.8192L44.6499 18.1609L34.0845 10.7655L34.3334 10.4238ZM44.4342 19.9013V20.3053L32.0975 20.678V20.2739L44.4342 19.9013ZM27.124 30.8079L26.9374 30.4353C32.7786 27.4081 38.8092 24.7613 44.9916 22.5116L45.1158 22.8842C38.9668 25.1667 32.959 27.8126 27.124 30.8079V30.8079Z" fill="#14D29B"/>
<path d="M46.8247 30.6837C46.3172 31.807 45.9419 32.9855 45.7064 34.1954C45.9571 34.3619 46.2478 34.4582 46.5484 34.4742C46.849 34.4902 47.1483 34.4254 47.4153 34.2864C47.9392 33.9794 48.402 33.5783 48.7803 33.1034C49.1529 32.6998 49.526 32.2958 49.8677 31.8608C49.5131 31.4064 49.082 31.0173 48.5938 30.711C48.5028 30.6796 48.4386 30.62 48.3453 30.5864C48.0645 30.461 47.8111 30.2815 47.5996 30.0581C47.5093 29.9566 47.4358 29.8412 47.3821 29.7164C47.1978 30.0294 47.0113 30.342 46.8247 30.6837V30.6837ZM53.7234 19.9632C53.8476 20.7712 54.0032 21.5793 54.0341 22.0762C54.0434 22.262 54.0966 22.443 54.1893 22.6044C54.2825 22.7291 54.5 22.76 54.6866 22.8223C54.9452 22.8588 55.1849 22.9788 55.3691 23.164C55.5539 23.4147 55.6421 23.7236 55.6175 24.034C55.5917 24.2395 55.6354 24.4477 55.7417 24.6255C55.8973 24.8739 56.27 24.9049 56.674 24.9049C56.8197 24.9007 56.9654 24.9113 57.109 24.9362C58.3163 23.5819 58.9996 21.8404 59.0354 20.0264C59.0596 19.1383 58.8949 18.2552 58.5521 17.4356C58.2094 16.616 57.6964 15.8786 57.0471 15.2722C56.3683 14.7086 55.5718 14.3044 54.7162 14.0892C53.4847 13.7288 52.1785 13.709 50.9367 14.0319C49.6948 14.3548 48.5638 15.0083 47.6637 15.9228C45.9238 17.7883 45.3956 20.8636 46.4207 22.9752C46.8247 22.6335 47.1978 22.2604 47.6037 21.9187C49.3083 20.4792 51.1268 19.1802 53.0413 18.0344V17.9412L53.4454 17.9102C53.4971 18.5995 53.59 19.285 53.7234 19.9632V19.9632Z" fill="#14D29B"/>
<path d="M73.2067 83.6341C73.0202 80.5888 72.7717 77.3552 70.9072 74.9642C69.6955 73.4109 67.9552 72.3853 66.1529 71.6086C60.5906 69.2158 54.3759 68.936 48.3477 68.9051C36.384 68.8427 24.0787 69.7131 13.1407 74.6225C10.1887 75.9588 7.36226 77.5745 5.03041 79.8122C2.69857 82.0498 0.928644 84.939 0.431335 88.1386C6.49094 86.2431 12.9851 86.9578 19.2931 87.7655C25.6011 88.5731 31.8782 89.8166 38.2172 89.7852C41.1073 89.7542 43.9661 89.4749 46.8562 89.1641C56.0848 88.1709 64.7238 87.4561 73.2067 83.6341V83.6341Z" fill="#FDB849"/>
<path d="M7.51605 85.8404C9.84698 82.7009 13.2945 80.6821 16.3102 78.2875C17.8089 77.1774 19.1203 75.8346 20.1945 74.3099C20.7385 73.5077 21.1576 72.6276 21.4375 71.6996C18.6039 72.4681 15.8307 73.4444 13.1407 74.6207C10.1887 75.957 7.36226 77.5727 5.03041 79.8103C2.69857 82.048 0.928644 84.9372 0.431335 88.1367C2.50003 87.5011 4.63977 87.1253 6.80125 87.0179C6.9838 86.5942 7.22437 86.1978 7.51605 85.8404V85.8404ZM70.9072 74.9332C69.6955 73.3794 67.9552 72.3543 66.1529 71.5772C65.4705 71.2978 64.788 71.018 64.1023 70.8005C64.0092 71.4157 63.8529 72.0197 63.6359 72.6028C65.034 73.1825 66.3257 73.9912 67.4579 74.9956C68.6965 76.083 69.7099 77.4026 70.4408 78.8799C70.4658 78.9232 70.4759 78.9737 70.4693 79.0233C70.4628 79.073 70.4401 79.1191 70.4046 79.1545C70.3692 79.1899 70.3231 79.2126 70.2735 79.2191C70.2238 79.2257 70.1734 79.2157 70.13 79.1906C69.8464 79.0047 69.5443 78.8484 69.2287 78.7243C67.8724 78.204 66.4227 77.9716 64.9718 78.0418C63.6064 78.0283 62.2598 78.3596 61.0566 79.005C59.9377 79.6574 58.9436 80.4965 57.7938 81.1489C57.252 81.4789 56.666 81.73 56.0534 81.8947C55.4036 82.0555 54.7316 82.108 54.0647 82.0503C50.8342 81.8637 47.6037 81.3045 44.3697 81.522C41.2302 81.7395 37.906 82.8583 35.7002 85.1265C34.5129 86.3839 33.5837 87.862 32.9652 89.4771C34.7107 89.6425 36.4636 89.715 38.2168 89.6946C41.1069 89.6632 43.9656 89.3839 46.8557 89.0731C56.1158 88.1408 64.7543 87.426 73.2377 83.5727C73.0202 80.5888 72.7717 77.357 70.9072 74.9332V74.9332Z" fill="#FFD340"/>
<path d="M36.7257 17.0112C36.7767 18.2869 36.4292 19.5468 35.7316 20.6161C35.5081 21.0062 35.1725 21.3201 34.7683 21.517C34.6123 21.589 34.4349 21.6 34.271 21.5479C33.9912 21.4569 33.8361 21.1129 33.7428 20.8336C33.2145 19.2488 32.4997 16.5143 33.463 14.9291C33.6435 14.6237 33.9339 14.3988 34.2748 14.3006C34.6157 14.2024 34.9813 14.2383 35.2966 14.4008C36.3217 14.8363 36.6948 15.9856 36.7257 17.0112Z" fill="#F9BDB4"/>
<path d="M35.4826 15.4887C35.1234 16.4037 34.9035 17.3673 34.8302 18.3475C35.1067 18.1844 35.4133 18.0788 35.7315 18.0367C34.9586 18.805 34.3367 19.7114 33.8979 20.7089C34.0226 20.3981 33.6495 19.4349 33.6495 19.0623C33.6587 18.6697 33.7322 18.2813 33.867 17.9125C34.1769 16.9735 34.7352 16.136 35.4826 15.4887Z" fill="#EF6767"/>
<path d="M30.5109 32.6416C28.4912 33.9155 26.0975 33.8846 23.9545 33.1075C24.7175 31.535 25.0294 29.7816 24.8554 28.0425C25.6944 27.1725 27.0616 26.8595 28.9885 27.3277C29.7065 28.8654 30.7832 30.2082 32.128 31.2434C31.6721 31.7977 31.1253 32.2705 30.5109 32.6416V32.6416Z" fill="#F9BDB4"/>
<path d="M28.3356 30.1869C27.6863 30.3483 27.0028 30.3048 26.3792 30.0622C25.8713 29.8713 25.3739 29.6535 24.8891 29.4097C24.8891 28.9748 24.8891 28.5398 24.8577 28.0425C25.6967 27.1725 27.0639 26.8595 28.9908 27.3277C29.2243 27.7974 29.4836 28.2539 29.7675 28.6949C29.6435 29.0283 29.4525 29.3327 29.2062 29.5893C28.9599 29.8459 28.6636 30.0493 28.3356 30.1869V30.1869Z" fill="black"/>
<path d="M32.189 9.64571C33.2291 12.0851 33.9699 14.6415 34.3952 17.2591C34.7683 19.6205 35.2342 22.6349 34.2087 24.8721C33.4981 26.295 32.2943 27.4108 30.8217 28.0115C28.8398 28.8006 26.702 29.1197 24.576 28.9438C23.0558 28.8991 21.5882 28.3773 20.3809 27.4523C19.1688 26.4577 18.4854 24.9954 17.7706 23.6609C16.8442 21.9227 16.0545 20.115 15.4088 18.2542C14.5702 15.7062 13.8554 12.1937 14.8792 9.58474C15.3685 8.40427 16.104 7.34179 17.0367 6.46827C17.9694 5.59475 19.0777 4.9303 20.2877 4.51929C23.3329 3.52513 26.4715 4.20853 29.0818 5.91794C30.454 6.83777 31.5326 8.13292 32.189 9.64889" fill="#F9BDB4"/>
<path d="M23.7971 19.2797C23.2902 19.478 22.7714 19.6441 22.2437 19.7771C21.7306 19.8657 21.2105 19.9073 20.6899 19.9013C20.4173 19.9147 20.1443 19.8832 19.8818 19.808C20.7518 20.5537 21.6222 20.991 22.5208 20.8336C23.0293 20.7376 23.5048 20.5131 23.902 20.1813C24.2991 19.8495 24.6046 19.4214 24.7894 18.938C24.4518 19.0932 24.141 19.1241 23.7971 19.2797Z" fill="white"/>
<path d="M23.7971 19.2798C23.3042 19.4777 22.7955 19.6339 22.2765 19.7466C22.2124 20.1161 22.1188 20.4799 21.9966 20.8345C22.1818 20.8654 22.3707 20.8654 22.5558 20.8345C23.0644 20.7386 23.5399 20.5141 23.9371 20.1823C24.3342 19.8505 24.6397 19.4224 24.8244 18.939C24.4518 19.0932 24.141 19.1241 23.7971 19.2798V19.2798Z" fill="black"/>
<path d="M27.4038 22.6977C27.4347 20.5228 27.2172 19.5582 26.6266 17.1354C28.0253 20.0255 28.8952 20.4605 29.7661 21.2062C28.9477 21.6525 28.1587 22.1507 27.4038 22.6977V22.6977Z" fill="#EF6767"/>
<path d="M15.1294 19.1241C14.5079 18.969 13.7312 18.9381 13.2958 19.404C13.089 19.6361 12.9683 19.9324 12.9541 20.243C12.9408 20.7274 13.0278 21.2093 13.2096 21.6585C13.3914 22.1077 13.6641 22.5145 14.0106 22.8533C15.168 24.1227 16.747 24.9287 18.454 25.1214C18.6685 25.1713 18.8921 25.1661 19.104 25.1064C19.316 25.0467 19.5093 24.9343 19.6662 24.7797C19.803 24.5675 19.8684 24.317 19.8527 24.0649C19.7738 23.3061 19.4831 22.5848 19.0137 21.9833C17.9572 20.5537 16.9007 19.5591 15.1294 19.1241V19.1241Z" fill="#F9BDB4"/>
<path d="M18.4854 23.599C17.3666 21.082 15.7819 20.6161 14.2595 20.0874C15.2971 20.728 16.2298 21.5246 17.0249 22.4492C16.4664 22.3656 15.8955 22.441 15.3778 22.6667C16.4967 22.8533 16.8693 23.0398 18.4854 23.599" fill="#EF6767"/>
<path d="M27.528 15.3332C28.3759 14.8299 29.3164 14.5023 30.2935 14.3699C31.2726 14.2505 32.2597 14.209 33.2455 14.2457C32.7007 13.7355 32.0222 13.3905 31.289 13.2511C30.8384 13.1738 30.3809 13.1433 29.924 13.1601C28.9444 13.1238 27.9661 13.2605 27.0339 13.5637C27.2737 14.1299 27.4397 14.7246 27.528 15.3332V15.3332ZM24.5137 15.8928C23.535 15.7055 22.527 15.7366 21.5617 15.9838C20.6048 16.2151 19.6691 16.527 18.7648 16.9161C19.0866 16.2404 19.5929 15.6695 20.2254 15.2695C20.6155 15.0332 21.0329 14.8453 21.4684 14.7098C22.3661 14.3288 23.3237 14.1086 24.2976 14.0592C24.3217 14.6751 24.394 15.2882 24.5137 15.8928V15.8928ZM26.285 25.5878C25.462 25.5967 24.661 25.3223 24.0164 24.8107L24.3585 24.3757C26.0365 25.6811 28.1805 24.8421 29.5477 23.7232L29.8894 24.1273C28.8825 24.9993 27.6149 25.5129 26.285 25.5878V25.5878Z" fill="black"/>
<path d="M17.1492 13.3767C18.5788 13.7493 20.1012 13.1592 21.3133 12.2888C22.5254 11.4184 23.4881 10.2691 24.607 9.33677C25.7567 8.40449 27.1549 7.62782 28.6464 7.75203C30.2625 7.87624 31.6298 9.08835 32.4065 10.5175C33.1134 11.9732 33.5654 13.5394 33.7428 15.148C34.9858 13.1915 36.0733 11.4498 37.3163 9.49238C37.8696 8.76437 38.2327 7.90992 38.3728 7.0063C38.4129 6.50663 38.3119 6.00574 38.0812 5.56071C37.8505 5.11569 37.4994 4.74443 37.0679 4.48927C35.7939 3.77447 34.1468 4.36505 32.9038 5.14173C32.7172 4.08523 32.624 2.78031 32.0957 1.84803C31.5675 0.915745 30.6975 0.106766 29.6101 0.0139475C28.1195 -0.14166 26.8756 1.03905 25.6325 1.84712C24.1919 2.77168 22.527 3.28721 20.816 3.33859C19.2312 3.40092 17.6465 3.02783 16.0927 2.87267C14.5079 2.71707 12.8299 2.7794 11.4626 3.58747C10.0954 4.39554 9.16311 6.10404 9.69227 7.62691C9.94116 8.24067 10.3358 8.78459 10.842 9.21165C11.4419 9.7842 12.1223 10.2658 12.8618 10.6412C11.7949 10.872 10.8615 11.5127 10.2626 12.4253C9.66381 13.3378 9.44752 14.4491 9.66042 15.5197C9.71914 15.8528 9.846 16.1702 10.0331 16.452C10.5613 17.1977 11.5559 17.3843 12.4568 17.6017C14.3837 18.0677 16.3102 19.0932 17.1492 20.8954C18.0505 18.4407 17.8016 15.8614 17.1492 13.3767Z" fill="#EF6767"/>
<path d="M19.7285 19.9013C20.2877 18.9381 21.5307 17.8816 22.4007 17.7883C22.8608 17.7634 23.3199 17.8525 23.7373 18.0476C24.1547 18.2427 24.5175 18.5377 24.7935 18.9067C23.1938 19.5904 21.468 19.9293 19.7285 19.9013V19.9013Z" fill="#EF6767"/>
<path d="M18.9823 19.7466C21.0895 19.7934 23.1869 19.4456 25.1661 18.721C24.3142 19.4201 23.2983 19.8906 22.2141 20.0883C21.1256 20.2613 20.0106 20.1434 18.9823 19.7466V19.7466Z" fill="black"/>
<path d="M32.2822 17.7259C31.7753 17.9243 31.2563 18.0904 30.7284 18.2233C30.2154 18.3121 29.6953 18.3537 29.1746 18.3475C28.9021 18.3609 28.6293 18.3294 28.367 18.2542C29.237 18.9999 30.1069 19.4372 31.0082 19.2798C31.5168 19.184 31.9923 18.9595 32.3894 18.6276C32.7864 18.2958 33.0918 17.8677 33.2764 17.3842C32.9347 17.5394 32.6239 17.5708 32.2822 17.7259V17.7259Z" fill="white"/>
<path d="M32.2822 17.7259C31.7883 17.9238 31.2786 18.0797 30.7585 18.1919C30.6944 18.5614 30.6008 18.9252 30.4786 19.2798C30.6637 19.3107 30.8527 19.3107 31.0378 19.2798C31.5464 19.1839 32.0219 18.9594 32.4191 18.6276C32.8162 18.2957 33.1217 17.8677 33.3064 17.3842C32.9347 17.5394 32.6239 17.5708 32.2822 17.7259V17.7259Z" fill="black"/>
<path d="M28.2105 18.3475C28.7702 17.3842 30.0127 16.3277 30.8831 16.2345C31.3431 16.2097 31.8022 16.2988 32.2195 16.4938C32.6368 16.6889 32.9995 16.984 33.2755 17.3528C31.6758 18.0366 29.95 18.3755 28.2105 18.3475V18.3475Z" fill="#EF6767"/>
<path d="M27.4657 18.2233C29.5728 18.2702 31.6701 17.9226 33.6495 17.1986C32.7972 17.8966 31.7814 18.3663 30.6975 18.5636C29.6087 18.7214 28.4977 18.6044 27.4657 18.2233V18.2233Z" fill="black"/>
<path d="M31.0702 63.2495C27.9229 62.513 24.9406 61.1957 22.2765 59.3652C21.4453 58.8495 20.7351 58.1606 20.1944 57.3455C19.512 56.1648 19.512 54.7352 19.542 53.3679C19.572 52.0007 19.6039 50.6334 19.633 49.2662C19.6949 46.0657 19.6016 42.9581 20.068 39.7886C20.2018 38.5381 20.5158 37.3135 21.0002 36.1528C21.4943 34.9777 22.37 34.0035 23.4859 33.3873C23.8899 34.1331 24.6689 34.2887 25.506 34.3505C26.3454 34.3343 27.176 34.1767 27.963 33.8846C29.8585 33.2931 31.9406 32.5793 32.9657 30.8394C37.0056 33.1698 41.1697 35.9976 43.0028 40.2859C44.1835 43.0205 44.3078 46.0967 44.836 49.0177C45.1466 50.6747 45.583 52.3055 46.1414 53.8962C46.4521 54.7975 46.8239 55.6984 46.7938 56.6307C46.7629 58.2464 45.6109 59.645 44.3369 60.6706C40.5167 63.7154 35.7935 64.3683 31.0702 63.2495Z" fill="#9778FF"/>
<path d="M24.3271 41.4666C24.1681 41.5793 24.0596 41.7497 24.0248 41.9414C23.99 42.1332 24.0317 42.3309 24.141 42.4922L31.8759 53.6163L32.9634 54.2692L33.0543 54.3935C33.0843 54.4362 33.1297 54.4657 33.1809 54.4759C33.2321 54.4861 33.2852 54.4761 33.3293 54.4481C33.3733 54.4201 33.4049 54.3762 33.4174 54.3255C33.43 54.2748 33.4225 54.2213 33.3965 54.176L33.3055 54.0518L33.088 52.8087L25.3527 41.6841C25.3042 41.5975 25.2378 41.5222 25.1579 41.4633C25.0779 41.4044 24.9863 41.3633 24.8892 41.3427C24.7921 41.3221 24.6917 41.3225 24.5948 41.3439C24.4978 41.3653 24.4066 41.4071 24.3271 41.4666V41.4666Z" fill="white"/>
<path d="M24.3945 42.9941L25.7467 42.0536L26.1548 42.6405L24.8026 43.5805L24.3945 42.9941Z" fill="black"/>
<path d="M24.7935 52.2181L26.0051 48.7688C26.2357 48.007 26.5592 47.2766 26.9684 46.5939C27.6832 45.4109 28.802 44.5738 29.9208 43.7348C30.2984 43.3939 30.7592 43.1585 31.2567 43.0523C31.5072 43.0134 31.7631 43.0724 31.9714 43.2169C32.1796 43.3615 32.3243 43.5806 32.3755 43.8289C32.5917 43.8246 32.8039 43.8881 32.9822 44.0105C33.1605 44.133 33.296 44.3081 33.3697 44.5114C33.4265 44.7242 33.4373 44.9466 33.4011 45.1639C33.4011 45.4746 33.3697 45.7854 33.3697 46.0962C33.5562 46.0652 33.6804 46.2513 33.7428 46.4379C33.7944 46.6226 33.7836 46.8192 33.7118 46.9971C33.6511 47.2468 33.557 47.4873 33.432 47.7119C33.4943 48.5509 33.6186 49.4213 33.6804 50.2598C33.4818 50.2539 33.2876 50.1999 33.1145 50.1024C32.9413 50.0049 32.7944 49.8669 32.6863 49.7002C32.476 49.3639 32.1742 49.0944 31.8163 48.9235C31.7822 48.908 31.7451 48.9 31.7076 48.9C31.6701 48.9 31.633 48.908 31.5988 48.9235C31.5056 48.9544 31.4742 49.0477 31.4123 49.141C30.8526 50.506 30.4491 52.0307 29.3302 53.0253C28.738 53.5451 28.0004 53.8705 27.2172 53.9576C26.6312 54.0393 26.0354 53.9068 25.5392 53.5845C25.0419 53.2437 24.6069 52.7791 24.7935 52.2181V52.2181Z" fill="#F9BDB4"/>
<path d="M17.0868 74.6848C16.6209 75.8655 15.4402 76.5803 14.3214 77.2018C12.6743 78.1027 10.9653 78.8799 9.44292 79.9982C7.87799 81.0452 6.66511 82.5397 5.96267 84.2866C5.68987 84.9667 5.61449 85.7099 5.74519 86.4309C5.79945 86.7907 5.93733 87.1327 6.14776 87.4295C6.35819 87.7263 6.6353 87.9696 6.95683 88.1399C7.88912 88.6058 9.00795 88.2641 9.93977 87.8601C13.6707 86.2444 16.9626 83.6964 20.8141 82.422C21.3114 81.583 21.28 80.6821 21.4666 79.7189C21.7148 78.7238 21.778 77.6915 21.6531 76.6736C21.5888 76.1638 21.4136 75.6743 21.1398 75.2394C20.866 74.8046 20.5003 74.435 20.0684 74.1566C19.2016 73.6283 17.4599 73.7544 17.0868 74.6848V74.6848Z" fill="#643CFF"/>
<path d="M58.9439 67.5377C60.2913 67.6931 61.6157 68.006 62.8901 68.47C64.2574 68.9669 65.6246 69.744 66.2152 71.0803C66.8367 72.5404 66.2771 74.2808 65.1897 75.4305C64.1022 76.5803 62.5794 77.1704 61.0569 77.5745C58.3534 78.2893 55.5256 78.4449 52.7601 78.6933C50.9888 78.8484 49.2175 79.0973 47.4463 79.3148C41.7288 80.0607 36.0215 80.8797 30.3244 81.7718C29.7329 81.8628 28.8952 81.8032 28.771 81.2126C28.7454 81.0544 28.7669 80.8922 28.8329 80.7462C29.9208 76.9243 33.2145 74.1279 36.6947 72.2319C43.0647 68.7207 50.4915 67.3844 57.7942 67.4777C58.0126 67.4754 58.6951 67.5068 58.9439 67.5377V67.5377Z" fill="#FF465A"/>
<path d="M57.7319 66.9163C53.9718 65.8288 50.2431 65.8288 46.3898 66.2948C44.3701 66.5432 41.2625 66.0773 41.2939 63.4051C41.2939 61.8199 41.449 60.2975 42.1015 59.0544C38.1863 59.6459 35.2966 61.6024 31.35 61.8199C29.5787 61.9109 27.8388 61.2607 26.163 60.6082C25.2931 60.2665 24.5469 60.08 23.677 59.7692C20.9092 68.7495 13.2339 75.8965 11.8667 85.2202C11.6603 86.7545 11.6081 88.3056 11.7111 89.8503C12.709 89.6943 13.7158 89.6008 14.7254 89.5704C18.8895 89.4462 22.9913 90.2233 27.0931 90.7825C27.6845 90.8758 28.2738 90.9377 28.8953 91C28.8056 88.9392 28.9515 86.8749 29.3303 84.8471C30.1693 80.5593 32.4065 76.3952 36.0423 73.9405C43.6553 68.7822 54.2826 67.6324 61.9269 68.1916C60.5906 67.4445 59.0059 67.258 57.7319 66.9163V66.9163Z" fill="#D70A32"/>
<path d="M12.0218 57.7805C11.7425 60.3598 11.525 63.1253 12.7043 65.4557C12.7996 65.7079 12.9492 65.936 13.1425 66.1239C13.3358 66.3118 13.568 66.455 13.8227 66.5432C14.6308 66.7297 15.2832 65.9517 15.7496 65.2692C18.4019 61.1677 19.9339 56.4432 20.1931 51.5657C20.2203 51.3565 20.199 51.1438 20.1307 50.9442C19.9446 50.5092 19.4164 50.385 18.95 50.2917C17.5518 50.0742 14.0716 48.9267 13.2016 50.4783C12.7043 51.3791 12.642 52.8087 12.4868 53.8029C12.3312 55.1392 12.1774 56.4755 12.0218 57.7805V57.7805Z" fill="#EF6767"/>
<path d="M16.8693 56.3822C15.8551 57.0297 14.9349 57.8139 14.1348 58.7127C12.8783 60.247 12.2559 62.2035 12.3949 64.1817C12.4058 64.7715 12.5661 65.3488 12.8608 65.8597C13.0055 66.1169 13.2119 66.334 13.4615 66.4913C13.7111 66.6486 13.996 66.7412 14.2904 66.7606C14.9429 66.792 15.5021 66.388 16.0303 66.0149C17.8958 64.679 28.2738 53.6786 27.5899 50.5401C27.0931 48.3029 25.881 49.8576 24.7935 50.8509C22.4007 53.0571 19.511 54.58 16.8693 56.3822V56.3822Z" fill="#F9BDB4"/>
<path d="M31.9092 30.1555C35.1719 29.6896 40.5167 30.2178 42.9719 32.455C45.8925 35.094 47.6952 39.1671 51.0512 41.1559C49.8082 42.2433 48.5342 43.2689 47.2293 44.2953C45.7772 45.4896 44.0797 46.349 42.2576 46.8124C40.7929 43.0802 39.0262 39.4738 36.9751 36.029C35.8872 34.2268 34.5181 32.2071 32.4069 31.9896C32.0384 32.676 31.5344 33.2805 30.9255 33.7666C30.3166 34.2526 29.6154 34.6101 28.8643 34.8174C27.0561 35.2152 25.1671 35.0073 23.4886 34.2259C21.6859 37.2716 20.5052 40.3169 20.816 43.8613C20.9711 45.7568 21.0644 47.6832 21.0958 49.6097C21.113 50.5627 20.9549 51.5107 20.6294 52.4065C17.1822 51.8943 13.7044 51.614 10.2196 51.5675C10.9344 49.0505 11.6801 46.5626 12.3949 44.0474C12.9232 42.2765 13.4205 40.4739 14.3837 38.8891C16.2492 35.7497 19.6662 33.9797 23.4263 32.4282C23.7553 32.7852 24.1537 33.0713 24.5972 33.269C25.0406 33.4667 25.5197 33.5718 26.0052 33.578C26.9625 33.6142 27.9165 33.4436 28.802 33.0779C29.501 32.8456 30.1411 32.4638 30.6776 31.9591C31.2142 31.4544 31.6345 30.839 31.9092 30.1555V30.1555Z" fill="#643CFF"/>
<path d="M27.1863 70.1167L29.61 42.1814H53.7543L54.5624 43.424L27.9939 71.3597L27.1863 70.1167V70.1167Z" fill="#14D29B"/>
<path d="M27.994 71.3597L47.6019 70.3032L54.5624 43.424H30.4491L27.994 71.3597Z" fill="#008C6E"/>
<path d="M41.884 54.0531C41.7683 54.132 41.6303 54.1715 41.4904 54.1658C41.3506 54.1602 41.2162 54.1097 41.1073 54.0218C40.9356 53.827 40.7172 53.6792 40.4725 53.5923C40.2279 53.5053 39.9652 53.4821 39.7091 53.5249C39.3695 53.6251 39.0566 53.7998 38.7931 54.0364C38.5296 54.2729 38.3223 54.5653 38.1862 54.8922C38.0148 55.3302 37.9345 55.7986 37.9501 56.2688C37.9657 56.7389 38.077 57.201 38.2772 57.6267C38.4246 58.0147 38.6842 58.3501 39.023 58.5899C39.5821 58.9006 39.8929 58.5585 40.4835 58.5585C40.688 58.5769 40.8879 58.6295 41.075 58.7141C41.4271 58.7803 41.7901 58.7582 42.1315 58.6498C42.4729 58.5413 42.7821 58.3499 43.0315 58.0926C43.5445 57.5638 43.9836 56.9679 44.3368 56.3213C44.106 56.303 43.8881 56.2071 43.7188 56.0491C43.5495 55.8911 43.4387 55.6804 43.4046 55.4513C43.3736 55.1884 43.4152 54.9221 43.5247 54.6811C43.6343 54.4401 43.8076 54.2336 44.0261 54.0841C43.8642 53.8795 43.6407 53.7327 43.3886 53.6655C43.1366 53.5983 42.8696 53.6142 42.6274 53.711C42.4122 53.772 42.1638 53.9585 41.884 54.0531V54.0531Z" fill="white"/>
<path d="M43.7176 51.7522C43.1626 51.72 42.6171 51.9069 42.1986 52.2729C41.7801 52.6388 41.522 53.1544 41.4799 53.7087C41.5113 53.6787 43.4378 53.741 43.7176 51.7522Z" fill="white"/>
<path d="M34.0733 46.6188C34.1567 45.9546 33.7688 45.359 33.2068 45.2884C32.6448 45.2178 32.1216 45.6991 32.0382 46.3633C31.9548 47.0275 32.3427 47.6231 32.9047 47.6937C33.4667 47.7643 33.9899 47.283 34.0733 46.6188Z" fill="black"/>
<path d="M36.6638 67.6929L36.4773 68.8741L42.1638 68.7808L42.3813 67.4755L36.6638 67.6929Z" fill="white"/>
<path d="M52.0144 57.9361C51.879 58.1125 51.71 58.2603 51.5171 58.371C50.9579 58.7437 50.3983 59.1168 49.8082 59.4894C49.7458 59.5208 49.6839 59.5517 49.6526 59.5208C49.6212 59.4899 49.6216 59.4585 49.5907 59.4585C49.5283 59.2719 49.6526 59.1168 49.7458 58.9612C49.9324 58.6818 50.1499 58.402 50.3373 58.1535C50.5773 57.8458 50.8598 57.5737 51.1763 57.3455C51.3624 57.2213 51.953 56.9105 52.2014 57.0657C52.4185 57.1589 52.1386 57.7804 52.0144 57.9361V57.9361Z" fill="#F9BDB4"/>
<path d="M51.7036 58.2464C51.8141 58.1612 51.918 58.0678 52.0144 57.967C52.1386 57.8114 52.4184 57.1899 52.2319 57.0657C51.983 56.9105 51.3929 57.2213 51.2063 57.3455C50.8829 57.5654 50.5992 57.8386 50.3673 58.1535C50.2845 58.2495 50.2116 58.3536 50.1498 58.4643C50.6538 58.3136 51.1777 58.2402 51.7036 58.2464V58.2464Z" fill="#EF6767"/>
<path d="M52.9776 55.5432C52.9719 56.0133 52.9198 56.4816 52.822 56.9414C52.8066 57.1022 52.7415 57.2542 52.6359 57.3764C52.4499 57.5494 52.2073 57.6489 51.9534 57.6562C51.021 57.7496 50.0887 57.8118 49.1566 57.8428C48.9077 57.8634 48.6571 57.8529 48.4108 57.8114C48.3869 57.8109 48.3633 57.8051 48.3418 57.7944C48.3203 57.7837 48.3015 57.7683 48.2866 57.7495C48.2248 57.6871 48.2557 57.5629 48.318 57.4697C48.4186 57.2965 48.5565 57.1479 48.7216 57.0347C49.1983 56.7259 49.7414 56.5343 50.3064 56.4755C50.9593 56.3508 51.6427 56.2266 52.2951 56.1024C52.549 55.9507 52.779 55.7623 52.9776 55.5432V55.5432Z" fill="#F9BDB4"/>
<path d="M50.9602 56.8481C51.5817 56.8481 52.2028 56.8481 52.8557 56.8172C52.9447 56.3985 52.9864 55.9712 52.9799 55.5432C52.7934 55.6984 52.5759 56.0091 52.3275 56.0401C51.6746 56.1647 50.9912 56.2889 50.3387 56.4132C49.8246 56.4843 49.3289 56.6531 48.8782 56.9105C49.5593 56.8791 50.2741 56.8481 50.9602 56.8481Z" fill="#EF6767"/>
<path d="M53.1328 53.0262C53.2694 53.5579 53.3732 54.0974 53.4436 54.6419C53.5452 55.0376 53.5011 55.4567 53.3193 55.8226C53.1481 56.0184 52.9387 56.1772 52.704 56.2895C52.4694 56.4017 52.2143 56.465 51.9544 56.4755C50.7113 56.693 49.4683 56.8791 48.2566 57.097C48.2057 57.1149 48.1515 57.1214 48.0978 57.116C48.044 57.1105 47.9922 57.0933 47.9459 57.0656C47.9023 57.0145 47.8756 56.9512 47.8695 56.8843C47.8633 56.8174 47.8781 56.7502 47.9117 56.6921C48.1997 56.1826 48.6637 55.7958 49.2167 55.6042C49.992 55.2647 50.7919 54.9842 51.6095 54.7652L51.8893 53.6468L53.1328 53.0262Z" fill="#F9BDB4"/>
<path d="M50.4297 55.2943C51.43 55.0482 52.4483 54.8821 53.475 54.7975C53.4798 54.7437 53.4689 54.6896 53.4436 54.6419C53.3526 54.1136 53.2575 53.5544 53.1328 53.0262L51.8902 53.6786L51.6104 54.7975C50.7912 55.0114 49.991 55.292 49.2176 55.6365C49.0294 55.7048 48.8517 55.7988 48.6893 55.9158C49.237 55.6271 49.823 55.4178 50.4297 55.2943V55.2943Z" fill="#EF6767"/>
<path d="M52.3252 52.063C51.2225 52.7265 50.1729 53.4745 49.1857 54.3002C48.9991 54.4337 48.8406 54.6026 48.7194 54.7975C48.6575 54.9217 48.5333 55.2325 48.6884 55.3567C48.8126 55.4477 49.0301 55.3257 49.1543 55.2943C49.3979 55.2407 49.6369 55.168 49.8691 55.0768L51.5472 54.5177C52.0445 54.3311 52.5727 54.176 53.07 53.9585C53.2733 53.8747 53.4621 53.7592 53.6292 53.6163C53.7424 53.4677 53.8267 53.2992 53.8776 53.1195C54.0934 52.5735 54.2194 51.9963 54.2507 51.41C54.2198 50.8186 53.505 50.1051 52.9458 49.8876" fill="#F9BDB4"/>
<path d="M25.0419 23.0084C24.98 22.9775 24.9177 22.9775 24.8867 23.0398C24.8553 23.0708 24.9177 23.164 24.9486 23.164C24.9684 23.1691 24.9892 23.1677 25.0081 23.1599C25.027 23.1522 25.0428 23.1385 25.0533 23.121C25.0638 23.1035 25.0683 23.0831 25.0663 23.0628C25.0642 23.0426 25.0557 23.0235 25.0419 23.0084V23.0084ZM23.3639 21.4551C23.379 21.432 23.3871 21.4049 23.3871 21.3773C23.3871 21.3496 23.379 21.3226 23.3639 21.2995C23.2397 21.1443 23.0531 21.2995 22.9912 21.4237C22.9598 21.5479 23.1155 21.6102 23.2087 21.5793C23.2429 21.5733 23.2751 21.5587 23.3022 21.537C23.3293 21.5153 23.3505 21.4871 23.3639 21.4551V21.4551ZM21.9347 23.1327C21.9033 23.1017 21.8724 23.0708 21.8437 23.0708C21.9347 23.0084 21.5639 22.9466 21.6572 23.1017C21.6583 23.1178 21.6651 23.133 21.6765 23.1445C21.6878 23.1559 21.703 23.1629 21.7191 23.164C21.7041 23.1813 21.6958 23.2033 21.6958 23.2262C21.6958 23.249 21.7041 23.271 21.7191 23.2883C21.7505 23.3506 21.8101 23.3506 21.8747 23.3192C21.9222 23.2797 21.9544 23.2248 21.9657 23.164C21.9658 23.1599 21.9651 23.1558 21.9636 23.152C21.9621 23.1482 21.9598 23.1447 21.9569 23.1417C21.954 23.1388 21.9506 23.1365 21.9468 23.1349C21.943 23.1334 21.9389 23.1326 21.9347 23.1327V23.1327ZM24.5446 21.3304C24.5446 21.2685 24.5136 21.2394 24.4536 21.2685C24.4222 21.2995 24.3913 21.2995 24.3626 21.3618C24.3609 21.3783 24.3628 21.395 24.3681 21.4107C24.3734 21.4264 24.3821 21.4408 24.3935 21.4528C24.4245 21.4838 24.4845 21.4528 24.5177 21.4214C24.5285 21.4091 24.5364 21.3945 24.5411 21.3788C24.5457 21.3631 24.5469 21.3466 24.5446 21.3304V21.3304ZM25.2284 22.0143C25.2164 22.0028 25.2021 21.9942 25.1863 21.9888C25.1706 21.9835 25.1539 21.9816 25.1374 21.9833C25.1134 21.9837 25.0898 21.9895 25.0683 22.0002C25.0468 22.0109 25.028 22.0263 25.0132 22.0452C24.9823 22.0762 25.0132 22.1076 25.0442 22.1362C25.1065 22.1362 25.1352 22.1053 25.1684 22.1053C25.2284 22.1076 25.2594 22.0452 25.2284 22.0143V22.0143ZM23.797 22.3856C23.785 22.3741 23.7707 22.3654 23.7549 22.36C23.7392 22.3547 23.7225 22.3528 23.706 22.3546C23.6826 22.3579 23.6608 22.3687 23.6442 22.3856C23.6132 22.4169 23.6132 22.4169 23.6132 22.4479V22.5102C23.6442 22.5412 23.7042 22.5721 23.7374 22.5412C23.7993 22.5412 23.8284 22.4502 23.7993 22.3856H23.797ZM22.5558 21.6412C22.5249 21.6412 22.5249 21.6412 22.5249 21.6726C22.4939 21.7035 22.5249 21.7636 22.5872 21.7345C22.5961 21.7316 22.6043 21.7268 22.611 21.7202C22.6177 21.7137 22.6227 21.7057 22.6257 21.6968C22.6287 21.6879 22.6296 21.6785 22.6283 21.6692C22.627 21.66 22.6235 21.6511 22.6181 21.6435L22.5558 21.6412ZM25.071 21.3618C25.1024 21.3618 25.1024 21.2995 25.071 21.2685C25.0401 21.2685 25.0091 21.2995 25.0401 21.3304C25.04 21.3345 25.0407 21.3386 25.0422 21.3425C25.0437 21.3463 25.0459 21.3498 25.0488 21.3527C25.0517 21.3557 25.0552 21.358 25.059 21.3595C25.0628 21.3611 25.0669 21.3619 25.071 21.3618V21.3618ZM21.9966 22.3856C21.9966 22.4169 21.9966 22.4479 22.0276 22.4479C22.0585 22.4479 22.059 22.4479 22.059 22.4169C22.0899 22.3856 22.0276 22.356 21.9966 22.3856ZM21.5307 22.2318C21.5514 22.233 21.5722 22.2298 21.5916 22.2223C21.611 22.2149 21.6286 22.2035 21.6432 22.1888C21.6579 22.1741 21.6693 22.1565 21.6766 22.1371C21.684 22.1176 21.6871 22.0969 21.6859 22.0762C21.6855 22.0501 21.6791 22.0246 21.667 22.0015C21.6549 21.9785 21.6376 21.9586 21.6164 21.9435C21.5953 21.9283 21.5708 21.9184 21.5451 21.9145C21.5194 21.9106 21.4931 21.9129 21.4684 21.921C21.3132 21.9833 21.3132 22.1694 21.4993 22.2318H21.5307ZM20.5666 21.5793C20.5042 21.4883 20.3177 21.5479 20.2868 21.6726C20.2558 21.7345 20.3177 21.8277 20.3486 21.8587C20.4056 21.863 20.4622 21.8466 20.508 21.8123C20.5538 21.7781 20.5856 21.7285 20.5975 21.6726C20.5984 21.6412 20.5666 21.6121 20.5666 21.5793ZM20.5052 22.9152C20.4428 22.791 20.2567 22.9775 20.4142 23.0398C20.5052 23.0708 20.5361 22.977 20.5052 22.9152ZM20.3495 22.8223C20.3485 22.7647 20.3265 22.7094 20.2877 22.6667C20.1967 22.6358 20.1011 22.6977 20.1321 22.791C20.1343 22.8232 20.1482 22.8536 20.1711 22.8764C20.194 22.8993 20.2244 22.913 20.2567 22.9152C20.2809 22.9138 20.3037 22.9035 20.3208 22.8864C20.3379 22.8693 20.3481 22.8465 20.3495 22.8223V22.8223ZM19.7594 22.5116C19.7534 22.4891 19.7429 22.468 19.7287 22.4496C19.7145 22.4311 19.6968 22.4157 19.6765 22.4041C19.6563 22.3925 19.6341 22.3851 19.611 22.3821C19.5879 22.3792 19.5644 22.3808 19.5419 22.3869C19.4917 22.394 19.4445 22.4154 19.4059 22.4484C19.3674 22.4815 19.3391 22.5249 19.3244 22.5735C19.3104 22.6166 19.3088 22.6628 19.3197 22.7068C19.3307 22.7508 19.3537 22.7908 19.3863 22.8223C19.4487 22.8842 19.5419 22.9775 19.6352 22.9775C19.8213 22.9775 19.8213 22.6358 19.7594 22.5116V22.5116ZM22.9912 23.0084C22.9598 23.0084 22.9598 23.0084 22.9289 23.0398C22.898 23.1017 23.0199 23.1308 23.0199 23.0708C23.0531 23.0398 23.0235 23.0084 22.9912 23.0084ZM22.6805 23.0398C22.6491 23.0084 22.6181 22.9775 22.5558 23.0084C22.4935 23.0394 22.4648 23.0708 22.4648 23.1327C22.4569 23.1507 22.4531 23.1703 22.4535 23.1901C22.454 23.2098 22.4587 23.2292 22.4673 23.2469C22.476 23.2646 22.4884 23.2803 22.5036 23.2928C22.5189 23.3052 22.5367 23.3143 22.5558 23.3192C22.7424 23.3815 22.7738 23.1327 22.6805 23.0398ZM34.4261 20.8336C34.3952 20.8022 34.3643 20.7712 34.3351 20.7712C34.4261 20.7089 34.0553 20.647 34.1486 20.8022C34.1496 20.8183 34.1564 20.8336 34.1678 20.845C34.1792 20.8565 34.1943 20.8634 34.2105 20.8645C34.1955 20.8817 34.1873 20.9038 34.1873 20.9266C34.1873 20.9494 34.1955 20.9715 34.2105 20.9887C34.2419 21.0511 34.3015 21.0511 34.3661 21.0197C34.4144 20.9805 34.4475 20.9256 34.4594 20.8645L34.4261 20.8336ZM34.4894 20.1188C34.4894 20.1497 34.4894 20.1807 34.5203 20.1807C34.5513 20.1807 34.5517 20.1807 34.5517 20.1497C34.5804 20.0874 34.4894 20.0564 34.4894 20.1188V20.1188ZM34.0844 18.9381C34.0535 18.8757 33.9934 18.8471 33.8979 18.9067C33.8069 18.9977 33.867 19.0932 33.9889 19.0623C34.0844 19.0309 34.1154 18.969 34.0844 18.9381V18.9381ZM33.9912 19.9322C34.0119 19.9335 34.0326 19.9303 34.0521 19.923C34.0715 19.9156 34.0891 19.9043 34.1038 19.8896C34.1185 19.8749 34.13 19.8573 34.1374 19.8379C34.1448 19.8185 34.148 19.7978 34.1468 19.7771C34.1465 19.751 34.1401 19.7254 34.1281 19.7023C34.116 19.6792 34.0987 19.6592 34.0775 19.6441C34.0564 19.6289 34.0319 19.6189 34.0061 19.615C33.9804 19.6111 33.954 19.6133 33.9293 19.6215C33.7737 19.6838 33.7737 19.8699 33.9602 19.9322H33.9912ZM33.0589 19.2798C32.997 19.1865 32.8105 19.2488 32.7795 19.3708C32.7481 19.4326 32.8105 19.5259 32.8414 19.5569C32.8984 19.5612 32.955 19.5447 33.0008 19.5105C33.0465 19.4763 33.0783 19.4266 33.0903 19.3708C33.0787 19.3588 33.0699 19.3445 33.0645 19.3287C33.0591 19.313 33.0572 19.2963 33.0589 19.2798V19.2798ZM32.997 20.6161C32.9347 20.4914 32.7481 20.678 32.906 20.7403C32.9656 20.7712 32.997 20.678 32.997 20.6161ZM32.8414 20.5228C32.8403 20.4652 32.8183 20.4099 32.7795 20.3672C32.6885 20.3363 32.593 20.3981 32.6239 20.4914C32.6266 20.5235 32.6405 20.5536 32.6633 20.5764C32.686 20.5993 32.716 20.6133 32.7481 20.6161C32.7608 20.6179 32.7737 20.6168 32.7859 20.6127C32.798 20.6087 32.8091 20.6019 32.8181 20.5928C32.8272 20.5838 32.834 20.5727 32.838 20.5606C32.8421 20.5484 32.8432 20.5355 32.8414 20.5228V20.5228ZM32.2513 20.212C32.2452 20.1896 32.2348 20.1685 32.2206 20.1501C32.2063 20.1316 32.1886 20.1162 32.1684 20.1046C32.1482 20.093 32.1259 20.0855 32.1028 20.0826C32.0797 20.0796 32.0563 20.0812 32.0338 20.0874C31.9835 20.0945 31.9363 20.1158 31.8978 20.1489C31.8593 20.1819 31.831 20.2253 31.8163 20.2739C31.8023 20.317 31.8006 20.3632 31.8116 20.4072C31.8225 20.4512 31.8456 20.4913 31.8782 20.5228C31.9405 20.5847 32.0338 20.678 32.1271 20.678C32.3132 20.678 32.3132 20.3363 32.2513 20.212V20.212ZM33.8069 19.2488C33.745 19.1578 33.5585 19.2174 33.5275 19.3398C33.4966 19.4022 33.5585 19.4954 33.5894 19.5264C33.6464 19.5306 33.7031 19.514 33.7488 19.4797C33.7946 19.4454 33.8264 19.3957 33.8383 19.3398C33.8392 19.3067 33.8281 19.2743 33.8069 19.2488V19.2488ZM33.7427 20.5847C33.6804 20.4605 33.4943 20.647 33.6517 20.7089C33.7427 20.7089 33.7737 20.647 33.7427 20.5847ZM33.5871 20.4914C33.586 20.4339 33.564 20.3788 33.5253 20.3363C33.4343 20.3053 33.3387 20.3672 33.3697 20.4605C33.3719 20.4928 33.3858 20.5231 33.4087 20.546C33.4316 20.5688 33.462 20.5826 33.4943 20.5847C33.5562 20.5537 33.5871 20.5228 33.5871 20.4914V20.4914ZM21.7496 24.469C21.6872 24.438 21.6253 24.438 21.594 24.4999C21.563 24.5313 21.6253 24.6246 21.6563 24.6246C21.676 24.6296 21.6969 24.6282 21.7158 24.6204C21.7346 24.6127 21.7505 24.599 21.761 24.5816C21.7714 24.5641 21.776 24.5437 21.7739 24.5234C21.7719 24.5031 21.7633 24.484 21.7496 24.469V24.469Z" fill="#EF6767"/>
<path d="M23.9854 22.2945C24.0005 22.2715 24.0086 22.2445 24.0086 22.217C24.0086 22.1894 24.0005 22.1624 23.9854 22.1394C23.8612 21.9842 23.6747 22.1394 23.6128 22.2636C23.5814 22.3878 23.737 22.4501 23.8303 22.4192C23.8645 22.4132 23.8967 22.3986 23.9238 22.3768C23.951 22.355 23.9722 22.3267 23.9854 22.2945ZM22.5558 23.9716C22.5249 23.9407 22.4939 23.9098 22.4648 23.9098C22.5558 23.8474 22.185 23.7856 22.2783 23.9407C22.2793 23.9568 22.2862 23.972 22.2976 23.9835C22.3089 23.9949 22.3241 24.0019 22.3402 24.003C22.3252 24.0203 22.3169 24.0423 22.3169 24.0651C22.3169 24.088 22.3252 24.11 22.3402 24.1273C22.3716 24.1896 22.4312 24.1896 22.4958 24.1582C22.5433 24.1187 22.5755 24.0638 22.5868 24.003C22.5868 23.9989 22.5861 23.9949 22.5845 23.9911C22.583 23.9873 22.5807 23.9838 22.5779 23.9809C22.575 23.9779 22.5716 23.9756 22.5678 23.974C22.564 23.9725 22.5599 23.9716 22.5558 23.9716V23.9716ZM25.1661 22.1694C25.1661 22.1075 25.1352 22.0784 25.0751 22.1075C25.0442 22.1385 25.0133 22.1385 24.9841 22.1985C24.9823 22.215 24.9842 22.2317 24.9895 22.2475C24.9949 22.2632 25.0036 22.2775 25.0151 22.2895C25.046 22.3209 25.1061 22.2895 25.1393 22.2586C25.1498 22.2464 25.1576 22.2322 25.1622 22.2169C25.1668 22.2015 25.1682 22.1853 25.1661 22.1694V22.1694ZM23.1773 22.5116C23.1464 22.5116 23.1464 22.5116 23.1464 22.5425C23.1155 22.5734 23.1464 22.6335 23.2087 22.6044C23.2177 22.6017 23.2259 22.5968 23.2327 22.5903C23.2394 22.5838 23.2445 22.5757 23.2476 22.5668C23.2506 22.5579 23.2515 22.5485 23.2501 22.5392C23.2487 22.5299 23.2451 22.521 23.2397 22.5134L23.1773 22.5116ZM22.6182 23.2573C22.6182 23.2882 22.6182 23.3192 22.6491 23.3192C22.68 23.3192 22.6805 23.3192 22.6805 23.2882C22.7114 23.2259 22.6491 23.195 22.6182 23.2573V23.2573ZM22.8666 22.325C22.8356 22.2936 22.8047 22.356 22.8356 22.356C22.8356 22.3855 22.8666 22.356 22.8666 22.325ZM22.2141 22.0761C22.1832 22.0143 22.1231 21.9851 22.0276 22.0452C21.9366 22.1362 21.9966 22.2317 22.1186 22.2008C22.2405 22.1699 22.2455 22.1385 22.2141 22.0761ZM22.1522 23.0708C22.173 23.072 22.1937 23.0687 22.2131 23.0613C22.2325 23.0539 22.2501 23.0425 22.2648 23.0278C22.2794 23.0131 22.2908 22.9955 22.2982 22.976C22.3055 22.9566 22.3087 22.9359 22.3074 22.9151C22.3071 22.8891 22.3006 22.8636 22.2885 22.8405C22.2765 22.8175 22.2592 22.7976 22.238 22.7825C22.2168 22.7673 22.1924 22.7574 22.1666 22.7535C22.1409 22.7496 22.1146 22.7518 22.0899 22.76C21.9348 22.8223 21.9348 23.0084 22.1209 23.0708H22.1522ZM21.1886 22.4492C21.1267 22.356 20.9401 22.4183 20.9092 22.5402C20.8783 22.6021 20.9401 22.6954 20.9711 22.7268C21.0281 22.731 21.0847 22.7144 21.1305 22.6802C21.1762 22.6459 21.208 22.5962 21.22 22.5402C21.2209 22.5071 21.2097 22.4747 21.1886 22.4492V22.4492ZM20.9711 23.6595C20.9699 23.602 20.9479 23.5469 20.9092 23.5044C20.8159 23.4734 20.7227 23.5353 20.7536 23.6286C20.7558 23.6609 20.7697 23.6912 20.7926 23.7141C20.8156 23.7369 20.846 23.7507 20.8783 23.7528C20.8909 23.7545 20.9038 23.7533 20.9159 23.7493C20.928 23.7452 20.9389 23.7384 20.9479 23.7293C20.9569 23.7203 20.9637 23.7093 20.9677 23.6971C20.9718 23.685 20.9729 23.6722 20.9711 23.6595V23.6595ZM20.381 23.3506C20.3749 23.3281 20.3645 23.307 20.3502 23.2886C20.336 23.2701 20.3183 23.2547 20.2981 23.2431C20.2779 23.2315 20.2556 23.224 20.2325 23.2211C20.2094 23.2181 20.1859 23.2198 20.1635 23.2259C20.1132 23.233 20.066 23.2544 20.0275 23.2874C19.9889 23.3205 19.9607 23.3639 19.946 23.4125C19.9319 23.4555 19.9303 23.5016 19.9412 23.5456C19.9522 23.5895 19.9753 23.6295 20.0079 23.6609C20.0702 23.7232 20.1635 23.8165 20.2567 23.8165C20.4428 23.8165 20.4428 23.4748 20.381 23.3506V23.3506Z" fill="#EF6767"/>
</svg>
