<svg width="94" height="92" viewBox="0 0 94 92" fill="none" xmlns="http://www.w3.org/2000/svg">
<path d="M83.0047 45.3515L75.3049 21.86M48.2939 87.3192L68.1444 79.811L48.2939 87.3192ZM4.25562 34.6496L21.0649 78.1121L4.25562 34.6496ZM47.5081 4.25565L25.9782 16.1414L47.5081 4.25565ZM4.25562 34.6496L25.9782 16.1414L4.25562 34.6496ZM65.5323 11.2533L47.5081 4.25565L65.5323 11.2533ZM75.3049 21.86L65.5323 11.2533L75.3049 21.86ZM88.8942 26.5255L75.3049 21.86L88.8942 26.5255ZM83.0047 45.3515L68.1444 79.811L83.0047 45.3515ZM89.5182 70.1783L68.1444 79.811L89.5182 70.1783ZM25.9782 16.1414L65.5323 11.2533L25.9782 16.1414ZM25.7499 60.0202L21.0649 78.1121L25.7499 60.0202ZM4.25562 34.6496L25.7499 60.0202L4.25562 34.6496ZM48.2939 87.3192L25.7499 60.0202L48.2939 87.3192ZM26.2145 36.5069L48.2939 32.1741L26.2145 36.5069ZM65.5323 11.2533L52.66 54.3613L65.5323 11.2533Z" stroke="#45413C" stroke-width="2" stroke-linecap="round" stroke-linejoin="round"/>
<path d="M89.5183 70.1783L52.66 54.3613Z" fill="#FFE500"/>
<path d="M89.5183 70.1783L52.66 54.3613" stroke="#45413C" stroke-width="2" stroke-linecap="round" stroke-linejoin="round"/>
<path d="M52.66 54.3613L48.2939 32.1741L65.5323 11.2533" stroke="#45413C" stroke-width="2" stroke-linecap="round" stroke-linejoin="round"/>
<path d="M48.2939 32.1741L83.0047 45.3515L48.2939 32.1741ZM89.5183 70.1783L83.0047 45.3515Z" fill="#FFE500"/>
<path d="M89.5183 70.1783L83.0047 45.3515M48.2939 32.1741L83.0047 45.3515L48.2939 32.1741Z" stroke="#45413C" stroke-width="2" stroke-linecap="round" stroke-linejoin="round"/>
<path d="M52.6313 54.1754L48.2939 87.3192L21.0649 78.112M68.1444 79.811L52.66 54.3613L68.1444 79.811Z" stroke="#45413C" stroke-width="2" stroke-linecap="round" stroke-linejoin="round"/>
<path d="M52.6314 54.1754L25.75 60.0202L52.6314 54.1754ZM88.8943 26.5255L83.0047 45.3515Z" fill="#FFE500"/>
<path d="M88.8943 26.5255L83.0047 45.3515M52.6314 54.1754L25.75 60.0202L52.6314 54.1754Z" stroke="#45413C" stroke-width="2" stroke-linecap="round" stroke-linejoin="round"/>
<path d="M48.294 35.4297C50.092 35.4297 51.5496 33.9721 51.5496 32.1741C51.5496 30.376 50.092 28.9184 48.294 28.9184C46.4959 28.9184 45.0383 30.376 45.0383 32.1741C45.0383 33.9721 46.4959 35.4297 48.294 35.4297Z" fill="#FF6242" stroke="#45413C" stroke-width="2" stroke-linecap="round" stroke-linejoin="round"/>
<path d="M52.66 54.3613L75.305 21.86Z" fill="white"/>
<path d="M52.66 54.3613L75.305 21.86" stroke="#45413C" stroke-width="2" stroke-linecap="round" stroke-linejoin="round"/>
<path d="M26.2145 36.5069L52.66 54.3613L26.2145 36.5069ZM26.2145 36.5069L25.9782 16.1414L26.2145 36.5069ZM26.2145 36.5069L47.5081 4.25565L26.2145 36.5069ZM26.2145 36.5069L4.25562 34.6496L26.2145 36.5069ZM26.2145 36.5069L25.7499 60.0202Z" fill="#FFE500"/>
<path d="M26.2145 36.5069L25.7499 60.0202M26.2145 36.5069L52.66 54.3613L26.2145 36.5069ZM26.2145 36.5069L25.9782 16.1414L26.2145 36.5069ZM26.2145 36.5069L47.5081 4.25565L26.2145 36.5069ZM26.2145 36.5069L4.25562 34.6496L26.2145 36.5069Z" stroke="#45413C" stroke-width="2" stroke-linecap="round" stroke-linejoin="round"/>
<path d="M75.305 25.1156C77.103 25.1156 78.5606 23.658 78.5606 21.8599C78.5606 20.0619 77.103 18.6043 75.305 18.6043C73.5069 18.6043 72.0493 20.0619 72.0493 21.8599C72.0493 23.658 73.5069 25.1156 75.305 25.1156Z" fill="#FFE500" stroke="#45413C" stroke-width="2" stroke-linecap="round" stroke-linejoin="round"/>
<path d="M88.8942 29.7811C90.6922 29.7811 92.1498 28.3235 92.1498 26.5255C92.1498 24.7274 90.6922 23.2698 88.8942 23.2698C87.0962 23.2698 85.6385 24.7274 85.6385 26.5255C85.6385 28.3235 87.0962 29.7811 88.8942 29.7811Z" fill="#FF6242" stroke="#45413C" stroke-width="2" stroke-linecap="round" stroke-linejoin="round"/>
<path d="M89.5183 73.4339C91.3164 73.4339 92.774 71.9763 92.774 70.1783C92.774 68.3803 91.3164 66.9227 89.5183 66.9227C87.7203 66.9227 86.2627 68.3803 86.2627 70.1783C86.2627 71.9763 87.7203 73.4339 89.5183 73.4339Z" fill="#4ACFFF" stroke="#45413C" stroke-width="2" stroke-linecap="round" stroke-linejoin="round"/>
<path d="M65.5324 14.509C67.3304 14.509 68.788 13.0514 68.788 11.2533C68.788 9.45528 67.3304 7.99768 65.5324 7.99768C63.7343 7.99768 62.2767 9.45528 62.2767 11.2533C62.2767 13.0514 63.7343 14.509 65.5324 14.509Z" fill="#4ACFFF" stroke="#45413C" stroke-width="2" stroke-linecap="round" stroke-linejoin="round"/>
<path d="M25.9656 19.397C27.7636 19.397 29.2212 17.9394 29.2212 16.1414C29.2212 14.3433 27.7636 12.8857 25.9656 12.8857C24.1676 12.8857 22.71 14.3433 22.71 16.1414C22.71 17.9394 24.1676 19.397 25.9656 19.397Z" fill="#4ACFFF" stroke="#45413C" stroke-width="2" stroke-linecap="round" stroke-linejoin="round"/>
<path d="M4.25564 38.0406C6.05368 38.0406 7.51128 36.583 7.51128 34.785C7.51128 32.987 6.05368 31.5294 4.25564 31.5294C2.4576 31.5294 1 32.987 1 34.785C1 36.583 2.4576 38.0406 4.25564 38.0406Z" fill="#FFE500" stroke="#45413C" stroke-width="2" stroke-linecap="round" stroke-linejoin="round"/>
<path d="M47.5082 7.51128C49.3062 7.51128 50.7638 6.05368 50.7638 4.25564C50.7638 2.4576 49.3062 1 47.5082 1C45.7102 1 44.2526 2.4576 44.2526 4.25564C44.2526 6.05368 45.7102 7.51128 47.5082 7.51128Z" fill="#FFE500" stroke="#45413C" stroke-width="2" stroke-linecap="round" stroke-linejoin="round"/>
<path d="M48.294 90.4303C50.092 90.4303 51.5496 88.9727 51.5496 87.1747C51.5496 85.3766 50.092 83.919 48.294 83.919C46.4959 83.919 45.0383 85.3766 45.0383 87.1747C45.0383 88.9727 46.4959 90.4303 48.294 90.4303Z" fill="#FFE500" stroke="#45413C" stroke-width="2" stroke-linecap="round" stroke-linejoin="round"/>
<path d="M21.065 81.3677C22.863 81.3677 24.3206 79.9101 24.3206 78.1121C24.3206 76.314 22.863 74.8564 21.065 74.8564C19.2669 74.8564 17.8093 76.314 17.8093 78.1121C17.8093 79.9101 19.2669 81.3677 21.065 81.3677Z" fill="#FF6242" stroke="#45413C" stroke-width="2" stroke-linecap="round" stroke-linejoin="round"/>
<path d="M25.75 63.2759C27.5481 63.2759 29.0057 61.8183 29.0057 60.0202C29.0057 58.2222 27.5481 56.7646 25.75 56.7646C23.952 56.7646 22.4944 58.2222 22.4944 60.0202C22.4944 61.8183 23.952 63.2759 25.75 63.2759Z" fill="#4ACFFF" stroke="#45413C" stroke-width="2" stroke-linecap="round" stroke-linejoin="round"/>
<path d="M23.5612 34.1495C23.5539 34.5026 23.6171 34.8537 23.7472 35.1821C23.8773 35.5105 24.0716 35.8097 24.3188 36.0621C24.5659 36.3144 24.861 36.5149 25.1866 36.6518C25.5123 36.7887 25.862 36.8592 26.2152 36.8592C26.5684 36.8592 26.9181 36.7887 27.2438 36.6518C27.5694 36.5149 27.8645 36.3144 28.1116 36.0621C28.3588 35.8097 28.5531 35.5105 28.6832 35.1821C28.8133 34.8537 28.8765 34.5026 28.8692 34.1495V32.8222C28.8765 32.469 28.8133 32.118 28.6832 31.7895C28.5531 31.4611 28.3588 31.162 28.1116 30.9096C27.8645 30.6572 27.5694 30.4567 27.2438 30.3199C26.9181 30.183 26.5684 30.1125 26.2152 30.1125C25.862 30.1125 25.5123 30.183 25.1866 30.3199C24.861 30.4567 24.5659 30.6572 24.3188 30.9096C24.0716 31.162 23.8773 31.4611 23.7472 31.7895C23.6171 32.118 23.5539 32.469 23.5612 32.8222V34.1495Z" fill="#E8F4FA"/>
<path d="M26.2146 42.5903C30.7705 42.5903 34.4638 38.897 34.4638 34.3411C34.4638 29.7851 30.7705 26.0918 26.2146 26.0918C21.6586 26.0918 17.9653 29.7851 17.9653 34.3411C17.9653 38.897 21.6586 42.5903 26.2146 42.5903Z" fill="white" stroke="#45413C" stroke-width="2" stroke-linecap="round" stroke-linejoin="round"/>
<path d="M23.5612 34.1495C23.5539 34.5026 23.6171 34.8537 23.7472 35.1821C23.8773 35.5105 24.0716 35.8097 24.3188 36.0621C24.5659 36.3144 24.861 36.5149 25.1866 36.6518C25.5123 36.7887 25.862 36.8592 26.2152 36.8592C26.5684 36.8592 26.9181 36.7887 27.2438 36.6518C27.5694 36.5149 27.8645 36.3144 28.1116 36.0621C28.3588 35.8097 28.5531 35.5105 28.6832 35.1821C28.8133 34.8537 28.8765 34.5026 28.8692 34.1495V32.8222C28.8765 32.469 28.8133 32.118 28.6832 31.7895C28.5531 31.4611 28.3588 31.162 28.1116 30.9096C27.8645 30.6572 27.5694 30.4567 27.2438 30.3199C26.9181 30.183 26.5684 30.1125 26.2152 30.1125C25.862 30.1125 25.5123 30.183 25.1866 30.3199C24.861 30.4567 24.5659 30.6572 24.3188 30.9096C24.0716 31.162 23.8773 31.4611 23.7472 31.7895C23.6171 32.118 23.5539 32.469 23.5612 32.8222V34.1495Z" fill="#FFCEBF" stroke="#45413C" stroke-width="2" stroke-linecap="round" stroke-linejoin="round"/>
<path d="M31.7302 40.4749C30.216 41.8347 28.2527 42.5869 26.2175 42.5869C24.1824 42.5869 22.219 41.8347 20.7048 40.4749C21.1602 39.3904 21.9257 38.4645 22.9053 37.8134C23.8849 37.1623 25.035 36.8149 26.2112 36.8149C27.3874 36.8149 28.5375 37.1623 29.5171 37.8134C30.4967 38.4645 31.2622 39.3904 31.7176 40.4749" fill="#9CEB60"/>
<path d="M31.7302 40.4749C30.216 41.8347 28.2527 42.5869 26.2175 42.5869C24.1824 42.5869 22.219 41.8347 20.7048 40.4749C21.1602 39.3904 21.9257 38.4645 22.9053 37.8134C23.8849 37.1623 25.035 36.8149 26.2112 36.8149C27.3874 36.8149 28.5375 37.1623 29.5171 37.8134C30.4967 38.4645 31.2622 39.3904 31.7176 40.4749" stroke="#45413C" stroke-width="2" stroke-linecap="round" stroke-linejoin="round"/>
<path d="M23.583 32.4792C23.6524 31.9439 23.8835 31.4424 24.2454 31.0418C24.6073 30.6412 25.0828 30.3605 25.6084 30.2372C26.1339 30.1139 26.6846 30.1539 27.1869 30.3518C27.6892 30.5497 28.1192 30.896 28.4194 31.3447C27.7915 31.9538 27.0099 32.3811 26.1581 32.5809C25.3064 32.7807 24.4164 32.7456 23.583 32.4792V32.4792Z" fill="#A86C4D" stroke="#45413C" stroke-width="2" stroke-linecap="round" stroke-linejoin="round"/>
<path d="M52.6612 66.4833C59.356 66.4833 64.7833 61.0561 64.7833 54.3613C64.7833 47.6665 59.356 42.2393 52.6612 42.2393C45.9664 42.2393 40.5392 47.6665 40.5392 54.3613C40.5392 61.0561 45.9664 66.4833 52.6612 66.4833Z" fill="white" stroke="#45413C" stroke-width="2" stroke-linecap="round" stroke-linejoin="round"/>
<path d="M48.7609 54.0802C48.7609 55.1147 49.1718 56.1068 49.9032 56.8382C50.6347 57.5697 51.6268 57.9806 52.6612 57.9806C53.6956 57.9806 54.6877 57.5697 55.4192 56.8382C56.1506 56.1068 56.5615 55.1147 56.5615 54.0802V52.1301C56.5615 51.0956 56.1506 50.1036 55.4192 49.3721C54.6877 48.6407 53.6956 48.2297 52.6612 48.2297C51.6268 48.2297 50.6347 48.6407 49.9032 49.3721C49.1718 50.1036 48.7609 51.0956 48.7609 52.1301V54.0802Z" fill="#FFCEBF" stroke="#45413C" stroke-width="2" stroke-linecap="round" stroke-linejoin="round"/>
<path d="M60.7636 63.3768C58.5387 65.3757 55.6534 66.4815 52.6624 66.4815C49.6714 66.4815 46.7861 65.3757 44.5612 63.3768C45.227 61.779 46.3505 60.4138 47.7904 59.453C49.2303 58.4923 50.9222 57.9788 52.6532 57.9774C54.3842 57.9759 56.077 58.4864 57.5185 59.4448C58.96 60.4031 60.0859 61.7664 60.7545 63.3631" fill="#FF6242"/>
<path d="M60.7636 63.3768C58.5387 65.3757 55.6534 66.4815 52.6624 66.4815C49.6714 66.4815 46.7861 65.3757 44.5612 63.3768C45.227 61.779 46.3505 60.4138 47.7904 59.453C49.2303 58.4923 50.9222 57.9788 52.6532 57.9774C54.3842 57.9759 56.077 58.4864 57.5185 59.4448C58.96 60.4031 60.0859 61.7664 60.7545 63.3631" stroke="#45413C" stroke-width="2" stroke-linecap="round" stroke-linejoin="round"/>
<path d="M48.7931 51.6265C48.8946 50.8387 49.2342 50.1008 49.7664 49.5113C50.2987 48.9218 50.9982 48.5088 51.7715 48.3276C52.5448 48.1463 53.3549 48.2055 54.0937 48.4972C54.8324 48.7888 55.4645 49.299 55.9055 49.9596C54.982 50.8555 53.8326 51.4837 52.5799 51.7772C51.3273 52.0708 50.0184 52.0187 48.7931 51.6265V51.6265Z" fill="#A86C4D" stroke="#45413C" stroke-width="2" stroke-linecap="round" stroke-linejoin="round"/>
<path d="M83.0047 53.0065C87.5606 53.0065 91.2539 49.3132 91.2539 44.7573C91.2539 40.2014 87.5606 36.5081 83.0047 36.5081C78.4488 36.5081 74.7555 40.2014 74.7555 44.7573C74.7555 49.3132 78.4488 53.0065 83.0047 53.0065Z" fill="white" stroke="#45413C" stroke-width="2" stroke-linecap="round" stroke-linejoin="round"/>
<path d="M80.3502 44.5657C80.3502 45.2697 80.6299 45.9449 81.1277 46.4427C81.6255 46.9406 82.3007 47.2202 83.0047 47.2202C83.7088 47.2202 84.384 46.9406 84.8818 46.4427C85.3796 45.9449 85.6593 45.2697 85.6593 44.5657V43.2384C85.6593 42.5344 85.3796 41.8592 84.8818 41.3614C84.384 40.8636 83.7088 40.5839 83.0047 40.5839C82.3007 40.5839 81.6255 40.8636 81.1277 41.3614C80.6299 41.8592 80.3502 42.5344 80.3502 43.2384V44.5657Z" fill="#FFCEBF" stroke="#45413C" stroke-width="2" stroke-linecap="round" stroke-linejoin="round"/>
<path d="M88.5192 50.8923C87.005 52.2527 85.0414 53.0053 83.0059 53.0053C80.9704 53.0053 79.0068 52.2527 77.4927 50.8923C77.946 49.805 78.7107 48.8761 79.6906 48.2223C80.6706 47.5685 81.822 47.2192 83 47.2182C84.178 47.2172 85.33 47.5647 86.311 48.2168C87.2921 48.8689 88.0583 49.7966 88.5134 50.8832" fill="#FFAA54"/>
<path d="M88.5192 50.8923C87.005 52.2527 85.0414 53.0053 83.0059 53.0053C80.9704 53.0053 79.0068 52.2527 77.4927 50.8923C77.946 49.805 78.7107 48.8761 79.6906 48.2223C80.6706 47.5685 81.822 47.2192 83 47.2182C84.178 47.2172 85.33 47.5647 86.311 48.2168C87.2921 48.8689 88.0583 49.7966 88.5134 50.8832" stroke="#45413C" stroke-width="2" stroke-linecap="round" stroke-linejoin="round"/>
<path d="M80.3719 42.8954C80.4417 42.3601 80.673 41.8588 81.035 41.4583C81.397 41.0579 81.8725 40.7773 82.3981 40.654C82.9237 40.5308 83.4743 40.5707 83.9767 40.7685C84.479 40.9662 84.909 41.3124 85.2095 41.7609C84.5812 42.3698 83.7994 42.7969 82.9475 42.9967C82.0956 43.1965 81.2055 43.1615 80.3719 42.8954V42.8954Z" fill="#A86C4D" stroke="#45413C" stroke-width="2" stroke-linecap="round" stroke-linejoin="round"/>
<path d="M68.1444 88.0315C72.7003 88.0315 76.3936 84.3382 76.3936 79.7823C76.3936 75.2264 72.7003 71.5331 68.1444 71.5331C63.5884 71.5331 59.8951 75.2264 59.8951 79.7823C59.8951 84.3382 63.5884 88.0315 68.1444 88.0315Z" fill="white" stroke="#45413C" stroke-width="2" stroke-linecap="round" stroke-linejoin="round"/>
<path d="M65.4899 79.593C65.4899 80.297 65.7695 80.9722 66.2674 81.47C66.7652 81.9678 67.4404 82.2475 68.1444 82.2475C68.8484 82.2475 69.5236 81.9678 70.0214 81.47C70.5192 80.9722 70.7989 80.297 70.7989 79.593V78.2646C70.7989 77.5605 70.5192 76.8854 70.0214 76.3875C69.5236 75.8897 68.8484 75.61 68.1444 75.61C67.4404 75.61 66.7652 75.8897 66.2674 76.3875C65.7695 76.8854 65.4899 77.5605 65.4899 78.2646V79.593Z" fill="#FFCEBF" stroke="#45413C" stroke-width="2" stroke-linecap="round" stroke-linejoin="round"/>
<path d="M73.6588 85.9184C72.1444 87.2781 70.1809 88.0302 68.1456 88.0302C66.1103 88.0302 64.1468 87.2781 62.6323 85.9184C63.0855 84.8311 63.8501 83.902 64.83 83.2482C65.8099 82.5943 66.9613 82.2448 68.1393 82.2437C69.3173 82.2426 70.4693 82.5899 71.4504 83.2419C72.4315 83.894 73.1979 84.8216 73.6531 85.9081" fill="#00B8F0"/>
<path d="M73.6588 85.9184C72.1444 87.2781 70.1809 88.0302 68.1456 88.0302C66.1103 88.0302 64.1468 87.2781 62.6323 85.9184C63.0855 84.8311 63.8501 83.902 64.83 83.2482C65.8099 82.5943 66.9613 82.2448 68.1393 82.2437C69.3173 82.2426 70.4693 82.5899 71.4504 83.2419C72.4315 83.894 73.1979 84.8216 73.6531 85.9081" stroke="#45413C" stroke-width="2" stroke-linecap="round" stroke-linejoin="round"/>
<path d="M65.5116 77.9216C65.5814 77.3863 65.8127 76.885 66.1747 76.4845C66.5367 76.0841 67.0122 75.8035 67.5378 75.6802C68.0633 75.557 68.614 75.5969 69.1163 75.7946C69.6186 75.9924 70.0487 76.3386 70.3492 76.7871C69.7208 77.396 68.9391 77.8231 68.0872 78.0229C67.2353 78.2227 66.3452 78.1877 65.5116 77.9216Z" fill="#A86C4D" stroke="#45413C" stroke-width="2" stroke-linecap="round" stroke-linejoin="round"/>
</svg>
