<svg width="89" height="91" viewBox="0 0 89 91" fill="none" xmlns="http://www.w3.org/2000/svg">
<path d="M37.789 0.00170743C36.9616 2.20501 35.973 4.34439 34.8313 6.40249C33.9172 7.4846 32.918 8.49189 31.8432 9.41473C29.2296 11.6548 26.2956 13.4954 23.5755 15.5757C21.4419 17.2293 19.3893 19.0958 18.2972 21.5497C18.0391 22.1457 17.8597 22.7729 17.7635 23.4153C17.3792 23.8358 17.0229 24.2812 16.6969 24.7485C16.0157 25.7372 15.5688 26.8682 15.3901 28.0556C14.7922 27.9917 14.2218 27.771 13.7366 27.4158C13.9037 27.7066 14.1344 27.9559 14.4115 28.145C14.6885 28.3341 15.0047 28.4582 15.3364 28.5079C15.2353 29.5885 15.4582 30.6749 15.9766 31.6284C15.7803 30.6078 15.8822 29.5522 16.2701 28.5879H16.403C16.7359 28.5627 17.0661 28.5091 17.3899 28.4278C17.1546 29.2793 17.118 30.1735 17.283 31.0414C17.028 30.9598 16.7786 30.8618 16.5363 30.7479C16.782 30.9194 17.0406 31.0715 17.3099 31.203C17.504 32.1547 17.9145 33.049 18.5097 33.8166C18.1654 33.0792 17.9663 32.2823 17.9232 31.4696C19.3365 32.0029 20.7234 31.9496 22.377 31.5497C24.9624 30.9372 26.8826 28.592 28.4292 26.2714C31.0019 22.417 33.1485 18.2946 34.8313 13.9768C34.9911 13.55 35.1781 13.0968 35.3378 12.6431C37.2351 9.5606 38.7654 6.26678 39.8975 2.82875C40.617 3.08358 41.216 3.59691 41.5779 4.26889L43.818 3.46851C43.2254 2.39529 42.3502 1.50482 41.2873 0.893678C40.2245 0.28254 39.0147 -0.0259359 37.789 0.00170743V0.00170743ZM20.5892 23.9781C19.6653 24.6876 18.8635 25.5434 18.2158 26.5117C18.189 26.1117 18.1621 25.7382 18.1357 25.3382C18.2158 25.2313 18.3223 25.1248 18.4024 25.0197C19.9226 23.2328 21.896 21.9255 23.8963 20.752C24.7499 20.2456 25.6031 19.7919 26.4567 19.2855C25.8702 19.8989 25.2832 20.5141 24.7499 21.1788C23.3889 22.1098 21.9219 22.938 20.5892 23.9781ZM22.0293 24.3512C21.1861 25.2745 20.2474 26.1059 19.2291 26.8316C19.1759 26.8584 19.149 26.8848 19.0958 26.9117C19.4477 26.4173 19.8605 25.9692 20.3244 25.578C20.8549 25.1516 21.4419 24.7512 22.0284 24.3512H22.0293ZM19.9749 20.1109C21.6285 18.2171 23.7889 16.8571 25.8156 15.3368C28.8555 13.07 31.637 10.476 34.1101 7.60147C33.95 7.84172 33.8167 8.10836 33.6551 8.34816C30.723 12.9639 26.4558 16.5636 22.0821 19.8174C20.8233 20.7018 19.6207 21.6638 18.4815 22.6977C18.5632 22.4166 18.6612 22.1406 18.775 21.8709C19.0841 21.2272 19.4886 20.6338 19.9749 20.1109V20.1109ZM16.4813 28.0051C16.834 27.2438 17.2629 26.5201 17.7612 25.8451C17.8145 26.2182 17.8682 26.5918 17.9482 26.9649C17.813 27.2083 17.6883 27.4574 17.5747 27.7116C17.2395 27.8464 16.8907 27.9448 16.5345 28.0051H16.4813ZM31.8164 18.3786C30.798 20.6995 29.5842 22.9295 28.188 25.0447C26.8812 27.0982 25.2809 29.4188 23.1742 30.4053C21.5221 31.1864 19.6717 31.4469 17.8682 31.1524C17.8429 30.1964 18.006 29.2448 18.3482 28.3518C18.5079 28.8068 18.6667 29.2586 18.8546 29.6855C18.6903 29.1603 18.5568 28.6259 18.4547 28.0851C18.4862 28.0252 18.513 27.9628 18.5348 27.8986C18.775 27.7653 19.0417 27.6051 19.2815 27.4718C20.6208 26.5505 21.8709 25.5058 23.0154 24.3512C23.6287 23.7911 24.2157 23.2314 24.8291 22.6713C27.8249 20.9419 30.5037 18.714 32.7501 16.0835C32.4297 16.8571 32.1367 17.6306 31.8164 18.3786V18.3786ZM46.3516 6.16224C46.9715 5.53208 47.6709 4.98526 48.4319 4.53554C49.1254 6.8293 49.579 9.30962 48.9388 11.6298C48.3518 13.8166 46.8853 15.6035 45.7118 17.5505C45.2812 18.2101 44.9488 18.9289 44.7249 19.6841C44.5076 20.4511 44.5934 21.2723 44.9647 21.9779C44.7925 21.1299 44.9349 20.2483 45.3651 19.4975C45.7802 18.7613 46.2622 18.0649 46.8052 17.4172C48.9921 14.4832 50.379 10.8294 49.9521 7.20242C49.8919 6.00834 49.4099 4.87438 48.5921 4.00225C47.5264 4.24205 46.7784 5.12206 46.3516 6.16224V6.16224Z" fill="black"/>
<path d="M80.5696 51.5283C81.6899 49.928 81.5297 47.4477 80.0095 46.2473C79.3254 45.7577 78.5257 45.4544 77.6889 45.3673C76.8196 45.2416 75.9334 45.3052 75.091 45.5538C74.2485 45.8024 73.4697 46.23 72.8079 46.8075C72.1574 47.4006 71.6965 48.1726 71.483 49.0267C71.2695 49.8808 71.313 50.7789 71.608 51.6084C73.0218 55.1289 78.7291 54.1433 80.5696 51.5283V51.5283Z" fill="#FFD340"/>
<path d="M31.2563 91C25.2554 89.5867 19.3884 88.1461 13.3075 87.0527C22.6955 82.4388 32.0298 77.7703 41.3909 73.0776C42.6445 73.878 43.9513 74.2511 45.3651 74.758C50.5123 72.8378 55.153 70.7042 60.1137 68.3572C62.7273 70.944 64.7549 73.6355 67.394 76.2245C69.0744 75.3714 70.4076 74.6247 72.088 73.7979C76.302 77.2106 80.5692 81.1056 84.5697 84.7594C80.3025 86.1995 76.115 87.773 71.8478 89.2131C68.4174 87.8692 64.886 86.799 61.2867 86.0125C51.0724 88.2244 42.6445 89.4529 31.2563 91Z" fill="#14D29B"/>
<path d="M50.6457 77.4518C48.9922 78.0652 46.0318 80.6255 45.7652 80.6255C43.658 80.6255 34.6704 80.6519 33.8168 80.4918C32.1923 81.3186 25.5759 83.6123 24.002 84.1747C24.8551 84.415 29.4426 85.2149 30.7495 85.8815C31.1226 86.0685 29.6824 88.0151 29.6824 88.0419C30.5624 87.935 42.0039 85.4815 44.8578 84.9478C45.2046 84.8946 47.0979 86.1213 47.952 86.3347C49.419 85.5079 57.7131 81.6139 58.8334 81.2407C59.0736 81.1607 62.1405 82.574 63.6074 82.9207C65.8744 82.0407 67.9811 80.7338 70.2216 79.7205C68.488 79.0271 66.809 78.2804 65.1277 77.4536L50.6457 77.4518Z" fill="#008C6E"/>
<path d="M46.9385 65.9834C43.0445 65.3432 42.058 64.8913 40.3244 63.3442C38.5907 61.7972 36.6437 60.0108 34.3235 60.1973C33.5769 60.2506 32.8566 60.5158 32.1099 60.5158C30.5096 60.5158 29.2027 59.3423 27.976 58.3558C25.3091 56.1954 22.0553 54.5155 18.6412 54.6752C15.2272 54.8349 11.7873 57.3958 11.547 60.8093C11.3873 62.9962 8.26676 64.0632 6.29334 65.0501C4.29695 65.9967 2.19212 66.6952 0.0258789 67.13C3.09272 67.1036 34.1634 66.1699 46.9385 65.9834V65.9834Z" fill="#9778FF"/>
<path d="M38.4843 64.89C37.0974 64.2498 35.8971 63.3429 34.5102 62.6763C33.6971 62.2685 32.8056 62.0411 31.8965 62.0097C30.9952 62.0045 30.0948 62.0669 29.2028 62.1963C28.4623 62.316 27.7098 62.3429 26.9627 62.2763C26.3554 62.1892 25.7629 62.0186 25.2022 61.7694C24.1944 61.2389 23.239 60.6143 22.3488 59.9039C21.4334 59.1619 20.3692 58.6253 19.2283 58.3304C17.7741 58.0703 16.2747 58.325 14.9879 59.0507C13.7344 59.7442 11.9739 61.4773 11.2272 61.7708C10.4004 63.3443 7.9201 64.2247 6.26746 65.0515C4.27113 65.9983 2.16628 66.6968 0 67.1314C2.72057 67.105 27.3636 66.3579 41.8719 66.0394C40.7006 65.7938 39.5632 65.4079 38.4843 64.89V64.89Z" fill="#643CFF"/>
<path d="M88.4106 55.8755C86.2576 55.4408 84.2429 54.4882 82.5408 53.0999C80.9673 51.8714 78.9402 50.6997 77.126 51.4732C76.3793 51.7917 75.7123 52.4065 74.8855 52.3796C73.4185 52.3 73.0454 50.353 72.3788 49.0725C71.1252 46.6991 67.8714 46.0589 65.3378 46.9389C62.8042 47.8189 60.8836 49.8197 59.0171 51.7399C58.9903 50.5664 57.8168 49.6864 56.6433 49.6327C55.4698 49.579 54.3763 50.1664 53.4426 50.833C51.7359 52.0329 50.2425 53.5267 48.5357 54.7535C46.8289 55.9802 45.655 56.3005 42.7214 56.6737C59.0999 56.7023 72.6218 56.7023 88.4106 55.8755Z" fill="#9778FF"/>
<path d="M81.6894 53.3953C80.7047 52.8015 79.552 52.5484 78.4092 52.675C77.3426 52.8083 76.3288 53.2619 75.2622 53.4217C74.5511 53.5828 73.8079 53.5272 73.1286 53.262C72.4606 52.8917 71.9141 52.3359 71.5552 51.6616C71.0787 50.7781 70.4867 49.9619 69.7947 49.2346C69.0678 48.5205 68.2188 47.9424 67.288 47.5278C66.6596 47.2437 65.9956 47.0462 65.3141 46.9408C62.7806 47.8213 60.8604 49.8215 58.9934 51.7417C58.9666 50.5682 57.7931 49.6882 56.6196 49.6345C55.4461 49.5808 54.3527 50.1683 53.4194 50.8349C51.7126 52.0348 50.2188 53.5286 48.512 54.7553C46.8052 55.9821 45.6317 56.3024 42.6978 56.6755C58.4601 56.7024 71.5816 56.7024 86.6237 55.9821C84.89 55.3955 83.343 54.3021 81.6894 53.3953V53.3953Z" fill="#643CFF"/>
<path d="M65.1007 10.8831L64.1675 18.4041H67.0209L67.9278 12.3496L65.1007 10.8831V10.8831Z" fill="black"/>
<path d="M73.9286 9.70956C71.4752 10.8294 68.568 9.70956 65.9275 10.2697C65.6616 10.2959 65.4146 10.4194 65.2341 10.6164C64.8874 11.0714 65.341 11.7362 65.8211 12.0297C66.3011 12.3232 66.9131 12.563 67.101 13.1218C67.3144 13.762 66.7543 14.4286 66.1146 14.6156C65.4576 14.7393 64.7804 14.7026 64.1407 14.5087C61.0465 13.8421 57.6066 13.6018 54.9128 15.2822C56.9664 15.4956 57.8732 17.389 59.0199 19.0962C60.1665 20.8034 61.4738 22.6963 63.4741 23.1231C63.7144 23.2045 63.9739 23.2098 64.2173 23.1382C64.4608 23.0666 64.6761 22.9217 64.8341 22.7232C64.9674 22.4829 65.4743 20.1896 65.5276 20.1896H65.5544C67.7413 20.4826 69.7948 22.083 71.9816 21.7098C73.2628 17.8383 73.92 13.7876 73.9286 9.70956V9.70956Z" fill="#14D29B"/>
<path d="M65.5276 20.1641H65.5545C65.6878 20.191 66.5678 20.4044 66.6743 20.4308C66.9145 18.9906 67.1812 17.2306 67.501 15.8169C67.9279 13.8698 68.088 12.0566 68.6481 10.1364C67.7305 10.0713 66.8083 10.1161 65.9012 10.2697C65.6352 10.2958 65.3882 10.4193 65.2077 10.6164C64.861 11.0714 65.3142 11.7362 65.7943 12.0297C66.2743 12.3232 66.8863 12.563 67.0747 13.1218C67.1363 13.3126 67.1363 13.5179 67.0747 13.7087C66.9145 14.3485 66.5409 15.3623 66.3812 16.0021C66.141 16.9371 65.4999 20.1373 65.5276 20.1641V20.1641Z" fill="#008C6E"/>
<path d="M69.5813 33.3943C69.7815 33.4471 69.9877 33.474 70.1947 33.4744C70.3003 33.4702 70.4035 33.4414 70.4961 33.3905C70.5887 33.3396 70.6683 33.2678 70.7284 33.1809C70.8618 32.9944 71.3418 33.2078 71.4483 32.9944C71.5284 32.8078 71.1816 32.4611 71.2881 32.4342C71.4483 32.381 71.6066 32.3009 71.7431 32.2477C71.7695 32.2208 71.8232 32.2208 71.8496 32.194C71.9033 32.1407 71.8765 32.0607 71.8496 32.0074C71.8228 31.9542 71.7695 31.901 71.7431 31.8473C71.663 31.6343 71.9033 31.2339 71.9033 31.0205C71.8765 30.7538 71.5297 30.7275 71.2895 30.5941C71.119 30.4808 70.9294 30.3994 70.7298 30.3539C70.5853 30.3321 70.4377 30.3505 70.303 30.4071C69.5563 30.5673 68.836 30.8339 68.0893 30.9941C67.6032 31.0603 67.1332 31.2145 66.7024 31.4491C66.5842 31.5415 66.4958 31.6667 66.4484 31.8091C66.401 31.9515 66.3966 32.1047 66.4358 32.2495C67.0746 33.1259 68.5939 33.1791 69.5813 33.3943V33.3943Z" fill="#E28A42"/>
<path d="M62.2183 78.3914L74.0552 6.716L74.9761 6.86798L63.1392 78.5433L62.2183 78.3914Z" fill="black"/>
<path d="M68.3546 32.219C68.7681 32.0041 69.1383 31.7148 69.4467 31.3654C69.7024 31.0211 70.0551 30.7611 70.4596 30.6187C70.7781 30.5122 71.5266 30.272 71.4197 29.7919C70.8063 29.8989 69.8999 30.1655 69.3661 30.1919C68.8656 30.1875 68.3662 30.1429 67.8728 30.0586C67.3734 29.9788 66.8617 30.0533 66.4058 30.272C65.8725 30.5905 65.6859 30.8057 65.8456 31.4191C66.0345 32.1658 67.5279 32.5926 68.3546 32.219Z" fill="#F2BF8C"/>
<path d="M54.673 43.4208C52.4492 45.1014 49.8653 46.2425 47.1252 46.7542C43.9782 47.3412 40.5911 47.0477 37.8427 45.3942C36.5359 44.6206 35.4425 43.5541 34.1889 42.6736C32.9353 41.7931 31.4683 41.1265 29.9481 41.2335C33.2585 40.1361 36.6468 39.2892 40.0842 38.6999C44.4847 38.0065 49.1523 37.793 53.1792 39.6868C53.9796 40.06 54.7795 40.5669 55.1263 41.3404C55.4998 42.1672 55.3929 42.887 54.673 43.4208V43.4208Z" fill="black"/>
<path d="M45.4448 18.3786C47.8187 18.1652 50.086 19.2587 52.2192 20.3521C53.3663 20.939 54.5129 21.4992 55.5795 22.1658C57.5816 23.3943 59.3667 24.9414 61.2873 26.2728C63.2079 27.6042 65.3411 28.78 67.6612 29.0998C67.5951 30.1547 67.301 31.1826 66.7991 32.1127C66.2972 33.0428 65.5995 33.853 64.7541 34.4873C63.3672 34.0323 61.9539 33.474 60.5679 33.0203C59.5277 32.6736 58.4612 32.3537 57.4474 31.9283C51.7127 29.5785 47.1521 24.3249 45.4448 18.3786V18.3786Z" fill="#FDB849"/>
<path d="M44.698 17.4686C49.3656 19.9758 52.1927 25.1498 52.8061 30.4035C53.4194 35.6572 52.0594 40.9918 49.8989 45.8191C49.392 43.5254 49.7388 41.0719 49.8721 38.7249C50.0614 35.1451 49.4981 31.5653 48.2185 28.2166C47.5251 26.4029 46.6182 24.6675 45.9252 22.856C45.2322 21.0446 44.5647 19.4175 44.698 17.4686V17.4686Z" fill="#FFD340"/>
<path d="M69.8748 31.2858C69.7058 31.3883 69.5453 31.5043 69.3948 31.6325C69.3416 31.6857 69.2082 31.8191 69.2346 31.8991C69.2879 32.0325 69.5813 32.0056 69.6896 32.0056C70.2115 31.9925 70.7266 31.8846 71.2099 31.6871C71.4662 31.5927 71.6952 31.4364 71.8765 31.2321C71.9102 31.1917 71.9326 31.1431 71.9411 31.0911C71.9497 31.0392 71.9441 30.986 71.9251 30.9369C71.906 30.8879 71.8741 30.8449 71.8328 30.8123C71.7914 30.7798 71.7421 30.759 71.6899 30.752C71.5759 30.7256 71.4573 30.7256 71.3432 30.752C70.8237 30.8326 70.3249 31.0139 69.8748 31.2858V31.2858Z" fill="#F2BF8C"/>
<path d="M70.6484 31.8473C70.2237 31.84 69.8031 31.9314 69.4198 32.1144C69.3129 32.1676 69.2064 32.2741 69.2596 32.381C69.2721 32.4055 69.2912 32.426 69.3148 32.4402C69.3384 32.4544 69.3655 32.4616 69.393 32.4611C69.7898 32.5857 70.2072 32.631 70.6215 32.5944C70.9176 32.5867 71.2122 32.5509 71.5015 32.4875C71.6617 32.4343 72.1149 32.2208 71.8751 32.0074C71.7003 31.9228 71.5092 31.8773 71.315 31.8741C71.0935 31.8523 70.8709 31.8433 70.6484 31.8473V31.8473Z" fill="#F2BF8C"/>
<path d="M69.448 32.5926C69.3416 32.619 69.2346 32.699 69.2346 32.806C69.2404 32.8454 69.2555 32.883 69.2787 32.9154C69.3019 32.9479 69.3325 32.9743 69.3679 32.9925C69.6926 33.1771 70.0616 33.2693 70.435 33.2592C70.7016 33.286 71.9552 33.2059 71.2881 32.699C70.7056 32.4513 70.0552 32.4137 69.448 32.5926V32.5926Z" fill="#F2BF8C"/>
<path d="M70.5683 33.099C70.2699 33.0369 69.9629 33.0279 69.6614 33.0726C69.5813 33.0726 69.4749 33.1259 69.4749 33.206C69.4749 33.2324 69.5012 33.2592 69.5281 33.286C69.6832 33.3924 69.8544 33.4734 70.035 33.5258C70.2797 33.6038 70.5291 33.6661 70.7817 33.7124C70.9682 33.7661 71.2617 33.7392 71.1816 33.4726C71.1284 33.286 70.7548 33.1527 70.5683 33.099V33.099Z" fill="#F2BF8C"/>
<path d="M54.5929 35.0993C53.2324 31.3923 53.1792 30.8854 50.8859 28.1375C51.3108 27.0837 51.5542 25.9655 51.6057 24.8304C51.608 24.3155 51.4994 23.8062 51.2872 23.337C51.0782 22.9727 50.7969 22.6551 50.4604 22.4038C49.3401 21.4701 47.9801 20.8567 46.8066 20.0031C45.6331 19.1495 44.6198 17.763 44.6462 16.3229C43.8462 16.0044 42.9125 14.9091 42.0857 15.0943C41.846 16.4808 40.9937 18.8814 39.7924 19.6281C38.6453 20.348 37.0987 20.7202 36.5386 21.9487C36.0053 23.1491 36.6451 24.5091 37.3654 25.6026C38.2983 27.0247 39.3416 28.3713 40.4854 29.63C42.0857 31.3631 43.9795 33.2037 43.9527 35.5507C46.3265 37.2575 47.9 37.3908 48.7532 40.1919C51.1128 39.036 53.1268 37.2797 54.5929 35.0993V35.0993Z" fill="white"/>
<path d="M49.6323 68.1438C50.2457 70.8375 51.0725 73.5586 50.8322 76.2782C51.0882 76.511 51.4084 76.6609 51.7511 76.7085C52.0937 76.7561 52.4427 76.6991 52.7524 76.5449L52.9927 71.2375C53.0459 70.1973 53.0727 69.1572 53.126 68.1434L49.6323 68.1438Z" fill="#E28A42"/>
<path d="M50.6725 72.8378C50.8719 73.9732 50.9256 75.1293 50.8322 76.2782C51.0881 76.511 51.4084 76.6609 51.7511 76.7085C52.0937 76.7561 52.4427 76.6991 52.7524 76.5449L52.9394 72.011C52.2351 72.4109 51.4689 72.6903 50.6725 72.8378V72.8378Z" fill="black"/>
<path d="M37.0155 68.1439H32.8294C32.696 71.7977 33.1761 75.558 33.6561 79.1849C34.3132 79.3866 35.0193 79.3585 35.6582 79.1053C35.4261 76.4546 35.5968 73.7839 36.1647 71.1843C36.3666 70.1497 36.6512 69.133 37.0155 68.1439V68.1439Z" fill="#F2BF8C"/>
<path d="M35.7369 73.6378C34.9382 74.1487 33.9794 74.3481 33.0432 74.1979C33.2051 75.8652 33.4098 77.5281 33.657 79.1849C34.3141 79.3865 35.0202 79.3585 35.6591 79.1053C35.4981 77.2849 35.5241 75.4528 35.7369 73.6378V73.6378Z" fill="black"/>
<path d="M49.2055 69.4238C50.6451 69.434 52.0798 69.2547 53.4727 68.8905C53.7557 65.0826 54.2813 61.2966 55.0462 57.5555C55.3647 55.9288 55.7664 54.3285 56.0062 52.7018C57.02 46.4075 56.2997 39.9002 54.3263 33.8184C52.5484 35.5995 50.4244 36.9973 48.0852 37.9254C48.0263 42.2874 48.3836 46.645 49.1523 50.939C49.5149 52.497 49.7204 54.0873 49.7656 55.6863C49.7124 58.1134 48.8319 60.434 48.5653 62.8342C48.3255 65.1034 48.3519 67.2902 49.2055 69.4238Z" fill="#D70A32"/>
<path d="M36.7771 69.9039C35.3902 70.3589 34.0037 69.8238 32.6168 69.3706C31.7906 66.9727 31.7625 64.3717 32.5368 61.9565C33.3635 59.4225 35.0703 57.2356 35.8439 54.6762C36.2269 53.1502 36.5032 51.5993 36.6706 50.0349C37.6039 43.9272 40.2712 38.2467 42.9112 32.6459C43.4382 32.8747 43.9949 33.0279 44.5648 33.1009C47.5976 33.0939 50.6018 32.5142 53.4195 31.3923C54.1377 32.5852 54.643 33.8939 54.9129 35.26C53.2443 37.1423 51.3549 38.8167 49.2856 40.247C48.1735 46.9185 45.3629 53.1916 41.1244 58.4624C39.5773 60.3562 39.0176 62.7851 38.2973 65.0766C37.7891 66.6769 37.1238 68.2772 36.7771 69.9039V69.9039Z" fill="#FF465A"/>
<path d="M44.0847 3.25511C43.7699 2.39534 43.2486 1.6261 42.5668 1.01505C41.9826 1.03344 41.4243 1.26058 40.9933 1.65526C40.5662 2.04884 40.2843 2.57501 40.1934 3.14864C40.808 3.47522 41.3378 3.94096 41.7404 4.5087C41.962 4.09008 42.3034 3.74714 42.7211 3.5238C43.1387 3.30047 43.6135 3.20691 44.0847 3.25511V3.25511Z" fill="#D70A32"/>
<path d="M43.8713 18.7508C44.3734 18.7629 44.8699 18.6433 45.3115 18.4041C44.8811 17.7755 44.6489 17.0323 44.6449 16.2705C43.8449 15.952 42.9112 14.8568 42.0844 15.042C41.9102 15.884 41.6511 16.7062 41.3109 17.4959C41.6216 17.8778 42.0114 18.1877 42.4534 18.4043C42.8954 18.621 43.3792 18.7392 43.8713 18.7508Z" fill="#F2BF8C"/>
<path d="M43.9514 17.5237C44.2607 17.6287 44.585 17.6828 44.9115 17.6838C44.7313 17.2533 44.6405 16.7905 44.6449 16.3238C43.845 16.0053 42.9113 14.91 42.0845 15.0952C42.0313 15.3619 41.9512 15.6817 41.8711 16.0285C42.4328 16.6884 43.1469 17.2016 43.9514 17.5237Z" fill="black"/>
<path d="M37.6575 19.1522C35.9239 19.6854 34.6967 21.1788 33.5769 22.5926C31.8701 24.7526 30.1642 26.913 28.9093 29.3665C31.1969 30.8911 33.707 32.0519 36.3503 32.8073C36.6737 32.6183 36.9545 32.3642 37.1749 32.0612C37.3953 31.7582 37.5505 31.4129 37.6307 31.0469C36.7238 30.6469 36.2169 29.8183 35.5772 29.0734C34.9374 28.3286 34.0579 27.6051 33.0432 27.6852C34.3236 26.4566 35.4703 25.3113 36.6438 23.9781C37.2567 23.3822 37.7223 22.6517 38.0038 21.8445C38.2441 21.071 37.789 19.9507 37.6575 19.1522V19.1522ZM48.4588 13.8698C47.1252 17.2306 43.5514 17.2306 41.5512 15.0169C40.2175 13.5499 39.6856 12.5366 39.7911 10.7229C39.8175 10.2429 39.631 9.7628 39.6574 9.25591C39.7643 7.09593 39.711 4.77532 42.0044 3.76199C43.9782 2.90837 47.445 2.61533 48.6477 4.88225C49.5013 6.48256 49.5814 8.74993 49.3143 10.4831C49.1588 11.6409 48.8718 12.7771 48.4588 13.8698Z" fill="#F2BF8C"/>
<path d="M39.7912 10.7229L39.8708 10.6428C40.1227 10.3696 40.3379 10.0648 40.511 9.73596C40.7315 9.3033 40.9022 8.84703 41.0197 8.3759C41.4197 7.09593 42.0863 5.25537 43.8199 5.44238C44.4432 5.54058 45.0466 5.73863 45.6068 6.0289C46.1926 6.34907 46.8723 6.45296 47.527 6.32239C47.7435 6.25206 47.9498 6.15337 48.1404 6.0289C48.3719 5.91154 48.5948 5.77789 48.8074 5.62894C48.8501 5.6087 48.888 5.57952 48.9184 5.54336C48.9489 5.5072 48.9711 5.46492 48.9838 5.41938C48.9964 5.37385 48.9991 5.32612 48.9917 5.27945C48.9843 5.23278 48.9669 5.18825 48.9407 5.14889C48.727 4.70392 48.428 4.30522 48.0607 3.97539C47.7301 3.68808 47.3507 3.46232 46.9405 3.30879C46.0702 2.99428 45.1412 2.87588 44.2199 2.96206C43.4323 3.01889 42.6585 3.19884 41.9266 3.49534C39.606 4.50868 39.3926 6.9626 39.2875 9.12259C39.3362 9.60264 39.8176 10.2429 39.7912 10.7229V10.7229Z" fill="black"/>
<path d="M42.0581 9.30962C42.3056 9.16356 42.583 9.07562 42.8695 9.05244C43.1559 9.02927 43.4439 9.07146 43.7117 9.17584C43.9761 9.28529 44.2107 9.45603 44.3961 9.67399C44.5816 9.89196 44.7125 10.1509 44.7782 10.4294C44.3026 10.5365 43.8047 10.4802 43.3649 10.2697C42.8452 10.0837 42.391 9.75002 42.0581 9.30962V9.30962ZM46.4586 10.5095C46.5658 10.2453 46.7323 10.0094 46.9454 9.82003C47.1584 9.63064 47.4123 9.49289 47.6872 9.41746C47.9645 9.34957 48.2539 9.34802 48.532 9.41292C48.81 9.47783 49.0689 9.60737 49.2875 9.79103C48.9704 10.1621 48.5376 10.4157 48.0589 10.5109C47.5377 10.6725 46.9796 10.672 46.4586 10.5095V10.5095Z" fill="white"/>
<path d="M44.138 9.41472C44.0115 9.3096 43.8671 9.22821 43.7117 9.17447C43.4438 9.07059 43.1559 9.02866 42.8695 9.05183C42.5832 9.07499 42.3058 9.16265 42.0581 9.30824C42.391 9.74864 42.8452 10.0823 43.3649 10.2683C43.4778 10.3122 43.5937 10.3478 43.7117 10.3748C43.8199 10.0408 43.9628 9.71901 44.138 9.41472ZM48.3256 9.38924C48.1208 9.37098 47.9146 9.38001 47.7122 9.41608C47.4336 9.48351 47.1759 9.61837 46.9616 9.8088C46.7474 9.99922 46.5833 10.2394 46.4836 10.5081C47.0138 10.6711 47.5807 10.6711 48.1108 10.5081C48.2138 10.489 48.313 10.453 48.4043 10.4017C48.311 10.0728 48.2842 9.72859 48.3256 9.38924V9.38924Z" fill="black"/>
<path d="M46.3517 13.5768C46.3142 13.7615 46.2312 13.934 46.1101 14.0784C45.9889 14.2228 45.8336 14.3346 45.6582 14.4036C45.272 14.4918 44.8672 14.4447 44.5115 14.2702C43.9579 13.9763 43.4895 13.5445 43.1515 13.0167C44.1665 13.4279 45.2573 13.6189 46.3517 13.5768Z" fill="#E28A42"/>
<path d="M43.0182 12.9639C43.6434 13.0708 44.2796 13.0976 44.9115 13.0435C45.1683 13.0127 45.4265 12.9949 45.6851 12.9903C45.9429 12.9864 46.1982 13.0411 46.4318 13.1505C46.5307 13.1892 46.6136 13.2604 46.667 13.3524C46.7203 13.4444 46.7408 13.5517 46.7252 13.6569C46.0935 13.8109 45.4363 13.8287 44.7972 13.7092C44.158 13.5897 43.5516 13.3357 43.0182 12.9639V12.9639Z" fill="black"/>
<path d="M39.6573 9.06936C39.5589 8.90514 39.4174 8.77105 39.2481 8.68168C39.0788 8.5923 38.8883 8.55107 38.6972 8.56246C38.5957 8.58818 38.5007 8.63466 38.418 8.69896C38.3354 8.76325 38.267 8.84398 38.2172 8.93604C38.145 9.11505 38.1001 9.30385 38.0838 9.49617C38.0551 10.0392 38.1647 10.5806 38.4023 11.0696C38.4969 11.3033 38.6426 11.5129 38.8287 11.683C39.0263 11.8831 39.2946 11.9975 39.5758 12.0015C39.6848 12.0097 39.794 11.9915 39.8944 11.9483C40.8576 11.4964 40.0577 9.60264 39.6573 9.06936V9.06936Z" fill="#F2BF8C"/>
<path d="M38.7773 9.09622C39.0619 9.30119 39.299 9.56501 39.4726 9.86976C39.7543 10.3343 39.8849 10.8749 39.8462 11.4168C39.7162 11.2701 39.5558 11.1534 39.3762 11.0748C39.1966 10.9962 39.002 10.9577 38.806 10.9618C38.915 10.8844 39.006 10.7842 39.0727 10.6683C39.1742 10.481 39.2116 10.2655 39.1791 10.055C39.1113 9.71154 38.9746 9.38541 38.7773 9.09622V9.09622ZM46.1651 12.4297C45.8866 11.5795 45.8046 10.6771 45.9253 9.79058C45.5927 10.5394 45.2988 11.3049 45.0448 12.0839C45.1938 12.2216 45.3718 12.3242 45.5657 12.384C45.7595 12.4439 45.9644 12.4595 46.1651 12.4297V12.4297Z" fill="#E28A42"/>
<path d="M42.0581 8.40277C42.2957 8.23907 42.5709 8.13811 42.858 8.10928C43.0213 8.1099 43.1834 8.13694 43.3381 8.18937C43.7117 8.26945 44.0848 8.37593 44.4583 8.48286C44.5777 8.52628 44.7047 8.5444 44.8315 8.53609C45.1249 8.50925 45.3115 8.24261 45.4717 8.0292C45.5249 7.94912 45.5786 7.84264 45.6318 7.76256C44.7818 7.51905 43.9024 7.39335 43.0182 7.38899C42.9259 7.37792 42.8324 7.39674 42.7516 7.44268C42.6766 7.49082 42.6129 7.55443 42.5645 7.62924C42.3684 7.86813 42.1986 8.12748 42.0581 8.40277V8.40277ZM49.5523 8.40277C49.3905 8.24836 49.186 8.14611 48.9653 8.10928C48.8453 8.11042 48.727 8.13775 48.6186 8.18937C48.352 8.26945 48.0853 8.37593 47.8187 8.48286C47.7386 8.50925 47.6321 8.56248 47.552 8.53609C47.3386 8.50925 47.2053 8.24261 47.072 8.0292C47.0187 7.94912 46.9919 7.84264 46.9387 7.76256C47.5503 7.52083 48.2012 7.39418 48.8588 7.38899C48.9341 7.38096 49.0098 7.4 49.0723 7.44268C49.1311 7.49317 49.1769 7.55718 49.2056 7.62924C49.3361 7.88014 49.4518 8.13842 49.5523 8.40277V8.40277Z" fill="black"/>
<path d="M40.511 16.4571C43.4181 18.1907 45.1249 21.4168 46.0586 24.6447C46.9386 27.6852 47.2872 30.9923 46.4053 34.0327C45.2851 37.8463 42.3511 40.9136 39.044 43.1004C37.0974 44.3808 34.937 45.4742 33.3899 47.2079C33.4436 46.3811 32.6701 45.6876 31.9498 45.3141C30.7763 44.7007 29.4162 44.3808 28.376 43.554C27.8729 43.1537 27.4587 42.6528 27.16 42.0834C26.8613 41.5139 26.6845 40.8885 26.6411 40.247C26.5346 38.3814 27.5748 36.6195 28.8283 35.2326C30.0819 33.8457 31.604 32.6991 32.802 31.2589C36.404 26.9385 36.6706 20.5627 40.511 16.4571V16.4571Z" fill="#FFD340"/>
<path d="M46.0586 24.6716C45.205 21.7112 43.7116 18.7509 41.2313 16.9635C42.36 18.7091 42.9958 20.7273 43.0714 22.8046C43.1062 23.6072 43.0615 24.4111 42.9381 25.2049C43.4428 25.7638 43.8649 26.392 44.1917 27.0705C45.1919 29.2067 45.7021 31.5394 45.6851 33.8981C45.6858 34.7483 45.6053 35.5967 45.4448 36.4316C45.8469 35.676 46.1688 34.8804 46.4054 34.0578C47.2854 30.9923 46.9387 27.7116 46.0586 24.6716V24.6716Z" fill="#FDB849"/>
<path d="M35.8438 45.3673L35.6572 45.1275C36.4572 44.5142 37.3108 43.954 38.1375 43.3939C40.0138 42.2151 41.7581 40.8382 43.3403 39.2869C44.378 38.2657 45.1238 36.9857 45.5007 35.5794C45.6852 34.6025 45.6932 33.6005 45.5244 32.6208C45.2055 30.2551 44.4552 27.9681 43.3107 25.8733L43.5778 25.7136C44.7468 27.8379 45.5067 30.1629 45.8178 32.5676C45.9859 33.5839 45.9769 34.6216 45.791 35.6349C45.4149 37.098 44.6393 38.4276 43.5509 39.4752C41.9588 41.0509 40.1968 42.4451 38.2973 43.6323C37.4973 44.1938 36.6437 44.7539 35.8438 45.3673V45.3673Z" fill="black"/>
<path d="M39.524 38.2467C37.0884 39.0559 34.4535 39.037 32.0298 38.193C32.27 37.7129 32.5899 37.2866 32.8302 36.8061C35.0859 37.2114 37.4008 37.1479 39.6309 36.6195C39.6761 37.1642 39.64 37.7126 39.524 38.2467Z" fill="#FDB849"/>
<path d="M39.4977 31.2321L41.4998 32.1125C41.7132 32.1921 41.9548 32.3523 41.9266 32.5926C41.8998 32.7523 41.7396 32.8856 41.7396 33.0476C41.7396 33.2096 41.8465 33.3411 41.8197 33.4744C41.7933 33.7142 41.4729 33.8211 41.3647 34.0609C41.2846 34.2479 41.391 34.5159 41.2313 34.6479C41.1485 34.7107 41.0591 34.7644 40.9647 34.8081C40.8045 34.8877 40.7244 35.0479 40.5911 35.1548C40.4155 35.2688 40.2187 35.3463 40.0125 35.3829C39.8063 35.4195 39.5949 35.4143 39.3908 35.3677C39.0381 35.3161 38.6903 35.2359 38.3506 35.1279C38.8401 34.8126 39.4325 34.6985 40.0041 34.8094C39.6579 34.7293 39.3111 34.6224 38.9644 34.5692C38.8445 34.5497 38.7279 34.5139 38.6177 34.4627C38.5166 34.3971 38.4265 34.316 38.3506 34.2225C38.175 33.9655 38.0745 33.6647 38.0604 33.3538C38.0464 33.0429 38.1193 32.7342 38.271 32.4624C38.5113 31.9131 38.9491 31.474 39.4977 31.2321V31.2321Z" fill="#F2BF8C"/>
<path d="M41.1776 17.8704C40.6975 17.0436 39.5777 16.7506 38.644 16.9904C37.7344 17.2894 36.9045 17.791 36.2169 18.4574C33.146 21.2578 30.5598 24.5471 28.563 28.1921C28.2289 28.6547 28.0769 29.2243 28.1362 29.7919C28.2695 30.2228 28.5298 30.6035 28.8829 30.884C31.3255 33.1421 34.43 34.5541 37.7372 34.9114C38.4076 34.5655 38.9498 34.0141 39.2842 33.3379C39.6842 32.6266 39.955 31.85 40.0842 31.0442C38.6836 29.8932 37.0575 29.0483 35.3105 28.5638C36.5391 27.4718 37.764 26.2969 38.9107 25.1512C39.9245 24.1374 40.9378 23.044 41.4711 21.7108C41.7398 21.0954 41.8536 20.4236 41.8024 19.754C41.7513 19.0845 41.5367 18.4378 41.1776 17.8704V17.8704Z" fill="#FDB849"/>
<path d="M49.2856 77.8248L49.3657 77.985C49.5254 78.2516 49.9522 78.385 50.1924 78.5183C50.5856 78.7173 50.997 78.8781 51.421 78.9983C52.3373 79.3007 53.2728 79.5413 54.2212 79.7186C55.1805 79.8867 56.1554 79.9492 57.1283 79.9052C57.9073 79.8913 58.6836 79.8109 59.4489 79.6649C59.5026 79.5052 59.5822 79.3464 59.6359 79.1849C59.7446 79.1574 59.8511 79.1218 59.9545 79.0784C59.661 77.3448 57.8477 77.3448 56.9672 77.105C55.8951 76.5628 54.8613 75.9479 53.8731 75.2644C53.9532 74.8381 54.0333 74.3844 54.0865 73.9576C54.1134 73.7711 54.1133 73.5313 54.0064 73.4512C53.9814 73.4288 53.9516 73.4123 53.9193 73.403C53.887 73.3937 53.853 73.3918 53.8199 73.3975C53.647 73.3847 53.4735 73.4121 53.313 73.4776C53.0732 73.5845 52.8329 73.6646 52.5931 73.7711C52.3432 73.8517 52.115 73.9885 51.9261 74.171C51.8195 74.278 51.7397 74.4086 51.6934 74.5523C51.647 74.6961 51.6354 74.8487 51.6594 74.9978C51.2331 74.5428 50.8063 74.0645 50.3794 73.6109C50.2715 73.8776 50.191 74.1546 50.1392 74.4377C50.1128 74.7311 50.2461 75.0779 50.4577 75.1047C50.0932 75.7361 49.5689 76.2604 48.9375 76.6249C48.8842 76.6513 48.8306 76.6782 48.8306 76.7583C48.8264 76.8044 48.8357 76.8507 48.8574 76.8916C48.928 77.231 49.0744 77.55 49.2856 77.8248V77.8248Z" fill="#643CFF"/>
<path d="M54.6461 79.5585C55.2991 79.669 55.9581 79.7402 56.6196 79.7719C57.3135 79.7942 58.0081 79.7764 58.6999 79.7187C58.9666 79.6918 59.2068 79.665 59.4735 79.6386C59.524 79.4824 59.5864 79.3303 59.66 79.1836H59.6869C57.8468 79.2905 56.033 79.2905 54.1929 79.3438C54.0058 79.3481 53.8187 79.3393 53.6328 79.3174C53.9587 79.4414 54.2993 79.5225 54.6461 79.5585V79.5585Z" fill="white"/>
<path d="M54.7796 79.452C54.0911 79.373 53.4061 79.2668 52.7261 79.1335C52.1214 79.0197 51.5246 78.8677 50.9392 78.6785C50.3429 78.46 49.778 78.1641 49.2588 77.7985V77.8248C48.996 78.108 48.6785 78.3349 48.3256 78.4919C48.3605 79.1399 48.4954 79.7785 48.7255 80.3852C49.3638 80.6062 50.0264 80.7495 50.699 80.8121C51.3473 80.8202 51.9818 80.6242 52.5127 80.2519C52.6632 80.1667 52.8332 80.1218 53.0061 80.1218C53.1791 80.1218 53.3491 80.1667 53.4996 80.2519C53.8098 80.407 54.0969 80.6044 54.3528 80.8384C55.7128 81.9305 57.6066 80.9454 59.1269 80.3052C59.2646 80.109 59.372 79.8932 59.4454 79.665C59.2234 79.6784 59.0008 79.6784 58.7788 79.665C57.4733 79.6386 56.1132 79.6117 54.7796 79.452V79.452ZM53.5528 77.1314L53.3927 76.8647C53.9789 76.5457 54.4605 76.0641 54.7796 75.4778L55.0462 75.638C54.6907 76.2602 54.175 76.7759 53.5528 77.1314V77.1314ZM54.9661 77.5582L54.7263 77.3448C55.1001 76.9067 55.4305 76.4334 55.7128 75.9315L55.9799 76.0912C55.6978 76.6165 55.3578 77.1086 54.9661 77.5582V77.5582ZM52.3525 76.518L52.2192 76.2245C52.8499 75.9721 53.4152 75.5801 53.8727 75.0779L54.113 75.2644C53.6427 75.8257 53.0367 76.2572 52.3525 76.518V76.518Z" fill="black"/>
<path d="M31.6299 80.0117C31.6031 80.0117 31.6031 80.0386 31.6299 80.0117C31.6299 80.0918 31.6831 80.1186 31.71 80.1987C31.9171 80.4907 32.1915 80.7286 32.5099 80.8922C32.8798 81.1499 33.2727 81.373 33.6834 81.5588C34.5511 81.9791 35.4521 82.327 36.3771 82.599C37.2879 82.8671 38.2286 83.02 39.1773 83.054C39.9251 83.0941 40.6749 83.0674 41.4179 82.9744C41.4919 82.8008 41.5543 82.6225 41.6044 82.4406C41.6845 82.4142 41.8178 82.3874 41.9229 82.3605C41.6827 80.3584 39.9208 80.2005 39.0959 79.8538C38.6691 79.6673 36.9623 78.2003 36.1355 77.5068C36.2434 77.0139 36.3235 76.5153 36.3753 76.0134C36.4207 75.8057 36.3924 75.5887 36.2952 75.3996C36.2754 75.3763 36.251 75.3572 36.2235 75.3435C36.1961 75.3298 36.1661 75.3218 36.1355 75.32C35.9741 75.2829 35.8049 75.3017 35.6555 75.3732C35.4152 75.4533 35.175 75.5598 34.9352 75.6399C34.6885 75.7106 34.4667 75.8492 34.295 76.0398C34.1837 76.1657 34.1019 76.3149 34.0558 76.4765C34.0097 76.638 34.0003 76.8079 34.0283 76.9735C33.6284 76.4134 33.2284 75.8264 32.8284 75.2663C32.6924 75.5604 32.611 75.8768 32.5882 76.2C32.5613 76.5467 32.6683 76.9467 32.8817 76.9999C32.5346 77.6721 32.0085 78.2352 31.3614 78.6271C31.3082 78.6535 31.2545 78.6803 31.2545 78.7604V78.8937C31.3026 79.288 31.4303 79.6683 31.6299 80.0117Z" fill="#9778FF"/>
<path d="M36.7238 82.7054C37.3594 82.9158 38.0104 83.0763 38.6709 83.1855C39.3193 83.2255 39.9695 83.2255 40.6179 83.1855C40.892 83.1534 41.1558 83.0624 41.3914 82.9188C41.4451 82.7591 41.5248 82.5721 41.5785 82.4124C41.5785 82.4124 40.2716 82.9725 35.4976 82.0657C35.8893 82.3101 36.2993 82.524 36.7238 82.7054V82.7054Z" fill="white"/>
<path d="M37.1238 82.6522C36.484 82.4388 35.5503 81.9856 34.9101 81.7722C34.3266 81.5894 33.7563 81.3667 33.2033 81.1056C32.6246 80.8149 32.0939 80.4371 31.6299 79.9853V80.0117C31.387 80.3117 31.0762 80.5494 30.723 80.7051C30.7466 81.4526 30.8534 82.1951 31.0415 82.9188C31.6398 83.2192 32.2771 83.4347 32.9349 83.559C33.561 83.6259 34.1894 83.4545 34.6949 83.079C34.8445 82.9941 35.0162 82.9563 35.1876 82.9706C35.3589 82.9849 35.522 83.0506 35.6554 83.1591C35.9623 83.371 36.2403 83.622 36.4822 83.9058C37.7622 85.2658 39.6291 84.2793 41.0961 83.6655C41.2339 83.4502 41.3411 83.2169 41.4146 82.9721C41.2476 83.0098 41.0783 83.0366 40.9078 83.0521C40.2633 83.1453 39.6111 83.1722 38.9612 83.1322C38.3353 83.0289 37.7202 82.8682 37.1238 82.6522V82.6522ZM35.7637 79.5335L35.5772 79.2668C36.1343 78.9102 36.6075 78.437 36.9641 77.8799L37.2307 78.0669C36.8544 78.6568 36.3538 79.1574 35.7637 79.5335V79.5335ZM37.1238 80.1455L36.8572 79.9321C37.2379 79.4513 37.5686 78.9329 37.8441 78.385L38.1376 78.5452C37.8665 79.1181 37.526 79.6556 37.1238 80.1455V80.1455ZM34.6435 78.7599L34.5102 78.4664C35.1531 78.2246 35.7164 77.809 36.1373 77.2661L36.404 77.4531C35.9402 78.0338 35.3336 78.4841 34.6435 78.7599V78.7599ZM46.1919 5.78912C45.8635 5.19018 45.3971 4.6781 44.8314 4.29529C44.5916 4.13557 43.5783 3.81524 43.2843 4.08188C41.5239 5.73543 40.9906 8.40458 39.7106 10.4563C38.457 12.5098 36.8303 14.3499 36.0035 16.6168C35.7159 17.3285 35.5709 18.0897 35.5767 18.8573C35.6883 19.6586 36.0636 20.3998 36.6433 20.9641C35.2832 18.724 37.0701 15.8701 38.5089 13.7634C39.0959 12.9097 39.7374 12.1899 40.349 11.3631C41.9493 9.25592 42.8562 7.01586 44.4032 4.61562C45.0422 4.93743 45.6423 5.33115 46.1919 5.78912V5.78912Z" fill="black"/>
</svg>
