<svg width="99" height="89" viewBox="0 0 99 89" fill="none" xmlns="http://www.w3.org/2000/svg">
<path d="M65.4175 42.6005C64.8879 42.9158 64.3366 43.1929 63.7676 43.4298C58.7011 45.5867 51.7722 45.198 46.6326 43.9124C45.0071 51.8558 49.8143 84.7717 49.8143 84.7717C54.2396 85.8955 57.1631 84.6971 57.1631 84.6971L56.2664 52.7463C56.7179 59.7214 59.5668 80.518 59.5668 80.518C62.7931 82.7693 66.1655 80.2941 66.1655 80.2941C67.3318 67.361 65.5103 43.7901 65.4175 42.6005V42.6005Z" fill="#59679C"/>
<path d="M16.8881 79.3066C16.762 79.3969 16.6065 79.4363 16.4526 79.417C16.4977 80.7129 16.7989 82.4639 17.4764 83.5219C17.7034 83.8765 18.2021 84.5213 17.7319 84.8919L17.719 84.9013C17.7078 84.5506 17.6002 84.2098 17.408 83.9164C17.3932 83.8914 17.3737 83.8696 17.3504 83.8521C17.3272 83.8347 17.3008 83.822 17.2727 83.8148C17.2446 83.8076 17.2153 83.806 17.1866 83.8101C17.1579 83.8141 17.1302 83.8238 17.1052 83.8386C17.0803 83.8534 17.0584 83.8729 17.041 83.8961C17.0236 83.9194 17.0109 83.9458 17.0037 83.9739C16.9965 84.002 16.9948 84.0312 16.9989 84.06C17.003 84.0887 17.0127 84.1164 17.0275 84.1413C17.2179 84.4092 17.3085 84.7353 17.2836 85.063C17.1849 85.0718 17.0857 85.0718 16.9871 85.063C16.9816 84.6592 16.9211 84.2581 16.8072 83.8708C16.7898 83.8164 16.7521 83.7709 16.7019 83.7438C16.6516 83.7167 16.5929 83.7102 16.5379 83.7256C16.483 83.741 16.4361 83.7771 16.4073 83.8263C16.3784 83.8755 16.3698 83.934 16.3832 83.9895C16.4786 84.3042 16.5342 84.6297 16.5485 84.9583C14.8981 84.3554 14.5549 82.1591 14.2439 80.39C14.0132 79.0536 13.8596 77.705 13.7841 76.3509C13.6426 76.4082 13.4981 76.4581 13.3513 76.5002C13.4596 78.3098 13.8966 82.4546 14.8421 84.0237C16.2069 86.2765 18.5986 85.6555 18.3415 84.2792C18.1637 83.3099 16.9736 82.86 16.8881 79.3066V79.3066ZM10.8481 88.2561L10.9881 87.2567C11.0037 87.2005 10.9965 87.1404 10.9678 87.0897C10.9392 87.0389 10.8916 87.0015 10.8354 86.9858C10.7793 86.9702 10.7192 86.9775 10.6684 87.0061C10.6176 87.0347 10.5802 87.0823 10.5646 87.1385L10.3966 88.325C10.0672 88.3676 9.7347 88.3811 9.40292 88.3655C9.28111 87.35 9.91403 87.083 9.56206 86.871C9.51144 86.8423 9.45162 86.8343 9.39523 86.8488C9.33885 86.8633 9.29031 86.8992 9.25986 86.9488C9.02797 87.3627 8.92592 87.8368 8.96698 88.3095C8.65481 88.258 8.35138 88.1631 8.06555 88.0275C8.07177 88.0031 8.07281 88.0192 8.07955 87.9995C8.36931 87.0716 9.07947 86.1251 10.153 86.1624C11.1607 86.1987 11.933 87.0328 12.5566 87.8124C11.9955 87.9909 11.4252 88.139 10.8481 88.2561V88.2561Z" fill="#FE744F"/>
<path d="M16.1255 59.0672C17.085 57.1332 19.1957 52.7556 19.7685 50.5759C19.876 49.9656 19.8598 49.3399 19.7208 48.736C19.5818 48.1321 19.3228 47.5623 18.9594 47.0604C17.0285 47.7643 15.8689 47.3315 15.2552 46.8862C11.5053 50.394 10.7563 48.8695 8.78498 50.537C8.82555 50.5177 8.86708 50.5004 8.90939 50.4852C9.18049 50.3914 9.29557 50.8185 9.02809 50.9087C8.52458 51.1089 8.07313 51.4208 7.70783 51.821C7.35627 52.3862 7.09106 53.0006 6.92096 53.6441C6.70072 54.4587 6.59705 55.3004 6.61305 56.1442C6.61616 56.2416 6.70998 56.7589 6.79551 57.2395C8.09504 56.8528 8.7912 55.2935 9.24269 54.0225C9.44073 53.5224 9.5361 52.9875 9.52313 52.4498C9.50447 52.1663 9.94611 52.1699 9.96218 52.4498C10.029 53.5824 8.95449 57.1436 6.86808 57.6811L6.9899 58.3705C5.97548 59.2925 5.17432 60.4247 4.64224 61.688C2.30962 59.5705 0.9427 53.6814 3.60189 48.7471C3.62629 48.701 3.63364 48.6477 3.62265 48.5967C3.61166 48.5457 3.58303 48.5002 3.54181 48.4682C3.50058 48.4362 3.44939 48.4197 3.39724 48.4217C3.34509 48.4238 3.29531 48.4441 3.25666 48.4792C1.32266 49.9824 0.441445 52.4187 0.13613 54.7726C-0.388451 58.7888 0.547709 63.0259 3.91343 65.1253C3.85849 66.7753 4.02075 68.4254 4.39602 70.0331C4.20267 74.3874 6.61046 78.7851 6.32018 83.0486C6.30151 83.3965 6.301 83.4048 5.99309 83.553C5.60535 83.7423 5.27781 84.0356 5.04698 84.4001C4.81615 84.7647 4.6911 85.1862 4.68578 85.6176C4.78946 86.3351 6.42592 86.4678 7.10808 86.2252C8.94049 85.572 9.12969 83.1725 9.27069 81.2328C9.16283 80.7755 9.04479 80.3206 8.91665 79.8685C8.88696 80.4162 8.8524 80.9636 8.81297 81.5107C8.68908 83.1067 8.51854 85.2346 6.99871 85.7887C6.99871 84.9951 7.4813 84.7976 7.15733 84.6213C7.10654 84.5936 7.0471 84.5861 6.99101 84.6004C6.93492 84.6148 6.88635 84.6498 6.85513 84.6986C6.61454 85.0463 6.51556 85.4727 6.57832 85.8908C6.35168 85.9231 6.12121 85.9168 5.89668 85.8722C5.88231 85.8572 5.86651 85.8436 5.8495 85.8317C5.86105 85.4269 5.99217 85.0346 6.22635 84.7043C6.25605 84.6539 6.26451 84.5938 6.24988 84.5372C6.23525 84.4805 6.19873 84.432 6.14834 84.4023C6.09795 84.3726 6.03784 84.3642 5.98121 84.3788C5.92458 84.3934 5.87609 84.43 5.84639 84.4804C5.58578 84.853 5.43378 85.2907 5.40734 85.7446C5.11395 85.6467 5.11032 85.5751 5.14557 85.3771C5.19511 85.0951 5.30513 84.8272 5.46808 84.5918C5.63103 84.3563 5.84303 84.159 6.08951 84.0133C6.53426 83.7541 6.72035 83.7603 6.77115 83.1165C7.0521 79.3325 5.18652 75.4018 4.88483 71.5737C5.39483 73.0211 6.29286 74.3006 7.48079 75.2722C7.27344 74.675 7.07024 74.1214 6.91059 73.7658C6.79499 73.5108 7.17495 73.2863 7.29055 73.545C7.72804 74.4744 8.67042 77.4846 8.96278 78.4798C9.88702 81.6641 10.3909 83.2938 9.77194 85.7633C10.9834 85.6156 11.8661 86.3724 12.6525 87.2826C12.9802 82.6985 13.0072 78.0979 12.7333 73.5103C12.7152 73.2288 13.1563 73.2304 13.1755 73.5103C13.219 74.2018 13.2875 75.9113 13.2937 76.0731C13.625 75.9772 13.9415 75.8359 14.234 75.6532C14.2499 75.6436 14.2675 75.6371 14.2858 75.634C13.7457 73.6523 13.5384 69.9585 15.463 69.2385C15.7416 69.122 16.0493 69.0939 16.3444 69.158C16.6394 69.222 16.9077 69.3752 17.113 69.5967C17.2908 69.8144 16.9797 70.1295 16.802 69.9077C16.6014 69.7019 16.3297 69.5805 16.0426 69.5683C15.7554 69.5562 15.4745 69.6542 15.2572 69.8424C14.7529 70.3399 14.4578 71.0114 14.4325 71.7193C14.179 73.7502 14.5746 75.8093 15.5626 77.6017C15.8156 78.0604 16.1073 78.4967 16.4344 78.9059C16.6122 79.0884 16.7817 78.8997 16.9917 78.6389C16.525 78.2943 16.1786 77.8115 16.0016 77.2591C15.9859 77.2029 15.9931 77.1428 16.0217 77.092C16.0502 77.0411 16.0978 77.0037 16.154 76.988C16.2102 76.9722 16.2703 76.9794 16.3211 77.008C16.372 77.0366 16.4094 77.0842 16.4251 77.1404C16.4469 77.2026 16.4686 77.2684 16.4935 77.3306C16.6575 77.7075 16.9161 78.0357 17.2441 78.2834C17.3749 78.0853 17.4935 77.8795 17.5992 77.667C17.2016 77.3619 16.8819 76.967 16.6661 76.5147C16.5293 76.2223 16.9336 76.0523 17.0461 76.2908C17.213 76.6427 17.6515 77.2378 17.7842 77.2378C18.0599 76.582 18.0754 75.8458 17.8278 75.1789C17.5805 74.5569 16.5915 73.2309 17.0274 71.0377C17.0793 70.7609 17.5069 70.8791 17.4509 71.1559C17.3933 71.4505 17.3637 71.7499 17.3623 72.0501C17.6348 71.4226 17.8157 70.7592 17.8993 70.0803C18.0336 68.0872 17.5753 63.0928 16.2183 60.7793L16.2115 60.7918C16.2115 60.7918 12.8738 62.392 6.83595 60.6301C6.83595 60.6301 6.76182 59.2782 7.24701 58.7557C7.24493 58.7489 11.8257 60.869 16.1255 59.0672V59.0672ZM17.5163 51.1472C17.5163 51.1472 17.1658 53.1978 16.266 53.1978C15.3661 53.1978 15.1152 50.7491 15.1152 50.7491C15.4597 50.9917 15.8546 51.1534 16.2703 51.2222C16.6861 51.2909 17.112 51.2649 17.5163 51.1461V51.1472ZM12.5669 49.9959C12.6759 49.996 12.7824 50.0284 12.8729 50.089C12.9635 50.1496 13.034 50.2357 13.0756 50.3364C13.1173 50.4371 13.1281 50.5479 13.1068 50.6547C13.0855 50.7616 13.033 50.8597 12.9559 50.9367C12.8788 51.0137 12.7806 51.0661 12.6737 51.0874C12.5669 51.1086 12.4561 51.0976 12.3554 51.0559C12.2548 51.0142 12.1688 50.9436 12.1082 50.853C12.0477 50.7624 12.0154 50.6559 12.0154 50.5469C12.0153 50.4745 12.0294 50.4027 12.0571 50.3357C12.0848 50.2688 12.1254 50.208 12.1767 50.1568C12.2279 50.1056 12.2888 50.065 12.3558 50.0374C12.4227 50.0098 12.4945 49.9957 12.5669 49.9959ZM3.93986 64.6183C1.71091 63.1068 0.0391969 60.0049 0.521273 55.2458C0.728617 53.1911 1.35065 51.1114 2.72275 49.5817C0.606802 54.6 2.07376 60.0396 4.47066 62.1115C4.17554 62.9177 3.99681 63.7618 3.93986 64.6183V64.6183ZM7.1905 61.4076C6.00127 64.4254 5.7863 67.7397 6.57573 70.8858C6.64415 71.1595 6.22065 71.2777 6.15223 71.004C5.34033 67.7808 5.55471 64.3845 6.76545 61.2889C6.8686 61.0297 7.29158 61.1463 7.18895 61.4076H7.1905Z" fill="#FE744F"/>
<path d="M41.4874 39.1741C36.4483 40.327 31.2164 40.3493 26.1677 39.2394C24.424 43.8134 20.812 57.4909 27.1671 81.9212C27.1671 81.9212 27.955 83.497 33.1283 82.3727L33.8664 48.9498L34.3179 48.925L37.0652 82.5474C39.0812 83.3375 41.3105 83.3947 43.3644 82.7091C43.3644 82.7091 47.6092 51.6137 41.4874 39.1741V39.1741ZM26.9588 45.356C26.4218 45.773 25.7809 46.0347 25.1056 46.1129C25.0492 46.1101 24.9961 46.0858 24.9571 46.0449C24.9182 46.004 24.8965 45.9498 24.8965 45.8933C24.8965 45.8369 24.9182 45.7826 24.9571 45.7417C24.9961 45.7009 25.0492 45.6765 25.1056 45.6738C25.4152 45.661 25.7168 45.572 25.9837 45.4146C26.7371 45.0808 27.3869 44.5505 27.8649 43.8792C28.4263 43.0465 28.6469 42.0302 28.4812 41.0397C28.4293 40.7623 28.8565 40.6457 28.9062 40.923C29.0595 41.7718 28.9561 42.6471 28.6092 43.4368C28.2623 44.2265 27.6876 44.8948 26.9588 45.356V45.356ZM42.1509 45.85C41.1215 45.2824 40.3061 44.3935 39.8293 43.3189C39.3525 42.2444 39.2405 41.0434 39.5103 39.8993C39.5757 39.6225 39.9992 39.7406 39.9338 40.0174C39.6795 41.0678 39.7807 42.1728 40.2216 43.1595C40.6624 44.1462 41.4181 44.9588 42.3701 45.4701C42.621 45.6038 42.3992 45.9848 42.1509 45.849V45.85ZM16.0975 59.0672C11.7983 60.8716 7.21698 58.7495 7.21698 58.7495C6.72817 59.2761 6.80592 60.6244 6.80592 60.6244C12.8438 62.3868 16.1815 60.7861 16.1815 60.7861C16.3361 60.5212 16.4144 60.2187 16.4078 59.9121C16.4012 59.6054 16.31 59.3066 16.1442 59.0485C16.1255 59.0537 16.1131 59.06 16.0975 59.0672V59.0672Z" fill="#FFD35C"/>
<path d="M85.915 47.8317C79.5625 51.2322 71.9711 48.912 70.371 48.3579C70.2777 52.3062 70.0656 66.6389 71.601 77.7178C71.9125 77.8602 72.2374 77.9713 72.5709 78.0496C74.1454 78.4451 75.8118 78.2192 77.2242 77.4187L78.2729 55.3702L79.0981 55.744L78.7995 82.2924C78.7995 82.2924 81.9506 83.4908 84.7995 82.1425C85.6626 72.8302 86.4199 57.4603 85.915 47.8317V47.8317Z" fill="#B2EACD"/>
<path d="M90.8534 41.0801C90.7694 40.8805 90.3796 39.9557 90.3516 39.8878C90.2407 39.6287 89.6747 39.8645 94.313 37.3442C94.5524 37.8953 94.7795 38.4556 94.9868 39.0191C93.6753 39.8316 92.2916 40.5215 90.8534 41.0801V41.0801Z" fill="#76D3DE"/>
<path d="M87.7588 26.7811C87.5831 27.3109 87.1186 28.1439 86.5697 28.0298C86.0326 27.9147 85.9735 27.0615 86.1088 26.4851C85.8564 27.1232 85.2997 27.2326 85.013 26.9926C84.63 26.6645 84.7974 25.7153 84.985 25.2364C84.8409 25.5145 84.6403 25.7596 84.3962 25.9559C84.2718 26.0508 84.1212 26.1054 83.9648 26.112C83.8084 26.1187 83.6537 26.0772 83.5217 25.9932C83.0458 25.6215 83.2501 24.506 83.4776 23.9446C83.2033 24.0565 82.901 24.0804 82.6125 24.013C82.5161 23.9937 82.4268 23.9483 82.3544 23.8817C82.282 23.8152 82.2292 23.73 82.2019 23.6356C82.1745 23.5411 82.1736 23.441 82.1992 23.346C82.2248 23.2511 82.2759 23.165 82.3471 23.0971C81.4704 22.7606 80.5546 22.5368 79.6215 22.431C79.6458 22.4561 79.6629 22.4872 79.6711 22.5211C79.6793 22.555 79.6783 22.5904 79.6682 22.6238C79.0291 24.9404 75.8919 26.072 75.074 22.9058C75.0695 22.8844 75.0683 22.8623 75.0703 22.8405C74.2645 23.1847 73.5115 23.6413 72.8336 24.1965C71.1194 25.2701 68.8065 26.877 66.1887 28.9261C66.1929 29.5284 66.1338 32.3597 66.0706 35.1365L68.8464 33.4337C68.8053 33.4218 68.7685 33.3982 68.7407 33.3657C68.7128 33.3332 68.695 33.2933 68.6895 33.2509C68.684 33.2084 68.691 33.1653 68.7097 33.1268C68.7283 33.0883 68.7578 33.0561 68.7945 33.0341C69.4219 32.7302 70.0294 32.3871 70.6135 32.0067C70.6672 31.9894 70.7249 31.9887 70.7791 32.0048C70.8332 32.0209 70.8812 32.053 70.9167 32.0969C71.0385 32.2679 70.8841 33.7655 70.8649 33.9557C70.864 34.0114 70.8421 34.0647 70.8037 34.105C70.7653 34.1454 70.7131 34.1698 70.6575 34.1734C70.5098 38.5888 70.0661 43.8403 70.0661 48.2521C74.7878 50.0975 81.5276 50.3468 86.2664 47.6539L86.0176 32.5551C86.0176 32.5551 88.4461 36.5937 89.897 39.4586C90.1717 39.0631 94.1688 36.915 94.3342 36.8321C93.1855 34.2631 90.9726 30.0131 87.7588 26.7811V26.7811Z" fill="#76D3DE"/>
<path d="M39.5165 21.5342C38.3877 20.9148 37.16 20.496 35.8879 20.2964C35.8958 20.5661 35.8423 20.8341 35.7315 21.0801C35.6207 21.3262 35.4554 21.5438 35.2482 21.7167C35.041 21.8896 34.7972 22.0131 34.5353 22.078C34.2734 22.143 34.0002 22.1475 33.7362 22.0915C32.4833 22.0785 31.6659 21.5793 31.4974 20.3477C30.6294 20.4886 29.779 20.7225 28.9611 21.0454C28.917 21.3932 28.5495 21.6986 27.8839 21.5342C27.8243 21.5653 27.7683 21.5918 27.7092 21.6229C27.8953 22.1578 28.0622 23.1681 27.6128 23.5196C27.4809 23.6041 27.326 23.646 27.1694 23.6393C27.0128 23.6326 26.8621 23.5778 26.7378 23.4822C26.4928 23.287 26.2922 23.0417 26.1495 22.7627C26.3309 23.2293 26.5077 24.2007 26.1215 24.519C25.8488 24.7507 25.2869 24.6745 25.0252 24.0115C25.3481 25.3219 24.4705 26.2031 23.7153 24.9953C22.6804 26.2836 21.7273 27.6356 20.8617 29.0432C25.5529 30.9119 25.2501 30.7538 25.3129 30.8818L25.6695 31.0327L26.6129 29.3952C27.0002 32.6617 26.4349 35.9705 24.9853 38.9232C29.1353 40.2605 36.0818 40.5819 42.5375 38.9232C42.5375 38.9232 40.5159 35.3143 41.015 29.0899L42.0642 30.083C42.1632 30.0022 42.1497 30.0281 42.1394 29.9742C42.0922 29.8109 41.9668 30.0037 44.7732 27.2901C44.8028 27.2616 44.8397 27.2418 44.8798 27.2326C44.9198 27.2235 44.9617 27.2255 45.0007 27.2383C45.0834 27.1232 45.1543 27.0001 45.2122 26.8708C43.7641 24.6651 41.8117 22.8358 39.5165 21.5342Z" fill="#FCAFB7"/>
<path d="M97.786 47.8628C97.4283 47.8447 97.2676 47.4176 97.1479 47.1371C97.1258 47.1002 97.0934 47.0705 97.0547 47.0517C97.016 47.0329 96.9727 47.0258 96.93 47.0313C96.8873 47.0368 96.8472 47.0547 96.8145 47.0827C96.7819 47.1107 96.7581 47.1476 96.7461 47.189C96.6254 47.8903 97.2013 48.5144 96.8208 48.9141C96.4579 49.294 95.9955 47.7498 95.9427 47.5378C95.8717 47.261 95.4699 47.3792 95.5192 47.6565C95.5964 48.0765 95.5943 48.5073 95.513 48.9265C95.4217 49.393 95.3533 49.6901 95.0552 49.1857C94.7367 48.4124 94.5677 47.5857 94.5571 46.7494C94.5544 46.693 94.53 46.6399 94.4892 46.6009C94.4483 46.562 94.394 46.5403 94.3376 46.5403C94.2811 46.5403 94.2268 46.562 94.186 46.6009C94.1451 46.6399 94.1208 46.693 94.118 46.7494C94.0662 47.6716 93.3783 48.374 93.1777 48.2972C92.9771 48.2205 92.9787 47.8178 92.9787 47.6529C92.9865 46.7349 93.4831 45.7117 93.3208 44.6075C93.1238 43.2163 92.5666 42.2967 92.057 41.0516C92.9467 40.6731 93.8122 40.2403 94.6488 39.7557C96.0951 42.389 96.3724 44.4728 97.8067 47.0604C97.9187 47.2621 98.2846 47.8882 97.786 47.8628V47.8628ZM81.7515 13.496C81.5538 12.3262 81.2818 11.1702 80.9372 10.0349C78.462 12.6226 76.7384 11.4983 75.3513 11.9845C73.9642 12.4707 74.9402 14.9454 74.9402 14.9454C73.3945 14.4623 71.9773 14.5436 71.9773 16.149C71.9773 16.8649 73.2634 16.9991 73.9787 17.0147C73.8895 16.714 73.5184 16.798 73.5873 16.4963C73.6863 16.063 74.6349 16.6088 74.41 17.3438L75.0543 20.0087C75.0267 20.8945 75.1219 21.7798 75.3373 22.6394C75.3415 22.6555 75.4591 22.6622 75.4928 22.7949C75.7836 23.8995 76.4585 24.6709 77.5046 24.35C77.9228 24.2053 78.2997 23.9615 78.603 23.6393C78.9064 23.3171 79.1271 22.9261 79.2463 22.5C79.3915 21.609 79.369 20.6986 79.1799 19.8159C79.4619 20.0699 81.0103 19.2027 81.1352 19.1094C82.5752 18.0421 81.9972 14.991 81.7515 13.496V13.496ZM74.1072 16.1335C73.9227 15.9388 73.6903 15.7958 73.4334 15.7188C73.3785 15.7011 73.3322 15.6634 73.304 15.6131C73.2757 15.5629 73.2675 15.5037 73.281 15.4477C73.2977 15.3924 73.3352 15.3457 73.3855 15.3173C73.4358 15.2889 73.4951 15.281 73.551 15.2953C73.8786 15.3966 74.1759 15.5773 74.4167 15.8214C74.6199 16.0381 74.3053 16.3403 74.1072 16.1335V16.1335ZM77.2273 14.3415C77.1163 14.6359 76.7089 14.4737 76.8043 14.2233C76.8875 13.9693 77.039 13.7431 77.2421 13.5694C77.4453 13.3957 77.6922 13.2812 77.9561 13.2384C78.0113 13.2255 78.0693 13.2343 78.1181 13.2632C78.1669 13.292 78.2027 13.3386 78.218 13.3932C78.2332 13.4478 78.2268 13.5062 78.2 13.5562C78.1732 13.6062 78.1282 13.6439 78.0743 13.6614C77.6036 13.8143 77.4045 13.8993 77.2273 14.3415V14.3415ZM77.9296 14.5639C78.1691 14.639 78.406 14.7168 78.6455 14.7945C78.7014 14.8109 78.7488 14.8482 78.7778 14.8988C78.8068 14.9493 78.8151 15.0091 78.801 15.0656C78.785 15.1217 78.7476 15.1691 78.6968 15.1977C78.6461 15.2262 78.5861 15.2335 78.5299 15.218C78.2904 15.1429 78.0535 15.0656 77.814 14.9879C77.7615 14.9694 77.7178 14.9318 77.6919 14.8824C77.666 14.8331 77.6597 14.7758 77.6744 14.722C77.689 14.6683 77.7235 14.6221 77.7709 14.5927C77.8183 14.5634 77.875 14.5531 77.9296 14.5639V14.5639ZM80.3753 17.8897C80.1838 17.987 79.9739 18.0428 79.7594 18.0534C79.5449 18.0641 79.3305 18.0293 79.1304 17.9514C78.9302 17.8735 78.7487 17.7543 78.5978 17.6014C78.4469 17.4486 78.33 17.2656 78.2546 17.0644C78.225 17.014 78.2165 16.9539 78.2311 16.8973C78.2458 16.8407 78.2823 16.7922 78.3327 16.7625C78.383 16.7328 78.4432 16.7243 78.4998 16.739C78.5564 16.7536 78.6049 16.7901 78.6346 16.8405C78.6808 16.9907 78.7589 17.1292 78.8635 17.2465C78.9681 17.3638 79.0968 17.4571 79.2408 17.52C79.3848 17.583 79.5408 17.6141 79.6979 17.6112C79.855 17.6084 80.0097 17.5716 80.1513 17.5035C80.2023 17.4768 80.2617 17.4708 80.317 17.4868C80.3723 17.5028 80.4193 17.5396 80.4482 17.5894C80.4771 17.6392 80.4856 17.6982 80.472 17.7542C80.4584 17.8101 80.4238 17.8587 80.3753 17.8897ZM80.4971 12.2395C80.9496 11.8591 81.6442 12.154 81.4685 12.4852C81.3819 12.648 81.1098 12.5925 80.6526 12.6159C80.6096 12.615 80.5678 12.6016 80.5323 12.5774C80.4968 12.5532 80.4692 12.5192 80.4527 12.4795C80.4362 12.4398 80.4316 12.3962 80.4395 12.3539C80.4474 12.3117 80.4674 12.2727 80.4971 12.2416V12.2395ZM81.7297 13.7138C81.6738 13.8724 81.6178 14.0279 81.5618 14.1839C81.5454 14.2403 81.5074 14.288 81.456 14.3165C81.4047 14.3451 81.3441 14.3522 81.2876 14.3363C81.2318 14.319 81.1848 14.2808 81.1564 14.2297C81.128 14.1787 81.1204 14.1186 81.1352 14.0621C81.1912 13.9035 81.2451 13.7469 81.3031 13.5919C81.3196 13.5354 81.3578 13.4876 81.4094 13.4592C81.461 13.4309 81.5218 13.4241 81.5784 13.4406C81.6349 13.457 81.6827 13.4952 81.7111 13.5469C81.7395 13.5985 81.7462 13.6593 81.7297 13.7158V13.7138Z" fill="#FFCEB6"/>
<path d="M27.6715 84.6364C29.0014 85.8151 30.1905 87.1437 31.215 88.5957C31.215 88.5957 32.5109 86.7949 32.1647 85.1444C32.1647 85.1444 29.9383 83.5686 27.6715 84.6364V84.6364Z" fill="#97A0B2"/>
<path d="M44.9235 27.7582C44.8717 27.81 43.3632 29.2615 42.666 29.9379L45.1262 32.482C45.1547 31.0042 45.221 29.4647 45.2972 28.1506L44.9235 27.7582ZM33.8352 21.654C32.4025 21.6633 31.6503 21.1273 31.9982 18.8331C32.5194 19.0809 33.0865 19.2172 33.6634 19.2332C34.2403 19.2493 34.8142 19.1448 35.3483 18.9264C35.634 20.5561 35.5033 21.6369 33.8352 21.654Z" fill="#FFCEB6"/>
<path d="M37.4581 15.0065C37.2901 14.9848 37.2217 15.1527 37.259 15.2864C37.0739 16.042 36.7968 16.7719 36.4338 17.4599C36.0061 18.0536 35.3921 18.4871 34.6896 18.6914C33.987 18.8958 33.2363 18.8591 32.557 18.5874C30.1404 17.7611 30.5297 15.5601 30.3866 14.8381C30.3768 14.8015 30.3575 14.7682 30.3308 14.7415C30.304 14.7147 30.2707 14.6955 30.2342 14.6857C29.5769 14.5141 28.8393 13.9351 28.8082 13.2031C28.8009 13.0138 28.8481 12.8264 28.9441 12.663C29.0401 12.4997 29.1809 12.3673 29.3499 12.2815C29.7298 12.1198 30.0284 12.6584 30.172 12.9263C30.1945 12.9627 30.2269 12.9918 30.2655 13.0101C30.3041 13.0285 30.3472 13.0354 30.3896 13.0299C30.4319 13.0244 30.4718 13.0069 30.5045 12.9793C30.5372 12.9517 30.5612 12.9154 30.5737 12.8745C30.6653 12.3111 30.7864 11.753 30.9366 11.2023C32.3071 11.2334 33.8638 10.9498 34.8507 9.9411C34.9072 10.4221 35.0585 10.8871 35.2959 11.3092C35.5333 11.7313 35.852 12.1021 36.2337 12.4002C36.0924 12.3028 35.9283 12.2436 35.7573 12.2286C35.6989 12.2294 35.6431 12.253 35.6019 12.2944C35.5606 12.3357 35.5372 12.3916 35.5365 12.45C35.5552 12.7874 36.0264 12.5822 36.2057 13.0134C36.3612 13.3115 36.9905 12.987 36.2772 12.4344C36.6184 12.7172 36.9967 12.9517 37.4016 13.1316C37.3891 13.2871 37.3798 13.4426 37.3674 13.5924C37.3518 13.8044 37.6099 13.8573 37.7442 13.7479C38.0064 13.5188 38.3082 13.3395 38.6347 13.2187C39.0131 13.0984 39.1961 13.1793 39.3039 13.5608C39.5787 14.6514 38.3325 15.1175 37.4581 15.0065V15.0065ZM16.5583 43.1768C15.7829 43.9235 14.8418 44.4761 13.812 44.7895C12.7821 45.1028 11.6928 45.168 10.6329 44.9797C9.74286 44.8413 10.2016 44.6578 10.6267 44.6371C10.7794 44.6363 10.931 44.61 11.0751 44.5593C11.1156 44.5464 11.1516 44.5222 11.1789 44.4896C11.2062 44.4569 11.2236 44.4172 11.229 44.375C11.2345 44.3328 11.2277 44.2899 11.2096 44.2514C11.1916 44.2129 11.1628 44.1803 11.1269 44.1576C10.6899 43.8647 9.94554 43.9648 9.88749 43.5127C9.8595 43.2795 10.3576 43.3635 10.4919 43.3635C10.8465 43.3635 11.1984 43.3604 11.5535 43.3604C11.606 43.3589 11.6562 43.3389 11.6953 43.3039C11.7344 43.2688 11.7598 43.221 11.7669 43.169C11.774 43.117 11.7624 43.0642 11.7341 43.0199C11.7058 42.9757 11.6628 42.9429 11.6126 42.9275C11.2083 42.767 10.8431 42.5217 10.5417 42.208C10.4608 42.1241 10.2208 41.9343 10.3981 41.8535C11.5521 41.7541 12.711 41.9771 13.7456 42.4978C13.953 42.5973 14.222 42.3205 14.0136 42.152C13.1366 41.4471 12.867 40.5254 13.8016 40.9158C14.5904 41.3166 15.3225 41.8204 15.9787 42.4138C16.1902 42.6035 16.5018 42.2925 16.2898 42.1028C15.6856 41.5665 15.0294 41.0919 14.3309 40.6861C21.5195 29.39 21.3287 29.7487 21.3402 29.7285C22.4173 30.152 24.7157 31.0581 24.7904 31.0861C20.0966 38.4188 18.7784 41.2257 16.5583 43.1768V43.1768Z" fill="#FFCEB6"/>
<path d="M82.7452 8.19318C82.7919 7.83032 82.5047 7.40579 82.1501 7.47421C81.9946 7.50583 81.9946 7.52915 80.6339 8.42385C80.8783 8.03857 81.0129 7.59392 81.0232 7.13779C80.9921 6.68319 80.6085 6.22548 80.1576 6.28768C79.3075 6.40587 78.7202 8.35283 75.963 9.24908C74.5396 9.71301 72.0198 9.83742 72.1333 12.6303C72.1957 13.3913 72.3769 14.1378 72.6704 14.8427C73.1219 14.625 73.832 14.6001 74.9403 14.9464C74.9403 14.9464 73.9657 12.4712 75.3513 11.9855C76.7369 11.4998 78.4651 12.6236 80.9372 10.0359C81.0061 10.2573 81.0683 10.4781 81.1305 10.7026C81.5652 10.2315 81.9391 9.70787 82.2435 9.14385C82.4852 8.87226 82.6574 8.54602 82.7452 8.19318V8.19318Z" fill="#C17E48"/>
<path d="M68.6925 26.2752L69.0429 26.7749C71.5186 24.986 72.2816 24.5926 73.1841 23.9239L72.2702 22.6487C70.9522 23.727 69.7529 24.9427 68.6925 26.2752ZM40.2251 20.7671L39.5186 21.5342C41.1126 22.4241 42.5408 23.5827 43.7401 24.9591L43.8729 24.8036C42.4386 23.6727 41.2054 22.3081 40.2251 20.7671V20.7671ZM28.6398 20.5053C28.3495 20.3192 27.5315 20.4213 27.1884 20.4431L27.0847 20.4493C26.4919 20.2695 25.858 20.2774 25.2699 20.472C24.6818 20.6666 24.1683 21.0383 23.7998 21.5362C23.4313 22.0341 23.2258 22.6338 23.2115 23.2531C23.1972 23.8724 23.3748 24.481 23.72 24.9953C24.4535 26.1689 25.3529 25.3955 25.0309 24.0105C25.2844 24.6501 25.8417 24.7564 26.1273 24.5179C26.5098 24.1898 26.3424 23.2402 26.1553 22.7617C26.299 23.04 26.4994 23.2851 26.7436 23.4812C26.8682 23.576 27.0188 23.6304 27.1753 23.6371C27.3317 23.6438 27.4864 23.6024 27.6186 23.5185C28.1007 23.1422 27.8804 22.0479 27.6637 21.4695C27.938 21.5798 28.2393 21.6042 28.5278 21.5394C28.6406 21.5155 28.743 21.4565 28.8203 21.3709C28.8976 21.2854 28.9459 21.1776 28.9583 21.0629C28.9707 20.9483 28.9466 20.8326 28.8894 20.7325C28.8322 20.6324 28.7448 20.5529 28.6398 20.5053V20.5053ZM59.8135 7.37574C59.6013 7.3682 59.3901 7.40849 59.1955 7.49365C59.001 7.5788 58.8281 7.70663 58.6897 7.86766C58.624 7.34131 58.5491 6.81613 58.4652 6.29237C58.247 4.95033 56.9905 4.32259 55.635 4.22462C54.5195 4.08772 53.3887 4.14684 52.2936 4.39931C51.5908 4.51061 50.9435 4.84843 50.4503 5.36139C49.7905 6.15811 49.8682 7.31043 49.974 8.34093C50.0206 8.77065 50.2015 10.4507 50.2451 10.8648C52.926 13.524 56.1736 12.2126 58.8327 9.55078L58.8452 9.53834C58.8545 9.53834 58.8607 9.53523 58.867 9.53523C60.9228 9.28849 60.9228 7.37574 59.8135 7.37574V7.37574ZM87.396 24.0861C87.0249 23.5746 86.506 23.1891 85.9092 22.9814C85.3123 22.7737 84.6662 22.7539 84.0577 22.9245C83.0293 22.8644 82.6831 22.7851 82.3472 23.0971C82.2762 23.1651 82.2252 23.2512 82.1997 23.3461C82.1742 23.441 82.1752 23.5411 82.2025 23.6354C82.2299 23.7298 82.2825 23.8149 82.3548 23.8815C82.4271 23.948 82.5162 23.9936 82.6126 24.013C82.9011 24.0804 83.2034 24.0565 83.4777 23.9446C83.2517 24.505 83.0454 25.622 83.5218 25.9932C83.6536 26.078 83.8084 26.1199 83.9649 26.1132C84.1215 26.1065 84.2721 26.0516 84.3962 25.9559C84.6414 25.7606 84.8421 25.5153 84.9851 25.2364C84.8026 25.7029 84.6274 26.6754 85.0131 26.9926C85.2847 27.2238 85.8471 27.1481 86.1089 26.4851C85.8025 27.7401 86.5858 28.5974 87.3265 27.6188C87.6972 27.1074 87.9026 26.4948 87.915 25.8633C87.9274 25.2319 87.7463 24.6117 87.396 24.0861V24.0861Z" fill="#9B6868"/>
<path d="M50.4503 5.36138C50.9436 4.84864 51.5908 4.51086 52.2936 4.39931C53.7621 4.0603 56.1341 3.99861 57.4409 4.76683C57.7131 4.93038 57.946 5.15184 58.123 5.41549C58.3 5.67913 58.4168 5.9785 58.4652 6.29236C58.5492 6.81539 58.6243 7.34204 58.6896 7.86766C59.1178 7.37211 60.0405 7.1544 60.407 7.65772C60.6816 7.37119 60.8515 7.00034 60.8892 6.60522C60.9268 6.21009 60.8299 5.81383 60.6143 5.48061C60.5081 5.37363 60.4402 5.23461 60.421 5.0851C60.4287 4.89434 60.9912 3.84777 60.3588 2.77165C60.1773 2.45554 59.9071 2.19951 59.5818 2.03517C59.2564 1.87083 58.89 1.80538 58.5279 1.8469C58.4777 1.53669 58.316 1.25545 58.0733 1.05588C57.5546 0.484668 56.8514 0.114328 56.0869 0.00982698C55.7061 -0.0311302 55.3225 0.0566879 54.9974 0.259261C54.6723 0.461835 54.4245 0.767484 54.2934 1.12741C52.9042 -0.257128 50.5565 0.225983 50.0522 1.19895C49.9859 1.31923 49.9541 1.45548 49.9604 1.59268C49.9666 1.72988 50.0105 1.86269 50.0874 1.97649C49.7246 1.54417 48.9952 1.6551 48.5049 1.96249C47.4474 2.62703 47.4023 3.63887 47.9072 4.12354C48.0503 4.26039 48.2493 4.37235 48.2934 4.5657C48.301 4.66983 48.2759 4.77374 48.2218 4.86301C48.1676 4.95227 48.087 5.02247 47.9912 5.06385C47.8072 5.16078 47.5957 5.19758 47.4091 5.2883C47.2659 5.37306 47.1419 5.4867 47.0451 5.62198C46.9482 5.75726 46.8805 5.91122 46.8464 6.07406C46.8123 6.23691 46.8124 6.40507 46.8468 6.56786C46.8812 6.73065 46.9491 6.8845 47.0462 7.01962C47.2639 7.27775 47.5642 7.45257 47.8962 7.51436C48.2281 7.57616 48.5712 7.52114 48.8672 7.35863C48.6434 7.5589 48.4939 7.829 48.4431 8.12501C48.3922 8.42102 48.443 8.72552 48.5872 8.98899C48.7314 9.25247 48.9604 9.45942 49.2371 9.57619C49.5139 9.69297 49.8219 9.71269 50.1113 9.63216C49.9283 7.94282 49.6313 6.3499 50.4503 5.36138V5.36138ZM58.8451 9.53834C56.1849 12.198 52.9358 13.5349 50.245 10.8648C50.4415 12.6952 50.4487 12.762 50.4674 13.1658C50.5058 14.0356 50.5483 15.2102 51.2237 15.6353C52.1464 16.2169 54.5194 16.1998 55.6329 15.9748C56.8075 15.7379 58.348 15.1278 58.8747 13.96C58.9979 13.6742 59.0665 13.368 59.0768 13.057C59.0888 12.7905 58.9172 9.53834 58.8451 9.53834ZM57.1807 12.9512C57.1602 13.2307 57.042 13.494 56.8467 13.6949C56.6514 13.8959 56.3916 14.0217 56.1129 14.0501C55.7434 14.1365 55.3563 14.1073 55.004 13.9665C54.6517 13.8257 54.3512 13.58 54.1431 13.2628C54.7167 13.3039 55.2918 13.2042 55.8181 12.9724C56.3444 12.7406 56.8061 12.3836 57.1631 11.9326C57.2274 12.2686 57.2333 12.6132 57.1807 12.9512Z" fill="#C17E48"/>
<path d="M72.5709 78.0496C72.0795 78.7457 71.0381 82.2364 72.0619 84.5959C72.6321 85.91 74.042 86.6264 75.0352 85.275C75.5613 84.5586 75.5017 83.6899 75.5536 82.846C75.8044 78.9012 75.8931 78.5907 75.6723 78.0511C74.6538 78.3033 73.5891 78.3027 72.5709 78.0496ZM62.0606 82.1177C61.1576 82.8107 61.0239 84.0848 61.1794 84.3596C59.7482 84.9018 59.4014 86.2982 60.1831 86.673C60.5309 86.8394 62.3556 86.7767 62.7055 86.7663C66.0603 86.6735 66.4097 86.7145 66.3952 85.0791C66.3589 82.1089 63.7318 80.8383 62.0606 82.1177V82.1177ZM63.4053 86.3024C62.664 86.3369 61.9229 86.3504 61.182 86.3428C60.6989 86.3345 60.3962 86.3656 60.279 86.1904C60.2355 86.09 60.2184 85.9802 60.2293 85.8713C60.2402 85.7625 60.2787 85.6582 60.3412 85.5684C60.5211 85.3104 60.7528 85.0927 61.0214 84.9291C61.29 84.7656 61.5897 84.6597 61.9015 84.6182C62.7052 84.5118 63.5215 84.5509 64.3113 84.7338C64.3584 84.7421 64.407 84.7355 64.4501 84.7149C64.4933 84.6944 64.529 84.6609 64.5522 84.6191C64.5755 84.5773 64.5852 84.5293 64.5799 84.4818C64.5746 84.4342 64.5547 84.3895 64.5228 84.3539C64.6777 84.3495 64.832 84.3737 64.978 84.4254C65.034 84.4399 65.0935 84.4321 65.144 84.4037C65.1944 84.3753 65.2319 84.3285 65.2485 84.273C65.3921 83.7635 63.9853 83.8765 63.3337 84.1693C62.7563 84.1028 62.172 84.128 61.6024 84.244C61.5683 83.9497 61.6011 83.6516 61.6982 83.3718C61.7953 83.092 61.9543 82.8376 62.1633 82.6277C63.3887 81.4298 65.5793 82.2094 65.9214 84.5337C66.1852 86.4626 65.6466 86.1904 63.4053 86.3024V86.3024ZM59.8711 66.7856C61.435 67.1799 63.071 67.1906 64.64 66.8167C64.9173 66.7514 64.8002 66.3248 64.5234 66.3927C63.031 66.7504 61.4741 66.7399 59.9867 66.3621C59.9316 66.3501 59.8741 66.3596 59.8259 66.3888C59.7777 66.418 59.7425 66.4646 59.7277 66.5189C59.7129 66.5733 59.7195 66.6313 59.7461 66.6809C59.7728 66.7305 59.8175 66.768 59.8711 66.7856V66.7856ZM55.6117 7.91638C55.6582 7.93815 55.7087 7.95045 55.76 7.95259C55.8113 7.95472 55.8626 7.94664 55.9108 7.92882C56.1327 7.89306 56.3602 7.92053 56.5672 8.00808C56.7742 8.09563 56.9523 8.23973 57.0812 8.42386C57.1122 8.4718 57.1605 8.50592 57.216 8.51904C57.2715 8.53217 57.33 8.52329 57.3791 8.49427C57.4282 8.46525 57.4642 8.41834 57.4795 8.36337C57.4948 8.3084 57.4883 8.24964 57.4612 8.19941C57.257 7.91194 56.9735 7.6902 56.6453 7.5613C56.4687 7.4831 56.2764 7.44707 56.0835 7.45606C55.8906 7.46506 55.7025 7.51884 55.5339 7.61314C55.5042 7.6637 55.4956 7.72398 55.5102 7.78081C55.5248 7.83764 55.5613 7.88639 55.6117 7.91638V7.91638ZM50.8568 9.25842C50.9516 9.21902 51.3871 8.41453 52.2299 8.41453C52.2882 8.41321 52.3437 8.38946 52.385 8.34824C52.4262 8.30701 52.4499 8.25147 52.4512 8.19319C52.4512 7.7842 51.329 7.97962 50.7443 8.71155C50.5515 8.94533 50.4737 9.04537 50.5483 9.17237C50.5803 9.22198 50.6294 9.25815 50.6862 9.27401C50.7431 9.28987 50.8037 9.28432 50.8568 9.25842ZM52.1397 10.177C52.1364 10.0933 52.1008 10.0143 52.0405 9.95629C51.9801 9.89831 51.8997 9.86593 51.816 9.86593C51.7323 9.86593 51.6519 9.89831 51.5915 9.95629C51.5312 10.0143 51.4956 10.0933 51.4923 10.177C51.4956 10.2606 51.5312 10.3396 51.5915 10.3976C51.6519 10.4556 51.7323 10.488 51.816 10.488C51.8997 10.488 51.9801 10.4556 52.0405 10.3976C52.1008 10.3396 52.1364 10.2606 52.1397 10.177ZM55.9885 9.05107C55.9026 9.05107 55.8202 9.08521 55.7595 9.14596C55.6987 9.20672 55.6646 9.28912 55.6646 9.37505C55.6646 9.46097 55.6987 9.54338 55.7595 9.60413C55.8202 9.66489 55.9026 9.69902 55.9885 9.69902C56.0745 9.69902 56.1569 9.66489 56.2176 9.60413C56.2784 9.54338 56.3125 9.46097 56.3125 9.37505C56.3125 9.28912 56.2784 9.20672 56.2176 9.14596C56.1569 9.08521 56.0745 9.05107 55.9885 9.05107V9.05107ZM54.6278 10.9488C54.7879 10.8954 54.9352 10.8095 55.0606 10.6964C55.1859 10.5834 55.2865 10.4457 55.3561 10.292C55.3716 10.2357 55.3641 10.1755 55.3351 10.1247C55.3062 10.0739 55.2583 10.0367 55.2019 10.0212C55.1456 10.0057 55.0854 10.0133 55.0346 10.0422C54.9838 10.0711 54.9466 10.119 54.9311 10.1754C54.8928 10.2587 54.8298 10.3281 54.7507 10.3744C54.4122 10.6072 54.2919 10.6824 54.1027 10.1671C53.8914 9.59686 53.7636 8.99906 53.7233 8.39224C53.7046 8.1118 53.2625 8.10869 53.2843 8.39224C53.348 9.39786 53.6855 11.3262 54.6278 10.9488V10.9488ZM72.7715 21.6198C71.149 19.5868 68.1928 14.4804 62.6795 13.1223C61.4907 12.8646 60.2845 12.695 59.0707 12.6148C59.0795 12.761 59.0795 12.9076 59.0707 13.0539C62.8895 13.3566 65.4528 14.0455 68.5806 17.1173C69.8956 18.409 70.1502 18.8502 71.6316 20.8635C69.514 21.9285 67.7464 23.5785 66.5382 25.6179C65.8379 24.6968 66.0038 24.605 64.0781 21.371C64.0481 21.3219 64.0002 21.2865 63.9445 21.2724C63.8888 21.2583 63.8297 21.2666 63.7801 21.2955C63.7304 21.3243 63.694 21.3715 63.6787 21.4269C63.6634 21.4823 63.6703 21.5415 63.6981 21.5918C64.3426 22.6724 64.9581 23.7696 65.5445 24.8834C65.515 25.0601 65.7819 25.8221 65.7348 31.3411C65.7348 31.6236 65.5171 41.6275 65.4326 41.8939C65.2491 42.4579 62.8698 43.3204 62.4059 43.4754C57.7759 45.0191 51.9127 44.6827 47.2106 43.6066C46.5585 43.4511 46.4367 43.4801 46.2548 42.6253C45.3932 38.6194 45.4772 32.7049 45.7157 28.5886C45.9505 24.8326 45.9945 24.6657 46.4134 20.8479C46.4445 20.5675 46.0023 20.5675 45.9743 20.8479C45.8872 21.6447 45.7971 22.445 45.7094 23.2422C44.2767 22.1573 41.788 19.9626 41.0701 18.2976C43.8112 16.0384 47.0299 14.4316 50.483 13.5987C50.4789 13.5468 50.4607 13.2156 50.4582 13.1627C47.2452 13.9118 44.2265 15.3305 41.5994 17.3262C40.9424 17.7321 40.3774 18.2708 39.9406 18.9077C39.8215 19.0798 39.7464 19.2785 39.722 19.4864C39.6976 19.6942 39.7246 19.9049 39.8007 20.0999C41.0395 22.1734 43.1596 24.7818 45.4368 25.6702C45.4259 25.7584 45.4129 25.805 45.4586 25.8776C45.4067 26.4348 45.3653 26.9889 45.3279 27.5467C45.2434 27.4591 45.1626 27.372 45.0786 27.2849C45.0362 27.246 44.9807 27.2245 44.9231 27.2245C44.8655 27.2245 44.81 27.246 44.7676 27.2849C41.971 29.9887 42.0861 29.8042 42.1333 29.969C42.1701 30.1152 43.7039 31.6241 45.1102 33.1046C45.075 36.0209 45.204 40.1024 45.8701 42.9503C45.8887 43.1666 45.9702 43.3727 46.1046 43.5431C46.239 43.7136 46.4204 43.8409 46.6264 43.9093C47.5413 44.2524 50.822 44.7184 52.5648 44.8558C55.5624 45.1449 58.5874 44.9228 61.5106 44.1991C62.8782 43.8448 64.191 43.3052 65.4123 42.5952C65.9779 42.1977 65.898 41.7265 65.926 41.0542C65.9416 40.6395 66.1966 30.0965 66.1852 28.9198C66.1796 27.8452 66.135 26.7712 66.0515 25.6998C66.4904 26.2873 66.9294 26.8716 67.3686 27.4529C67.3888 27.4851 67.4168 27.5117 67.45 27.5302C67.4832 27.5486 67.5206 27.5583 67.5586 27.5583C67.5966 27.5583 67.634 27.5486 67.6672 27.5302C67.7005 27.5117 67.7285 27.4851 67.7486 27.4529C69.0594 25.6776 70.5748 24.063 72.2635 22.6425C73.1074 21.9966 73.2313 22.1744 72.7715 21.6198V21.6198ZM45.1263 32.481C44.3053 31.6338 43.4853 30.7858 42.6662 29.9369C43.3665 29.263 44.8707 27.8116 44.9236 27.7572L45.2974 28.1496C45.2134 29.5922 45.1563 31.0362 45.1263 32.481V32.481ZM40.3807 20.1901C40.1734 19.8573 40.0438 19.7506 40.2687 19.2623C40.3843 19.0195 40.5449 18.8008 40.742 18.6179C41.7953 20.9148 45.6073 23.6942 45.6592 23.7461C45.6073 24.238 45.5498 24.731 45.4974 25.2219C43.4489 24.3769 41.5532 22.0604 40.3807 20.1901V20.1901ZM67.5672 26.9874C67.3215 26.6577 67.0752 26.3306 66.8264 26.0025C68.0087 23.9435 69.7749 22.2812 71.9017 21.2258C72.0883 21.4751 72.2817 21.7214 72.4812 21.9608C70.7774 23.093 68.8143 25.3587 67.5651 26.9879L67.5672 26.9874Z" fill="#1D1D1B"/>
<path d="M47.7715 21.4767C47.6678 21.4477 47.4086 21.5539 47.4128 21.7359C47.4936 24.5252 47.265 26.8842 48.9637 28.147C50.4058 29.2231 52.614 28.4378 53.2661 25.5469C53.5253 24.4065 53.7461 22.769 53.3848 21.6592C53.3696 21.6155 53.3414 21.5776 53.304 21.5505C53.2665 21.5234 53.2216 21.5085 53.1754 21.5077C53.1292 21.507 53.0839 21.5205 53.0456 21.5464C53.0073 21.5722 52.9779 21.6093 52.9613 21.6524C48.7781 21.6213 48.5708 21.6986 47.7715 21.4767V21.4767ZM51.7478 27.5674C51.4424 27.8796 51.0415 28.0806 50.6087 28.1387C50.1759 28.1967 49.7361 28.1084 49.3592 27.8878C47.7119 26.863 47.9788 24.2328 47.9047 23.6284C49.6298 23.9056 51.3866 23.9245 53.1173 23.6844C52.9852 25.0627 52.7094 26.6898 51.7478 27.5674ZM53.0365 22.0775C53.1211 22.4617 53.1559 22.8553 53.1401 23.2484C51.3969 23.4914 49.6269 23.4694 47.8902 23.1831C47.8777 22.7721 47.8684 22.3579 47.8565 21.9468C48.6471 22.0714 49.4483 22.1152 50.2477 22.0775C52.2159 22.091 52.9732 22.1049 53.0365 22.0775V22.0775ZM24.9657 83.7464C22.8668 84.8453 26.0651 88.395 27.516 88.7967C28.7411 89.1046 30.0306 89.0345 31.215 88.5956C30.0705 86.955 26.7369 82.819 24.9657 83.7464V83.7464ZM39.6659 83.8967C37.3649 84.2953 36.0166 87.1976 36.0166 87.1976C38.5161 87.6361 41.0743 87.6186 43.5676 87.1458C43.5676 87.1458 41.9638 83.4975 39.6659 83.8967ZM55.6397 86.1718C52.7534 84.9194 49.7962 85.812 49.0104 86.8601C48.5288 87.5003 48.6377 88.2929 49.6925 88.7065C51.1439 89.2446 54.0431 88.9357 55.565 88.6283C57.8889 88.1602 57.6421 87.0395 55.6397 86.1718V86.1718ZM53.7902 88.4525C45.1911 89.3462 50.2892 84.4275 55.3219 86.5103C56.75 87.1038 56.8101 87.5838 56.7542 87.4723C57.0087 88.1016 54.4801 88.3779 53.7902 88.4505V88.4525ZM18.9594 47.0594C18.4475 46.2731 17.8279 45.5624 17.1187 44.9481C16.5306 45.6248 15.9086 46.2713 15.2552 46.8852C15.8622 47.3305 17.0285 47.7669 18.9594 47.0594ZM8.73839 56.1685C9.20491 55.4387 10.0296 53.5897 9.96224 52.4477C9.94617 52.1678 9.50452 52.1647 9.52319 52.4477C9.57502 53.3481 9.06288 54.6098 8.65752 55.4153C7.5275 57.6759 5.15133 58.0968 5.48619 55.6196C5.6615 54.6731 6.07262 53.7862 6.68153 53.0407C7.26624 52.2554 8.10702 51.2223 9.02815 50.9066C9.29563 50.8164 9.18055 50.3883 8.90945 50.4831C7.89294 50.8392 7.1522 51.7153 6.50425 52.5488C5.79129 53.3778 5.29777 54.3725 5.06891 55.4418C4.61379 58.3114 7.29579 58.4306 8.73839 56.1685V56.1685ZM7.18901 61.4076C7.29268 61.1432 6.86866 61.0292 6.76551 61.291C5.55477 64.3865 5.34039 67.7828 6.15228 71.0061C6.16796 71.0622 6.2053 71.1099 6.25609 71.1385C6.30688 71.1671 6.36697 71.1744 6.42313 71.1587C6.47929 71.1431 6.52692 71.1057 6.55555 71.0549C6.58418 71.0041 6.59146 70.9441 6.57579 70.8879C5.78528 67.7413 5.99971 64.4261 7.18901 61.4076V61.4076ZM17.692 73.8628C17.3576 72.9996 17.2733 72.0596 17.4489 71.1507C17.5049 70.8739 17.0788 70.7557 17.0254 71.0325C16.8879 71.7496 16.891 72.4865 17.0348 73.2024C17.2178 73.8885 17.4834 74.55 17.8258 75.1721C18.0734 75.8391 18.0579 76.5752 17.7822 77.2311C17.6495 77.2311 17.212 76.636 17.0441 76.284C16.9311 76.044 16.5257 76.2161 16.6641 76.508C16.8797 76.9604 17.1995 77.3553 17.5972 77.6603C17.4913 77.8727 17.3727 78.0785 17.2421 78.2766C16.9141 78.0337 16.6563 77.7084 16.4946 77.3337C16.4925 77.3309 16.4914 77.3274 16.4915 77.3239C16.4666 77.2617 16.4449 77.1958 16.4231 77.1336C16.4153 77.1058 16.4021 77.0798 16.3843 77.0571C16.3664 77.0344 16.3443 77.0154 16.3191 77.0013C16.2939 76.9871 16.2662 76.9781 16.2375 76.9746C16.2089 76.9712 16.1798 76.9734 16.152 76.9812C16.1242 76.989 16.0982 77.0022 16.0755 77.0201C16.0528 77.0379 16.0338 77.06 16.0196 77.0852C16.0055 77.1104 15.9964 77.1381 15.993 77.1668C15.9896 77.1954 15.9918 77.2245 15.9996 77.2523C16.1762 77.805 16.5227 78.2878 16.9897 78.6322C16.9281 78.71 16.8617 78.7838 16.7906 78.853C16.6693 78.9681 16.563 79.0334 16.4324 78.8992C16.1052 78.49 15.8135 78.0537 15.5605 77.595C14.5729 75.8024 14.1773 73.7435 14.4305 71.7126C14.4558 71.0046 14.7509 70.3331 15.2552 69.8356C15.4725 69.6476 15.7534 69.5496 16.0405 69.5618C16.3276 69.5739 16.5993 69.6952 16.7999 69.9009C16.9772 70.1218 17.2887 69.8076 17.111 69.5899C16.4412 68.7605 14.7866 68.9591 14.2081 70.6733C13.7302 72.0729 13.8842 74.1655 14.2828 75.6273C14.2644 75.6303 14.2469 75.6369 14.2309 75.6464C13.9384 75.8292 13.622 75.9705 13.2906 76.0663C13.2844 75.9046 13.216 74.195 13.1724 73.5035C13.169 73.4672 13.1571 73.4322 13.1378 73.4012C13.1185 73.3703 13.0922 73.3443 13.0611 73.3253C13.0299 73.3062 12.9948 73.2947 12.9584 73.2917C12.922 73.2886 12.8855 73.2941 12.8516 73.3076C12.6359 73.3921 12.7718 73.3231 12.8609 76.4867C12.9925 80.0842 12.9219 83.6863 12.6494 87.2759C11.8579 86.3594 10.9756 85.6088 9.76889 85.7565C10.2945 83.6603 9.98971 82.2804 9.50971 80.4444C8.89549 78.1035 8.15347 75.798 7.28698 73.5383C7.1719 73.2791 6.79142 73.5041 6.90702 73.7591C7.48395 75.0514 9.56828 81.3349 9.59731 83.4804C9.62323 85.0454 9.2469 85.6575 9.34798 85.8597C8.92921 86.0503 8.55803 86.3315 8.26129 86.6831C7.96456 87.0347 7.74968 87.4479 7.6322 87.8927C7.68555 88.059 7.73241 88.2272 7.77268 88.3971C9.33865 89.1627 11.0731 88.7081 12.6551 88.2416C12.6842 88.2333 13.018 87.986 13.0315 87.8715C13.0315 87.3961 13.2502 86.6528 13.3305 82.4002C13.4171 77.6556 13.2315 76.509 13.3212 76.509C13.6978 76.4028 14.0591 76.248 14.3958 76.0487C14.6721 76.9138 15.7311 79.2475 16.4226 79.4113C16.9145 79.5233 17.3909 78.8266 17.662 78.4052C19.1735 76.0601 18.0285 74.7248 17.692 73.8628V73.8628ZM10.8497 88.2561L10.9896 87.2567C11.0053 87.2005 10.998 87.1404 10.9694 87.0896C10.9408 87.0389 10.8931 87.0015 10.837 86.9858C10.7808 86.9702 10.7207 86.9774 10.6699 87.0061C10.6191 87.0347 10.5818 87.0823 10.5661 87.1385L10.3982 88.325C10.0688 88.3676 9.73626 88.3811 9.40448 88.3655C9.28267 87.35 9.91558 87.083 9.56362 86.871C9.513 86.8423 9.45318 86.8343 9.39679 86.8488C9.34041 86.8633 9.29186 86.8992 9.26141 86.9488C9.02953 87.3627 8.92748 87.8368 8.96854 88.3095C8.65637 88.258 8.35294 88.1631 8.06711 88.0275C8.07333 88.0031 8.07437 88.0192 8.08111 87.9995C8.37087 87.0716 9.08102 86.1251 10.1545 86.1624C11.1622 86.1987 11.9346 87.0328 12.5582 87.8124C11.9966 87.9909 11.4257 88.1391 10.8481 88.2561H10.8497ZM12.567 49.9959C12.676 49.996 12.7824 50.0284 12.873 50.089C12.9635 50.1496 13.0341 50.2357 13.0757 50.3364C13.1173 50.4371 13.1282 50.5479 13.1068 50.6547C13.0855 50.7616 13.033 50.8597 12.9559 50.9367C12.8788 51.0137 12.7807 51.0661 12.6738 51.0874C12.5669 51.1086 12.4562 51.0976 12.3555 51.0559C12.2548 51.0142 12.1688 50.9436 12.1083 50.853C12.0478 50.7624 12.0155 50.6558 12.0155 50.5469C12.0155 50.4745 12.0297 50.4028 12.0575 50.3359C12.0852 50.269 12.1258 50.2083 12.177 50.1571C12.2283 50.1059 12.2891 50.0653 12.356 50.0377C12.4229 50.01 12.4946 49.9958 12.567 49.9959ZM16.266 53.1968C17.1659 53.1968 17.5163 51.1461 17.5163 51.1461C17.1119 51.264 16.6861 51.2895 16.2704 51.2206C15.8548 51.1516 15.46 50.9901 15.1153 50.748C15.1153 50.748 15.3662 53.1968 16.266 53.1968ZM25.3052 31.0793C25.3211 31.05 25.3303 31.0176 25.3321 30.9843C25.3339 30.9511 25.3282 30.9178 25.3156 30.887C25.3029 30.8562 25.2836 30.8285 25.2589 30.8061C25.2342 30.7837 25.2049 30.7671 25.173 30.7574C24.2617 30.3992 21.3371 29.2464 21.2978 29.2298C21.2506 29.2169 21.2005 29.2201 21.1553 29.2388C21.1101 29.2576 21.0725 29.2909 21.0484 29.3335C20.8089 29.7067 14.1703 40.0698 13.9241 40.4865C13.1434 40.1937 12.6707 40.6249 12.7785 41.1604C12.9402 41.9571 13.4886 41.7824 12.2244 41.5233C11.6449 41.3968 11.051 41.3497 10.4588 41.3833C9.77926 41.487 9.52941 42.0815 10.7014 42.9213C10.521 42.9213 10.3386 42.9213 10.1597 42.9244C9.15826 42.9337 9.26245 44.0223 10.1079 44.282C9.57917 44.4582 9.44906 45.2218 10.2727 45.3705C15.0997 46.2144 17.6962 43.2131 20.2496 39.1746C20.5461 38.7003 25.1347 31.4204 25.3052 31.0793V31.0793ZM16.5584 43.1768C15.783 43.9235 14.8419 44.4761 13.8121 44.7894C12.7822 45.1028 11.6929 45.168 10.633 44.9797C9.74297 44.8413 10.2017 44.6578 10.6268 44.6371C10.7795 44.6363 10.9311 44.61 11.0752 44.5593C11.1157 44.5464 11.1517 44.5222 11.179 44.4896C11.2063 44.4569 11.2237 44.4172 11.2291 44.375C11.2346 44.3328 11.2278 44.2899 11.2098 44.2514C11.1917 44.2129 11.1629 44.1803 11.127 44.1576C10.69 43.8647 9.94565 43.9647 9.88759 43.5127C9.8596 43.2795 10.3577 43.3634 10.492 43.3634C10.8466 43.3634 11.1985 43.3603 11.5536 43.3603C11.6061 43.3589 11.6563 43.3389 11.6954 43.3039C11.7345 43.2688 11.7599 43.221 11.767 43.169C11.7741 43.117 11.7625 43.0642 11.7342 43.0199C11.7059 42.9757 11.6629 42.9429 11.6127 42.9275C11.2084 42.767 10.8432 42.5216 10.5418 42.208C10.4609 42.124 10.2209 41.9343 10.3982 41.8535C11.5522 41.754 12.7111 41.9771 13.7458 42.4978C13.9531 42.5973 14.2221 42.3205 14.0137 42.152C13.1367 41.4471 12.8671 40.5254 13.8017 40.9157C14.5905 41.3166 15.3226 41.8204 15.9789 42.4138C16.1903 42.6035 16.5019 42.2925 16.2899 42.1028C15.6857 41.5665 15.0295 41.0919 14.331 40.6861C21.5196 29.39 21.3289 29.7487 21.3403 29.7285C22.4174 30.152 24.7158 31.0581 24.7905 31.0861C20.0967 38.4188 18.7785 41.2257 16.5584 43.1768V43.1768ZM78.0743 13.6588C78.1283 13.6412 78.1733 13.6036 78.2001 13.5536C78.2269 13.5036 78.2333 13.4452 78.2181 13.3906C78.2028 13.336 78.167 13.2894 78.1182 13.2606C78.0694 13.2317 78.0114 13.2228 77.9562 13.2358C77.6923 13.2786 77.4453 13.3931 77.2422 13.5668C77.0391 13.7405 76.8876 13.9667 76.8044 14.2207C76.7105 14.4726 77.1154 14.6354 77.2273 14.3389C77.4041 13.8993 77.6063 13.8246 78.0743 13.6588V13.6588ZM78.7985 15.0656C78.8126 15.0091 78.8043 14.9493 78.7753 14.8987C78.7463 14.8482 78.6989 14.8108 78.643 14.7945C78.4035 14.7167 78.1666 14.639 77.9271 14.5638C77.8718 14.551 77.8137 14.56 77.7649 14.589C77.7161 14.6179 77.6804 14.6646 77.6651 14.7193C77.6499 14.774 77.6563 14.8324 77.6831 14.8824C77.7099 14.9325 77.755 14.9702 77.8089 14.9879C78.0484 15.0656 78.2853 15.1434 78.5248 15.218C78.5528 15.2261 78.5821 15.2285 78.611 15.2252C78.6399 15.2219 78.6679 15.2129 78.6933 15.1987C78.7188 15.1846 78.7412 15.1655 78.7592 15.1427C78.7773 15.1198 78.7906 15.0936 78.7985 15.0656V15.0656ZM81.5774 13.4416C81.311 13.3825 81.2794 13.6567 81.1353 14.0636C81.1202 14.1199 81.1278 14.1798 81.1565 14.2305C81.1852 14.2811 81.2326 14.3185 81.2886 14.3345C81.3446 14.3505 81.4047 14.3438 81.4558 14.3159C81.5069 14.288 81.545 14.2412 81.5619 14.1854C81.6179 14.0299 81.6738 13.8744 81.7298 13.7153C81.7448 13.6588 81.7373 13.5987 81.7089 13.5476C81.6805 13.4966 81.6333 13.4586 81.5774 13.4416ZM81.4686 12.4873C81.6505 12.1638 80.9549 11.8585 80.4972 12.2416C80.467 12.2726 80.4466 12.3118 80.4385 12.3543C80.4303 12.3968 80.4348 12.4408 80.4513 12.4808C80.4679 12.5208 80.4957 12.5551 80.5315 12.5795C80.5673 12.6038 80.6094 12.6172 80.6527 12.6179C81.1104 12.5951 81.3861 12.6521 81.4686 12.4873V12.4873ZM80.1514 17.5035C80.0098 17.5716 79.8551 17.6083 79.698 17.6112C79.5408 17.614 79.3849 17.5829 79.2409 17.52C79.0969 17.457 78.9682 17.3637 78.8636 17.2465C78.7589 17.1292 78.6809 16.9907 78.6347 16.8405C78.5357 16.6093 78.1163 16.7581 78.2547 17.0644C78.3301 17.2655 78.4471 17.4484 78.598 17.6012C78.7489 17.754 78.9304 17.8733 79.1305 17.9512C79.3307 18.029 79.545 18.0638 79.7595 18.0532C79.974 18.0426 80.1839 17.9869 80.3753 17.8896C80.4239 17.8586 80.4585 17.8101 80.4721 17.7541C80.4857 17.6982 80.4772 17.6391 80.4483 17.5893C80.4194 17.5395 80.3724 17.5028 80.3171 17.4868C80.2618 17.4708 80.2024 17.4768 80.1514 17.5035V17.5035ZM73.5527 15.2958C73.4967 15.281 73.4371 15.2887 73.3867 15.3171C73.3363 15.3456 73.2989 15.3926 73.2826 15.4482C73.2687 15.5043 73.2768 15.5635 73.3051 15.6139C73.3334 15.6643 73.3799 15.7019 73.435 15.7193C73.6921 15.7961 73.9245 15.9391 74.1089 16.1339C74.1502 16.1751 74.2061 16.1982 74.2644 16.1982C74.3227 16.1982 74.3786 16.1751 74.4199 16.1339C74.7081 15.8234 73.9093 15.4067 73.5527 15.2958V15.2958ZM74.2043 17.7092C74.303 17.6083 74.3742 17.4836 74.411 17.3472C74.4477 17.2108 74.4488 17.0673 74.414 16.9303C74.3793 16.7934 74.31 16.6677 74.2127 16.5653C74.1154 16.4629 73.9935 16.3872 73.8585 16.3454C73.8024 16.3305 73.7426 16.3381 73.692 16.3665C73.6414 16.395 73.6038 16.4421 73.5874 16.4978C73.5143 16.8161 73.9363 16.7021 73.9923 17.0737C73.9923 17.5594 73.4189 17.5755 73.4189 16.9742C73.2749 16.9598 73.1316 16.938 72.9897 16.9089C72.9551 17.063 72.9682 17.2239 73.0273 17.3703C73.0864 17.5168 73.1887 17.6417 73.3205 17.7286C73.4524 17.8155 73.6075 17.8602 73.7654 17.8567C73.9233 17.8533 74.0763 17.8018 74.2043 17.7092V17.7092ZM97.6912 45.8796C96.6742 43.7631 96.3891 41.9773 95.0289 39.5177C95.2881 39.3493 95.553 39.2425 95.4462 39.004C95.3669 38.6868 94.8241 37.3971 94.6121 36.9213C94.5849 36.8748 94.5415 36.84 94.4902 36.8236C94.439 36.8071 94.3835 36.8102 94.3343 36.8321C94.2825 36.8502 90.1698 39.0486 89.8909 39.4524C89.7209 39.7028 89.8023 39.7116 90.5077 41.3895C90.5302 41.4456 90.5707 41.4927 90.6228 41.5233C90.7343 41.6347 90.8027 41.5777 91.6538 41.2242C92.1608 42.4387 92.8492 43.6283 92.9145 44.9564C92.9518 45.7375 92.6501 46.4975 92.5594 47.2667C92.3671 48.8664 93.3821 49.3261 94.2254 47.8799C94.3291 48.4942 94.5178 49.4127 94.9729 49.7543C95.0485 49.8181 95.1403 49.8598 95.2381 49.8747C95.3358 49.8896 95.4359 49.8772 95.527 49.8388C95.6276 49.7732 95.7124 49.6861 95.7751 49.5837C95.8379 49.4813 95.8771 49.3662 95.8899 49.2468C96.019 48.7342 95.9189 48.7756 96.0454 48.9731C96.6208 49.928 97.643 49.2271 97.3257 48.1541C97.4696 48.2598 97.6452 48.3131 97.8235 48.3052C98.0018 48.2972 98.1721 48.2286 98.306 48.1106C98.8052 47.6114 98.1826 46.9095 97.6912 45.8796V45.8796ZM90.8535 41.0801C90.7695 40.8805 90.3797 39.9557 90.3517 39.8878C90.2408 39.6287 89.6747 39.8645 94.313 37.3442C94.5525 37.8953 94.7796 38.4556 94.9869 39.0191C93.6754 39.8316 92.2917 40.5215 90.8535 41.0801V41.0801ZM97.7861 47.8649C97.4284 47.8467 97.2677 47.4196 97.1479 47.1392C97.1259 47.1022 97.0935 47.0725 97.0548 47.0537C97.0161 47.0349 96.9728 47.0279 96.9301 47.0334C96.8874 47.0389 96.8473 47.0567 96.8146 47.0847C96.782 47.1127 96.7582 47.1497 96.7462 47.191C96.6254 47.8924 97.2013 48.5165 96.8209 48.9161C96.458 49.2961 95.9956 47.7519 95.9428 47.5399C95.8717 47.2631 95.47 47.3813 95.5193 47.6586C95.5965 48.0786 95.5944 48.5093 95.513 48.9286C95.4218 49.3951 95.3534 49.6921 95.0553 49.1877C94.7368 48.4144 94.5677 47.5877 94.5572 46.7515C94.5544 46.6951 94.5301 46.6419 94.4893 46.603C94.4484 46.5641 94.3941 46.5423 94.3377 46.5423C94.2812 46.5423 94.2269 46.5641 94.1861 46.603C94.1452 46.6419 94.1209 46.6951 94.1181 46.7515C94.0663 47.6736 93.3784 48.376 93.1778 48.2993C92.9772 48.2226 92.9788 47.8198 92.9788 47.655C92.9865 46.7369 93.4831 45.7137 93.3209 44.6096C93.1239 43.2183 92.5667 42.2987 92.0571 41.0536C92.9468 40.6751 93.8123 40.2423 94.6489 39.7577C96.0952 42.391 96.3725 44.4748 97.8068 47.0625C97.9188 47.262 98.2847 47.8882 97.7861 47.8628V47.8649ZM75.7142 25.0855C75.4105 25.2218 74.2976 25.7117 74.2727 25.721C74.4723 25.1657 74.6265 24.595 74.7335 24.0146C74.7492 23.9584 74.742 23.8983 74.7135 23.8475C74.6849 23.7966 74.6373 23.7592 74.5811 23.7435C74.525 23.7277 74.4648 23.735 74.414 23.7635C74.3632 23.7921 74.3257 23.8397 74.31 23.8959C73.9668 25.7879 73.5496 25.8776 73.8647 26.1005C74.2063 26.341 74.5453 26.0792 75.9444 25.4655C76.1688 25.3696 76.0284 24.9445 75.7142 25.0855V25.0855ZM80.2229 24.0021C80.3578 24.5669 80.3841 25.1521 80.3007 25.7267C79.8241 25.5497 79.3671 25.3239 78.9369 25.0529C78.6974 24.9005 78.4761 25.283 78.7156 25.4328C79.251 25.7673 79.8237 26.038 80.422 26.2394C80.4786 26.2542 80.5387 26.2462 80.5894 26.2171C80.6401 26.188 80.6773 26.1402 80.6931 26.0839C80.8351 25.3546 80.8192 24.6034 80.6464 23.8809C80.5811 23.6082 80.1561 23.7274 80.2229 24.0021V24.0021ZM79.6673 22.6264C79.679 22.572 79.6696 22.5151 79.6409 22.4674C79.6122 22.4196 79.5665 22.3846 79.5129 22.3693C79.4594 22.3541 79.402 22.3598 79.3525 22.3853C79.303 22.4108 79.265 22.4542 79.2464 22.5067C79.1272 22.9328 78.9064 23.3238 78.6031 23.646C78.2998 23.9682 77.9229 24.212 77.5047 24.3567C76.4389 24.6817 75.7759 23.8746 75.4929 22.8016C75.4749 22.7482 75.4373 22.7036 75.3876 22.677C75.3379 22.6504 75.2799 22.6438 75.2255 22.6585C75.171 22.6731 75.1243 22.708 75.0947 22.756C75.0651 22.804 75.055 22.8615 75.0663 22.9167C75.8884 26.072 79.0416 24.9497 79.6673 22.6264V22.6264Z" fill="#1D1D1B"/>
<path d="M90.869 39.9117C90.8339 39.9331 90.8039 39.9618 90.781 39.9959C90.7581 40.03 90.7429 40.0687 90.7364 40.1092C90.7299 40.1498 90.7323 40.1912 90.7433 40.2308C90.7544 40.2703 90.7739 40.307 90.8005 40.3383C90.8448 40.3759 90.8987 40.4003 90.9562 40.4088C91.0136 40.4173 91.0723 40.4096 91.1256 40.3865C91.4532 40.076 91.0675 39.7909 90.869 39.9117ZM77.5849 26.7375C77.7736 26.7241 77.8555 26.4115 77.6746 26.2617C77.6426 26.2415 77.6067 26.2281 77.5693 26.2224C77.5319 26.2167 77.4937 26.2188 77.4571 26.2285C77.4205 26.2383 77.3863 26.2554 77.3567 26.279C77.327 26.3025 77.3026 26.3319 77.2848 26.3654C77.1842 26.6007 77.3672 26.7526 77.5849 26.7375ZM77.7026 29.093C77.8913 29.08 77.9732 28.7674 77.7923 28.6171C77.7602 28.5969 77.7244 28.5836 77.687 28.5779C77.6496 28.5722 77.6114 28.5743 77.5748 28.584C77.5382 28.5937 77.504 28.6109 77.4744 28.6344C77.4447 28.658 77.4202 28.6874 77.4025 28.7208C77.2972 28.9561 77.4828 29.1059 77.7026 29.093ZM70.6135 32.0088C70.0305 32.3909 69.4228 32.7341 68.7946 33.0361C68.5458 33.173 68.7666 33.5545 69.0159 33.4161C69.3347 33.2409 70.4803 32.622 70.5217 32.5924C70.5217 32.9143 70.4606 33.6152 70.4238 33.9562C70.4238 34.0147 70.447 34.0707 70.4883 34.112C70.5296 34.1533 70.5857 34.1765 70.6441 34.1765C70.7025 34.1765 70.7585 34.1533 70.7999 34.112C70.8412 34.0707 70.8644 34.0147 70.8644 33.9562C70.8846 33.7619 71.0391 32.269 70.9162 32.0974C70.8804 32.054 70.8324 32.0224 70.7785 32.0066C70.7245 31.9908 70.667 31.9915 70.6135 32.0088V32.0088ZM81.652 83.8677C80.825 83.979 80.0365 84.2865 79.3524 84.7643C78.6683 85.2422 78.1083 85.8767 77.7192 86.615C80.4669 86.4559 83.2228 86.5152 85.9611 86.7922C84.8938 85.3745 83.1972 83.7458 81.652 83.8677V83.8677ZM72.4288 66.2812C73.3149 66.5118 74.2382 66.5634 75.1445 66.4331C75.1988 66.4159 75.2444 66.3782 75.2714 66.328C75.2985 66.2778 75.3051 66.2191 75.2897 66.1642C75.2743 66.1093 75.2381 66.0626 75.1889 66.0338C75.1396 66.0051 75.0812 65.9966 75.0258 66.0101C74.1977 66.1245 73.3552 66.0726 72.5475 65.8572C72.492 65.8438 72.4335 65.8525 72.3843 65.8813C72.3351 65.9102 72.299 65.957 72.2836 66.012C72.2683 66.0669 72.2748 66.1257 72.3019 66.1759C72.3289 66.2261 72.3744 66.2639 72.4288 66.2812V66.2812Z" fill="#1D1D1B"/>
<path d="M42.3717 45.4701C41.4201 44.9583 40.6649 44.1456 40.2241 43.1591C39.7833 42.1725 39.6818 41.0678 39.9354 40.0175C40.0007 39.7407 39.5772 39.6256 39.5119 39.8993C39.2432 41.0434 39.3558 42.244 39.8324 43.3183C40.3091 44.3925 41.1238 45.2816 42.1524 45.8501C42.4023 45.9864 42.621 45.6064 42.3717 45.4701ZM28.4812 41.0407C28.6068 41.7841 28.5142 42.5481 28.2147 43.24C27.9151 43.9319 27.4214 44.5221 26.7934 44.9393C26.302 45.323 25.7213 45.5758 25.1056 45.6738C25.0492 45.6766 24.9961 45.7009 24.9571 45.7418C24.9182 45.7826 24.8965 45.8369 24.8965 45.8933C24.8965 45.9498 24.9182 46.0041 24.9571 46.0449C24.9961 46.0858 25.0492 46.1101 25.1056 46.1129C25.781 46.0353 26.4221 45.7735 26.9587 45.3561C27.6878 44.8953 28.2627 44.2272 28.6096 43.4376C28.9566 42.648 29.0599 41.7728 28.9062 40.9241C28.8533 40.6436 28.4298 40.7634 28.4812 41.0407Z" fill="#AC47F5"/>
<path d="M40.7591 12.5215C40.5382 11.5861 40.1163 10.71 39.5227 9.95419C38.929 9.19835 38.1779 8.58087 37.3214 8.14469C36.465 7.70851 35.5238 7.46409 34.5634 7.42842C33.6029 7.39275 32.6463 7.56669 31.7598 7.93814C27.1983 9.86126 24.4318 17.7994 31.4892 19.3747C31.4158 19.7561 31.4286 20.1491 31.5266 20.5248C31.6247 20.9006 31.8055 21.2498 32.0558 21.5467C32.8334 22.291 34.8622 22.3418 35.5744 21.3461C35.8481 22.3932 36.4919 22.3776 35.9078 22.7565C35.6686 22.9158 35.4792 23.1391 35.3611 23.401C35.243 23.6629 35.201 23.9528 35.24 24.2374C35.279 24.5221 35.3974 24.79 35.5816 25.0105C35.7658 25.2309 36.0083 25.3951 36.2815 25.4841C36.025 25.7117 35.8236 25.9945 35.6925 26.3113C35.5614 26.6281 35.504 26.9705 35.5247 27.3128C35.5453 27.655 35.6435 27.988 35.8118 28.2867C35.9801 28.5854 36.2141 28.842 36.4961 29.037C36.268 29.3591 36.1263 29.7343 36.0843 30.1267C36.0422 30.5191 36.1014 30.9158 36.2561 31.2789C36.4432 31.7055 36.7672 32.1788 36.5459 32.5867C37.2482 32.8459 38.2228 31.591 37.9345 30.1639C37.8823 30.0126 37.8719 29.8501 37.9042 29.6934C37.9366 29.5366 38.0107 29.3915 38.1186 29.2734C38.6032 28.5041 38.9775 27.5913 38.5079 26.8075C38.4216 26.7171 38.3699 26.5993 38.3617 26.4746C38.3534 26.3499 38.3892 26.2263 38.4628 26.1254C38.8717 25.2493 39.0651 24.2074 38.4037 23.5009C38.0926 23.1743 38.0113 23.1126 38.2388 22.6103C38.3963 22.3337 38.4723 22.0181 38.458 21.7001C38.4437 21.3821 38.3397 21.0746 38.158 20.8132C38.0247 20.666 37.9796 20.6245 38.0543 20.4306C38.2642 20.0439 38.3705 19.6094 38.3627 19.1695C40.1106 18.0571 41.4019 15.2724 40.7591 12.5215V12.5215ZM33.8353 21.654C32.4026 21.6633 31.6505 21.1273 31.9983 18.833C32.5195 19.0809 33.0866 19.2172 33.6635 19.2332C34.2404 19.2493 34.8143 19.1448 35.3484 18.9264C35.6341 20.5561 35.5034 21.6369 33.8353 21.654ZM37.4582 15.0065C37.2902 14.9847 37.2218 15.1527 37.2591 15.2864C37.074 16.042 36.7969 16.7719 36.4339 17.4599C36.0062 18.0536 35.3922 18.4871 34.6897 18.6914C33.9871 18.8957 33.2364 18.8591 32.5571 18.5873C30.1405 17.7611 30.5298 15.5601 30.3867 14.838C30.3769 14.8015 30.3576 14.7682 30.3309 14.7414C30.3041 14.7147 30.2708 14.6954 30.2343 14.6856C29.577 14.5141 28.8394 13.9351 28.8083 13.2031C28.801 13.0138 28.8482 12.8264 28.9442 12.663C29.0402 12.4997 29.181 12.3673 29.35 12.2815C29.7299 12.1198 30.0285 12.6583 30.1721 12.9263C30.1946 12.9627 30.2271 12.9918 30.2656 13.0101C30.3042 13.0285 30.3473 13.0354 30.3897 13.0299C30.432 13.0244 30.472 13.0068 30.5046 12.9793C30.5373 12.9517 30.5613 12.9153 30.5738 12.8745C30.6654 12.3111 30.7866 11.7529 30.9367 11.2023C32.3072 11.2334 33.8639 10.9498 34.8508 9.94109C34.9073 10.4221 35.0586 10.8871 35.296 11.3092C35.5334 11.7313 35.8521 12.1021 36.2338 12.4002C36.0925 12.3027 35.9284 12.2436 35.7574 12.2286C35.699 12.2294 35.6433 12.253 35.602 12.2944C35.5607 12.3357 35.5373 12.3915 35.5366 12.45C35.5553 12.7874 36.0265 12.5821 36.2058 13.0134C36.3613 13.3115 36.9906 12.987 36.2773 12.4344C36.6185 12.7171 36.9968 12.9517 37.4017 13.1316C37.3892 13.2871 37.3799 13.4426 37.3675 13.5924C37.3519 13.8044 37.6101 13.8573 37.7443 13.7479C38.0065 13.5188 38.3083 13.3394 38.6349 13.2187C39.0133 13.0984 39.1962 13.1793 39.3041 13.5608C39.5788 14.6514 38.3326 15.1174 37.4582 15.0065V15.0065Z" fill="#1D1D1B"/>
<path d="M32.3393 13.6298C32.3393 13.5438 32.3051 13.4614 32.2444 13.4007C32.1836 13.3399 32.1012 13.3058 32.0153 13.3058C31.9294 13.3058 31.8469 13.3399 31.7862 13.4007C31.7254 13.4614 31.6913 13.5438 31.6913 13.6298C31.6913 13.7157 31.7254 13.7981 31.7862 13.8589C31.8469 13.9196 31.9294 13.9537 32.0153 13.9537C32.1012 13.9537 32.1836 13.9196 32.2444 13.8589C32.3051 13.7981 32.3393 13.7157 32.3393 13.6298ZM35.6521 13.8511C35.5685 13.8545 35.4894 13.89 35.4314 13.9504C35.3735 14.0107 35.3411 14.0911 35.3411 14.1748C35.3411 14.2585 35.3735 14.3389 35.4314 14.3993C35.4894 14.4596 35.5685 14.4952 35.6521 14.4985C35.7357 14.4952 35.8148 14.4596 35.8728 14.3993C35.9307 14.3389 35.9631 14.2585 35.9631 14.1748C35.9631 14.0911 35.9307 14.0107 35.8728 13.9504C35.8148 13.89 35.7357 13.8545 35.6521 13.8511V13.8511ZM32.3393 12.2411C32.396 12.2383 32.4496 12.2138 32.4888 12.1727C32.528 12.1315 32.5499 12.0769 32.5499 12.02C32.5499 11.9632 32.528 11.9085 32.4888 11.8673C32.4496 11.8262 32.396 11.8017 32.3393 11.7989C32.1645 11.8078 31.9946 11.8593 31.8443 11.9488C31.6939 12.0383 31.5678 12.1632 31.4767 12.3126C31.4479 12.3632 31.44 12.4231 31.4545 12.4794C31.469 12.5358 31.5048 12.5844 31.5545 12.6148C31.8608 12.7812 31.9142 12.2411 32.3393 12.2411ZM35.0638 15.5327C34.5019 16.3341 32.8643 16.2154 32.6503 15.3176C32.585 15.0407 32.1615 15.1589 32.2268 15.4357C32.5139 16.6632 34.6268 16.9328 35.4437 15.7597C35.6086 15.5202 35.2255 15.302 35.0638 15.5327ZM36.6826 33.1658C36.8816 32.9631 36.5706 32.6521 36.3716 32.8547C36.0667 33.169 35.8389 33.5496 35.7059 33.9668C35.573 34.3839 35.5386 34.8262 35.6054 35.2589C35.6132 35.2867 35.6264 35.3127 35.6443 35.3354C35.6621 35.3581 35.6843 35.3771 35.7094 35.3912C35.7346 35.4054 35.7623 35.4145 35.791 35.4179C35.8197 35.4213 35.8487 35.4191 35.8765 35.4113C35.9044 35.4035 35.9304 35.3903 35.9531 35.3725C35.9758 35.3546 35.9947 35.3325 36.0089 35.3073C36.023 35.2821 36.0321 35.2544 36.0355 35.2257C36.039 35.1971 36.0367 35.168 36.0289 35.1402C35.9809 34.7831 36.0149 34.4197 36.1281 34.0776C36.2414 33.7355 36.431 33.4237 36.6826 33.1658V33.1658ZM36.9786 33.0911C36.9499 33.0972 36.923 33.1097 36.8999 33.1277C36.8767 33.1456 36.8579 33.1686 36.8448 33.1948C36.4382 33.938 36.3096 34.8017 36.482 35.6311C36.4977 35.6872 36.5351 35.7348 36.586 35.7634C36.6368 35.792 36.6969 35.7992 36.7531 35.7835C36.8093 35.7677 36.8569 35.7303 36.8854 35.6795C36.914 35.6287 36.9212 35.5685 36.9055 35.5124C36.7866 34.9237 36.8439 34.313 37.0703 33.7567C37.2512 34.2023 37.3393 34.6801 37.3295 35.1609C37.3323 35.2173 37.3566 35.2705 37.3974 35.3094C37.4383 35.3483 37.4926 35.37 37.549 35.37C37.6055 35.37 37.6598 35.3483 37.7006 35.3094C37.7415 35.2705 37.7658 35.2173 37.7686 35.1609C37.7799 34.4632 37.6104 33.7744 37.2766 33.1616C37.2635 33.1356 37.2448 33.1127 37.2219 33.0946C37.199 33.0765 37.1724 33.0637 37.144 33.057C37.1156 33.0502 37.0861 33.0498 37.0575 33.0557C37.0289 33.0616 37.002 33.0737 36.9786 33.0911V33.0911ZM37.3803 32.8983C37.7984 33.4279 38.0421 34.074 38.078 34.7478C38.0808 34.8046 38.1053 34.8581 38.1464 34.8973C38.1876 34.9366 38.2423 34.9584 38.2991 34.9584C38.356 34.9584 38.4106 34.9366 38.4518 34.8973C38.4929 34.8581 38.5174 34.8046 38.5202 34.7478C38.4778 33.9589 38.1892 33.2031 37.695 32.5867C37.5379 32.3903 37.1667 32.6339 37.3803 32.8983Z" fill="#1D1D1B"/>
</svg>
