<svg width="359" height="250" viewBox="0 0 359 250" fill="none" xmlns="http://www.w3.org/2000/svg">
<path d="M326.227 28.0361H255.333C251.724 28.0361 248.798 30.9488 248.798 34.5417V135.453C248.798 139.046 251.724 141.959 255.333 141.959H326.227C329.837 141.959 332.763 139.046 332.763 135.453V34.5417C332.763 30.9488 329.837 28.0361 326.227 28.0361Z" stroke="#CCDDE2" stroke-width="4.83" stroke-miterlimit="10"/>
<path d="M323.167 39.7729H259.253C257.448 39.7729 255.985 41.2293 255.985 43.0258V56.557C255.985 58.3535 257.448 59.8098 259.253 59.8098H323.167C324.972 59.8098 326.435 58.3535 326.435 56.557V43.0258C326.435 41.2293 324.972 39.7729 323.167 39.7729Z" stroke="#CCDDE2" stroke-width="4.83" stroke-miterlimit="10"/>
<path d="M290.78 48.2131C291.93 48.2131 292.862 47.2853 292.862 46.1409C292.862 44.9966 291.93 44.0688 290.78 44.0688C289.631 44.0688 288.698 44.9966 288.698 46.1409C288.698 47.2853 289.631 48.2131 290.78 48.2131Z" fill="#D7E8F0"/>
<path d="M284.963 55.5182C284.963 53.9825 285.576 52.5097 286.667 51.424C287.758 50.3379 289.237 49.728 290.78 49.728C292.323 49.728 293.803 50.3379 294.893 51.424C295.984 52.5097 296.597 53.9825 296.597 55.5182H284.963Z" fill="#D7E8F0"/>
<path d="M291.204 81.2852C288.987 81.2859 286.819 81.9412 284.976 83.168C283.132 84.3949 281.696 86.1386 280.847 88.1782C279.999 90.2179 279.778 92.462 280.211 94.6272C280.644 96.7919 281.712 98.7804 283.281 100.341C284.849 101.902 286.847 102.964 289.022 103.395C291.197 103.825 293.452 103.604 295.5 102.759C297.549 101.914 299.3 100.483 300.532 98.6478C301.764 96.8123 302.422 94.6545 302.422 92.4471C302.422 90.981 302.131 89.529 301.568 88.1747C301.004 86.82 300.178 85.5893 299.136 84.5528C298.094 83.5164 296.858 82.6942 295.497 82.1335C294.136 81.5729 292.677 81.2844 291.204 81.2852ZM291.204 100.915C290.783 100.895 290.386 100.714 290.096 100.41C289.805 100.106 289.643 99.7026 289.643 99.2831C289.643 98.8632 289.805 98.4598 290.096 98.156C290.386 97.8522 290.783 97.6712 291.204 97.6509C291.625 97.6712 292.023 97.8522 292.313 98.156C292.604 98.4598 292.766 98.8632 292.766 99.2831C292.766 99.7026 292.604 100.106 292.313 100.41C292.023 100.714 291.625 100.895 291.204 100.915ZM293.274 88.3616C292.929 90.7817 292.638 93.3229 291.911 95.6765C291.739 96.2434 290.67 96.2434 290.497 95.6765C289.986 93.907 289.592 92.1058 289.319 90.2851C289.095 88.9598 288.318 86.8134 289.06 85.5271C289.716 84.3542 291.562 84.2369 292.634 84.839C293.95 85.5779 293.431 87.1574 293.274 88.3616Z" fill="#D7E8F0"/>
<path d="M168.508 50.6549C164.577 49.4879 160.386 49.5078 156.466 50.7116C152.546 51.9157 149.073 54.2498 146.485 57.4189C143.897 60.5881 142.312 64.4496 141.93 68.5156C141.548 72.5813 142.385 76.6688 144.336 80.2609C146.287 83.8531 149.265 86.7888 152.893 88.6963C156.52 90.6038 160.634 91.3979 164.715 90.978C168.796 90.5577 172.66 88.9426 175.818 86.3365C178.976 83.7307 181.288 80.2508 182.459 76.3372C183.238 73.7389 183.494 71.0135 183.214 68.3166C182.935 65.6198 182.124 63.0042 180.828 60.6193C179.533 58.2345 177.778 56.1272 175.664 54.4175C173.55 52.7074 171.119 51.429 168.508 50.6549ZM158.088 85.4506C157.339 85.2043 156.716 84.6773 156.351 83.9809C155.986 83.285 155.908 82.4746 156.133 81.722C156.359 80.9694 156.87 80.334 157.558 79.9505C158.247 79.567 159.058 79.4657 159.821 79.6682C160.212 79.7722 160.579 79.9536 160.899 80.2011C161.22 80.449 161.487 80.7582 161.685 81.1105C161.883 81.4627 162.008 81.8514 162.053 82.2525C162.097 82.6536 162.06 83.0598 161.945 83.4469C161.829 83.8335 161.636 84.1936 161.378 84.5052C161.12 84.8164 160.802 85.0733 160.442 85.2602C160.082 85.447 159.689 85.56 159.285 85.5929C158.88 85.6253 158.474 85.5772 158.088 85.4506ZM168.418 64.2838C166.521 68.3929 164.652 72.7443 162.134 76.5327C161.529 77.4476 159.632 76.8846 159.628 75.7899C159.66 72.3877 159.923 68.9918 160.414 65.6248C160.72 63.1657 160.48 58.9511 162.48 57.0589C164.255 55.366 167.585 56.0932 169.176 57.7196C171.089 59.7057 169.337 62.2352 168.418 64.2838Z" fill="#E85C4D"/>
<path d="M110.576 96.3675C109.137 97.8246 108.165 99.6735 107.783 101.68C107.4 103.687 107.623 105.762 108.425 107.642C109.227 109.523 110.571 111.124 112.287 112.244C114.003 113.365 116.014 113.953 118.066 113.936C120.118 113.918 122.119 113.296 123.816 112.146C125.512 110.997 126.828 109.373 127.597 107.479C128.367 105.585 128.555 103.507 128.137 101.507C127.72 99.5065 126.716 97.6749 125.253 96.2424C123.29 94.322 120.641 93.2562 117.889 93.2797C115.136 93.3031 112.506 94.4139 110.576 96.3675ZM123.592 109.101C123.453 109.243 123.286 109.355 123.103 109.433C122.92 109.511 122.723 109.551 122.524 109.553C122.325 109.555 122.127 109.518 121.942 109.443C121.758 109.369 121.59 109.259 121.447 109.121C121.305 108.982 121.192 108.817 121.114 108.634C121.036 108.452 120.995 108.256 120.993 108.057C120.992 107.859 121.029 107.662 121.104 107.479C121.178 107.295 121.288 107.128 121.428 106.986C121.709 106.7 122.094 106.538 122.496 106.534C122.898 106.531 123.285 106.686 123.572 106.966C123.859 107.247 124.022 107.63 124.026 108.03C124.03 108.43 123.874 108.815 123.592 109.101ZM116.613 99.6047C117.991 101.403 119.488 103.245 120.576 105.246C120.839 105.727 120.147 106.419 119.66 106.177C118.16 105.362 116.717 104.448 115.34 103.44C114.315 102.732 112.39 101.849 112.017 100.523C111.679 99.3506 112.803 98.0447 113.879 97.7359C115.203 97.3527 115.913 98.7172 116.613 99.6047Z" fill="#E85C4D"/>
<path d="M263.031 68.7549H317.81" stroke="#CCDDE2" stroke-width="4.83" stroke-miterlimit="10"/>
<path d="M263.031 74.1226H317.81" stroke="#CCDDE2" stroke-width="4.83" stroke-miterlimit="10"/>
<path d="M263.031 108.684H317.81" stroke="#CCDDE2" stroke-width="4.83" stroke-miterlimit="10"/>
<path d="M275.753 113.763H305.085" stroke="#CCDDE2" stroke-width="4.83" stroke-miterlimit="10"/>
<path d="M332.767 101.638C337.598 107.682 342.193 115.173 346.349 124.403C371.65 180.647 340.025 209.192 340.025 209.192" stroke="#9F9F9F" stroke-width="4.83" stroke-miterlimit="10"/>
<path d="M68.4949 146.237C68.4949 146.237 30.9505 103.845 77.7681 82.8539C124.586 61.8631 133.855 58.9466 130.477 37.1113C127.099 15.276 153.65 -6.95804 195.405 7.73434C237.16 22.4267 237.996 50.1147 235.035 71.5199C233.354 83.7219 240.31 86.6541 248.782 86.0403" stroke="#9F9F9F" stroke-width="4.83" stroke-miterlimit="10"/>
<path d="M330.119 227.486C330.024 229.826 329.416 232.117 328.336 234.199C328.294 234.302 328.244 234.403 328.187 234.5C326.294 237.885 323.645 240.793 320.446 242.999L320.332 243.078C317.443 245.001 314.194 246.324 310.78 246.968H347.126C347.126 246.968 342.264 177.943 297.575 144.36C254.328 111.863 213.837 127.525 211.269 128.572C212.065 130.809 212.42 133.177 212.317 135.547C212.317 135.547 215.57 137.232 216.112 143.265C216.654 149.297 217.785 166.07 206.909 169.229C206.909 169.229 197.145 168.99 194.564 165.26C191.984 161.531 191.363 162.289 190.35 163.235C189.565 163.951 184.824 166.508 182.636 167.68C182.913 167.694 183.187 167.732 183.457 167.794C183.457 167.794 184.71 178.319 200.04 194.813C200.559 195.358 201.049 195.929 201.509 196.526C203.823 198.54 206.425 200.597 209.313 202.695L226.807 215.437C227.201 215.771 227.669 216.008 228.173 216.129C229.152 216.374 230.175 216.383 231.158 216.156C233.193 215.765 247.085 214.354 256.075 213.462C256.28 213.462 256.496 213.423 256.696 213.4L257.874 213.286C258.063 213.286 258.267 213.247 258.432 213.235L259.492 213.134C260.011 213.083 260.478 213.032 260.91 212.997L262.089 212.884C263.129 212.782 263.746 212.719 263.797 212.719C265.939 212.659 268.074 212.452 270.187 212.102C272.21 211.711 274.056 211.081 274.535 210.037C274.626 209.817 274.66 209.578 274.634 209.341C274.525 208.677 274.246 208.052 273.824 207.527C271.978 205.06 267.689 202.945 267.375 202.793C267.366 202.79 267.357 202.79 267.348 202.793L267.261 202.73L241.732 182.987H241.704C241.704 182.987 245.549 142.154 280.588 152.202C280.588 152.202 280.753 152.316 281.055 152.566C282.422 153.614 286.723 157.085 293.046 163.571C293.211 163.747 293.388 163.923 293.565 164.111C294.236 164.791 294.896 165.499 295.552 166.191C299.99 170.914 305.242 176.931 311.035 184.433L311.074 184.472C317.712 193.073 322.496 200.955 325.607 207.93V207.954C328.973 215.534 330.39 222.028 330.112 227.208C330.12 227.301 330.123 227.393 330.119 227.486ZM224.438 157.304C223.401 145.407 229.218 141.099 229.544 140.86C221.272 155.756 236.614 178.588 237.152 179.472C236.712 179.104 225.475 169.197 224.438 157.304Z" fill="#1E1B19"/>
<path d="M202.467 154.97C202.036 155.285 201.588 155.575 201.124 155.838L198.429 151.147C204.643 147.984 206.387 142.409 203.653 139.347C202.889 138.51 201.903 137.903 200.809 137.596C198.06 136.767 196.155 137.987 194.863 139.625C193.808 141.049 193.035 142.66 192.585 144.371L191.273 129.311L191.171 128.138C191.171 128.138 188.312 126.727 180.566 127.986C172.821 129.245 171.395 133.502 168.069 131.614C164.742 129.726 162.857 129.878 162.857 129.878C161.91 133.338 159.377 133.338 159.377 133.338C158.777 133.266 158.187 133.123 157.621 132.912C154.027 129.624 153.053 123.92 153.053 123.92C156.824 123.455 157.114 119.842 156.682 116.883C158.772 118.118 161.718 118.204 165.853 115.561C177.719 108.008 189.887 112.097 194.164 112.727C196.073 113.004 198.162 112.336 199.894 111.554C200.118 111.953 200.43 112.296 200.806 112.559C203.693 114.561 206.074 117.202 207.761 120.276C218.896 140.993 206.689 151.995 202.467 154.97Z" fill="#E85C4D"/>
<path d="M158.018 246.975H162.495C164.41 246.973 166.246 246.215 167.6 244.867C168.954 243.519 169.716 241.692 169.718 239.785V234.797C169.718 234.342 169.628 233.891 169.453 233.472C169.278 233.051 169.022 232.67 168.699 232.348C168.375 232.027 167.992 231.772 167.57 231.599C167.148 231.425 166.695 231.336 166.238 231.337H139.46C139.461 232.398 139.251 233.45 138.843 234.431C138.436 235.412 137.837 236.304 137.083 237.054C136.328 237.805 135.432 238.4 134.446 238.806C133.461 239.211 132.404 239.419 131.337 239.418H34.5718C34.573 241.422 35.3731 243.343 36.7968 244.76C38.2202 246.177 40.1507 246.974 42.164 246.975H173.347C173.519 246.975 173.689 246.942 173.847 246.877C174.005 246.812 174.149 246.717 174.271 246.596C174.392 246.475 174.488 246.332 174.553 246.174C174.618 246.017 174.652 245.848 174.651 245.677V237.58C174.651 236.007 175.279 234.499 176.396 233.386C177.514 232.274 179.03 231.649 180.61 231.649C182.19 231.649 183.705 232.274 184.823 233.386C185.94 234.499 186.568 236.007 186.568 237.58V245.677C186.568 245.847 186.6 246.016 186.666 246.174C186.731 246.331 186.826 246.474 186.947 246.595C187.068 246.715 187.212 246.811 187.37 246.876C187.527 246.941 187.697 246.975 187.868 246.975H347.126C347.126 246.975 342.264 177.935 297.575 144.355C254.328 111.858 213.838 127.52 211.269 128.568L211.143 128.615" stroke="black" stroke-width="4.83" stroke-miterlimit="10"/>
<path d="M166.49 145.467C166.488 145.901 166.357 146.325 166.114 146.685C165.871 147.045 165.526 147.326 165.122 147.491C164.719 147.656 164.276 147.699 163.848 147.613C163.421 147.528 163.028 147.318 162.72 147.011C162.412 146.704 162.202 146.313 162.117 145.887C162.032 145.461 162.076 145.02 162.243 144.619C162.409 144.218 162.692 143.875 163.054 143.634C163.416 143.392 163.842 143.263 164.278 143.262C164.449 143.263 164.619 143.284 164.785 143.324C164.557 143.396 164.357 143.539 164.216 143.732C164.074 143.924 163.998 144.157 164 144.396C163.998 144.545 164.027 144.694 164.084 144.833C164.141 144.971 164.224 145.097 164.33 145.204C164.436 145.31 164.562 145.395 164.701 145.453C164.839 145.511 164.988 145.541 165.139 145.541C165.414 145.536 165.678 145.435 165.886 145.255C166.094 145.076 166.233 144.83 166.278 144.56C166.413 144.844 166.485 145.153 166.49 145.467Z" fill="black"/>
<path d="M181.811 146.079C181.812 146.515 181.683 146.942 181.44 147.306C181.197 147.668 180.851 147.952 180.447 148.119C180.042 148.287 179.597 148.331 179.166 148.246C178.736 148.162 178.341 147.952 178.031 147.644C177.721 147.336 177.51 146.943 177.424 146.515C177.338 146.087 177.382 145.644 177.549 145.24C177.717 144.837 178.001 144.493 178.365 144.25C178.729 144.007 179.158 143.878 179.596 143.878C179.702 143.877 179.807 143.889 179.91 143.913C179.714 144.003 179.549 144.147 179.432 144.328C179.316 144.509 179.254 144.719 179.254 144.934C179.241 145.235 179.348 145.528 179.552 145.75C179.756 145.972 180.04 146.105 180.342 146.118C180.644 146.132 180.939 146.025 181.163 145.822C181.386 145.619 181.519 145.336 181.533 145.035C181.714 145.354 181.81 145.713 181.811 146.079Z" fill="black"/>
<path d="M199.482 108.458C199.227 110.17 199.545 111.672 200.81 112.563C203.697 114.565 206.078 117.207 207.765 120.281C221.049 144.986 201.124 155.858 201.124 155.858L198.429 151.167C206.186 147.226 206.98 139.508 200.81 137.616C194.639 135.724 192.585 144.391 192.585 144.391L191.171 128.147C191.171 128.147 188.312 126.736 180.566 127.994C172.821 129.253 171.395 133.511 168.069 131.623C164.742 129.734 162.857 129.887 162.857 129.887C161.91 133.347 159.377 133.347 159.377 133.347C151.954 132.404 150.21 122.181 150.21 122.181C153.976 121.712 154.267 118.099 153.839 115.143C155.924 116.379 158.874 116.469 163.01 113.822C174.875 106.269 187.043 110.362 191.316 110.991C194.27 111.418 197.66 109.619 199.482 108.458Z" stroke="black" stroke-width="4.83" stroke-linecap="round" stroke-linejoin="round"/>
<path d="M206.332 230.97L209.266 229.797L211.465 235.705L211.119 246.425L208.146 246.961L196.862 246.476C196.862 246.476 197.648 239.939 200.047 236.831C202.447 233.723 206.332 230.97 206.332 230.97Z" fill="#E85C4D"/>
<path d="M154.954 136.959C154.954 136.959 157.959 131.591 164.282 132.15" stroke="black" stroke-width="4.83" stroke-miterlimit="10"/>
<path d="M176.666 132.148C176.666 132.148 183.893 130.534 186.423 134.533" stroke="black" stroke-width="4.83" stroke-miterlimit="10"/>
<path d="M187.864 156.451C187.864 156.451 183.544 153.961 180.382 158.148" stroke="black" stroke-width="4.83" stroke-miterlimit="10"/>
<path d="M160.563 133.01C160.563 133.01 157.488 169.022 180.421 168.357C184.349 168.244 188.253 165.675 191.984 161.543" stroke="black" stroke-width="4.83" stroke-miterlimit="10"/>
<path d="M201.124 164.818L191.984 161.541C191.984 161.541 194.25 168.751 205.476 169.302C216.701 169.853 220.467 144.21 212.219 133.893" stroke="black" stroke-width="4.83" stroke-linejoin="round"/>
<path d="M236.857 237.06C236.857 237.06 228.48 243.828 234.171 246.975" stroke="black" stroke-width="4.83" stroke-miterlimit="10"/>
<path d="M230.377 230.762C230.377 230.762 215.845 238.948 228.323 246.975" stroke="black" stroke-width="4.83" stroke-miterlimit="10"/>
<path d="M225.475 224.468C225.475 224.468 206.186 233.46 221.049 246.976" stroke="black" stroke-width="4.83" stroke-miterlimit="10"/>
<path d="M306.589 246.976C306.589 246.976 329.99 246.976 330.304 224.468C330.618 201.96 284.928 145.443 255.361 137.58C225.793 129.718 224.525 151.264 224.525 152.148C224.525 153.031 222.789 162.313 230.377 172.216C236.237 179.871 262.12 198.981 273.605 207.285C274.026 207.591 274.345 208.017 274.518 208.507C274.69 208.997 274.709 209.527 274.571 210.028C274.434 210.529 274.146 210.976 273.747 211.31C273.347 211.644 272.855 211.85 272.336 211.898L221.544 216.754H221.512C221.033 216.84 203.107 220.132 197.648 225.723C197.648 225.723 194.588 227.979 196.171 231.443C197.754 234.907 202.616 233.765 202.75 233.636" stroke="black" stroke-width="4.83" stroke-miterlimit="10"/>
<path opacity="0.26" d="M179.6 150.169C183.093 150.169 185.924 147.351 185.924 143.875C185.924 140.398 183.093 137.58 179.6 137.58C176.108 137.58 173.277 140.398 173.277 143.875C173.277 147.351 176.108 150.169 179.6 150.169Z" fill="white"/>
<path opacity="0.26" d="M163.552 149.548C167.044 149.548 169.875 146.729 169.875 143.253C169.875 139.777 167.044 136.958 163.552 136.958C160.059 136.958 157.228 139.777 157.228 143.253C157.228 146.729 160.059 149.548 163.552 149.548Z" fill="white"/>
<path d="M218.213 229.976C215.99 229.359 212.357 228.804 208.614 230C206.784 230.587 205.095 231.544 203.653 232.811C203.339 233.085 203.037 233.362 202.746 233.64C202.119 234.251 201.528 234.897 200.975 235.575C200.902 235.665 200.798 235.724 200.684 235.743C199.29 235.935 190.111 237.381 190.158 241.999C190.201 246.147 194.765 246.827 196.336 246.936C196.401 246.942 196.466 246.935 196.528 246.915C196.589 246.894 196.646 246.861 196.695 246.818C196.743 246.774 196.782 246.721 196.808 246.662C196.836 246.604 196.85 246.54 196.85 246.475C196.85 244.997 197.188 240.364 200.861 235.704" stroke="black" stroke-width="4.83" stroke-miterlimit="10"/>
<path d="M135.512 197.389C136.589 206.026 129.845 209.931 122.473 210.51" stroke="black" stroke-width="4.83" stroke-miterlimit="10"/>
<path d="M111.758 208.708C108.947 207.196 106.67 204.862 105.235 202.02C103.801 199.178 103.278 195.966 103.738 192.819C104.916 184.511 111.986 178.139 118.906 174.096C133.439 165.608 166.187 171.75 171.69 173.001C175.908 173.963 179.435 170.679 180.865 169.092C180.926 169.024 181.004 168.976 181.092 168.952C181.18 168.927 181.272 168.929 181.359 168.956C181.446 168.983 181.523 169.033 181.582 169.103C181.64 169.172 181.678 169.256 181.69 169.346C184.71 186.939 219.788 210.819 227.902 216.164" stroke="black" stroke-width="4.83" stroke-miterlimit="10"/>
<path d="M144.361 191.416L132.747 198.59C132.055 199.019 131.28 199.299 130.473 199.412C129.666 199.524 128.844 199.467 128.06 199.244C127.276 199.02 126.548 198.636 125.922 198.116C125.297 197.595 124.788 196.949 124.429 196.221C123.781 194.913 123.652 193.409 124.069 192.011C124.485 190.612 125.416 189.421 126.675 188.676L144.35 178.194" stroke="black" stroke-width="4.83" stroke-miterlimit="10"/>
<path d="M179.6 150.169C183.093 150.169 185.924 147.351 185.924 143.875C185.924 140.398 183.093 137.58 179.6 137.58C176.108 137.58 173.277 140.398 173.277 143.875C173.277 147.351 176.108 150.169 179.6 150.169Z" stroke="black" stroke-width="4.83" stroke-miterlimit="10"/>
<path d="M163.552 148.604C166.522 148.604 168.929 146.208 168.929 143.252C168.929 140.296 166.522 137.9 163.552 137.9C160.582 137.9 158.175 140.296 158.175 143.252C158.175 146.208 160.582 148.604 163.552 148.604Z" stroke="white" stroke-width="4.83" stroke-miterlimit="10"/>
<path d="M163.552 149.548C167.044 149.548 169.875 146.729 169.875 143.253C169.875 139.777 167.044 136.958 163.552 136.958C160.059 136.958 157.228 139.777 157.228 143.253C157.228 146.729 160.059 149.548 163.552 149.548Z" stroke="black" stroke-width="4.83" stroke-miterlimit="10"/>
<path d="M173.308 143.253H169.875" stroke="black" stroke-width="4.83" stroke-miterlimit="10"/>
<path d="M173.308 152.147H171.046C170.904 152.147 170.763 152.116 170.634 152.056C170.505 151.996 170.391 151.908 170.301 151.799C170.21 151.69 170.144 151.562 170.109 151.425C170.073 151.288 170.069 151.145 170.095 151.006L171.592 143.253" stroke="black" stroke-width="4.83" stroke-miterlimit="10"/>
<path d="M127.916 173.631C127.916 173.631 119.853 175.363 117.009 187.483C115.281 194.841 112.909 204.228 111.314 210.468C111.109 211.268 111.091 212.104 111.261 212.913C111.43 213.721 111.783 214.481 112.292 215.133C112.802 215.785 113.454 216.313 114.199 216.676C114.944 217.039 115.763 217.228 116.593 217.228C117.832 217.228 119.034 216.808 120 216.036C120.967 215.265 121.641 214.189 121.911 212.986L125.285 197.918" stroke="black" stroke-width="4.83" stroke-miterlimit="10"/>
<path d="M135.288 201.961C135.288 201.961 143.752 196.925 160.425 201.961C177.098 206.996 196.265 210.413 202.589 197.058" stroke="black" stroke-width="4.83" stroke-miterlimit="10"/>
<path d="M208.618 230C208.618 230 214.509 236.693 210.927 246.976" stroke="black" stroke-width="4.83" stroke-miterlimit="10"/>
<path d="M13.9359 146.768H107.021C110.02 146.764 112.932 147.764 115.289 149.608C117.647 151.452 119.312 154.032 120.018 156.933L134.837 218.024C135.237 219.673 135.255 221.39 134.892 223.047C134.529 224.704 133.792 226.257 132.739 227.589C131.684 228.922 130.341 229.999 128.808 230.739C127.276 231.48 125.594 231.865 123.89 231.865H31.0448C28.0523 231.867 25.1455 230.87 22.7908 229.031C20.4364 227.193 18.7703 224.62 18.06 221.727L3.00138 160.647C2.59475 158.997 2.57032 157.276 2.9299 155.615C3.28947 153.954 4.02367 152.396 5.07694 151.06C6.13026 149.722 7.47513 148.641 9.00986 147.898C10.5446 147.154 12.2291 146.768 13.9359 146.768Z" fill="#E85C4D"/>
<path d="M17.3255 149.396H104.661C107.474 149.399 110.205 150.342 112.416 152.074C114.627 153.806 116.191 156.226 116.856 158.947L130.768 216.258C131.143 217.804 131.162 219.415 130.821 220.969C130.48 222.524 129.79 223.981 128.801 225.231C127.813 226.481 126.552 227.491 125.114 228.186C123.676 228.881 122.099 229.242 120.501 229.242H33.3778C30.5731 229.236 27.8508 228.296 25.6447 226.573C23.4381 224.849 21.8744 222.44 21.2021 219.73L7.06258 162.415C6.68077 160.866 6.65775 159.252 6.9953 157.693C7.3328 156.135 8.02202 154.673 9.01077 153.419C9.99951 152.164 11.2619 151.15 12.7024 150.453C14.1429 149.756 15.7239 149.394 17.3255 149.396Z" fill="#E85C4D"/>
<path d="M13.9359 146.768H107.021C110.02 146.764 112.932 147.764 115.289 149.608C117.647 151.452 119.312 154.032 120.018 156.933L134.837 218.024C135.237 219.673 135.255 221.39 134.892 223.047C134.529 224.704 133.792 226.257 132.739 227.589C131.684 228.922 130.341 229.999 128.808 230.739C127.276 231.48 125.594 231.865 123.89 231.865H31.0448C28.0523 231.867 25.1455 230.87 22.7908 229.031C20.4364 227.193 18.7703 224.62 18.06 221.727L3.00138 160.647C2.59475 158.997 2.57032 157.276 2.9299 155.615C3.28947 153.954 4.02367 152.396 5.07694 151.06C6.13026 149.722 7.47513 148.641 9.00986 147.898C10.5446 147.154 12.2291 146.768 13.9359 146.768Z" stroke="black" stroke-width="4.83" stroke-miterlimit="10"/>
<path d="M57.5328 187.459L51.9831 161.706C51.868 161.162 51.5679 160.673 51.1339 160.322C50.6999 159.971 50.1583 159.78 49.599 159.779H22.1369C21.7675 159.78 21.4031 159.864 21.0714 160.026C20.7397 160.188 20.4493 160.423 20.2222 160.713C19.9952 161.003 19.8374 161.341 19.7608 161.7C19.6843 162.06 19.6909 162.433 19.7803 162.789L26.202 188.843C26.2817 189.206 26.4518 189.544 26.6969 189.824C26.9168 190.103 27.1969 190.327 27.5166 190.483C27.8363 190.638 28.1874 190.719 28.5429 190.72H28.5939L55.1723 190.407C55.5313 190.402 55.8844 190.318 56.2069 190.161C56.5293 190.004 56.8133 189.779 57.038 189.5C57.2669 189.217 57.4299 188.888 57.5156 188.535C57.6012 188.182 57.6071 187.814 57.5328 187.459ZM21.6145 162.328C21.5946 162.251 21.5927 162.17 21.6091 162.092C21.6254 162.014 21.6595 161.941 21.7088 161.878C21.7592 161.813 21.824 161.76 21.8982 161.723C21.9724 161.687 22.0541 161.668 22.1369 161.667H49.599C49.7227 161.667 49.8429 161.709 49.9387 161.786C50.035 161.864 50.1006 161.973 50.1253 162.093L54.3515 181.708C40.2394 168.145 38.6409 183.706 38.6409 183.706C30.6756 179.577 28.374 184.097 27.7063 187.072L21.6145 162.328Z" fill="#D7E8F0"/>
<path d="M29.5445 171.677C31.0762 171.204 31.8029 169.182 31.1744 167.161C30.546 165.14 28.7904 163.889 27.2468 164.362C25.7032 164.835 24.9884 166.856 25.6207 168.873C26.2531 170.891 28.0166 172.15 29.5445 171.677Z" fill="#D7E8F0"/>
<path d="M36.2686 171.214H45.2786C46.398 171.214 47.5213 171.214 48.6407 171.214H48.8017C49.1167 171.223 49.4301 171.164 49.7208 171.042C49.9215 170.943 50.0923 170.793 50.2152 170.607C50.3386 170.42 50.4097 170.205 50.4218 169.982C50.4336 169.759 50.3861 169.537 50.2836 169.339C50.1811 169.141 50.0275 168.973 49.8386 168.853C49.6269 168.757 49.434 168.625 49.2691 168.462C49.1599 168.29 49.0849 168.099 49.0491 167.899C48.841 167.333 48.4392 166.858 47.914 166.558C47.5319 166.302 47.1022 166.126 46.6497 166.039C46.1977 165.952 45.7326 165.957 45.2825 166.054C44.8383 166.165 44.4318 166.392 44.1042 166.71C43.8254 166.984 43.7704 167.352 43.5543 167.657C43.413 167.856 43.3226 167.793 43.1302 167.684C42.9377 167.574 42.8317 167.492 42.6746 167.414C42.3647 167.249 42.043 167.107 41.7123 166.988C41.0387 166.74 40.3203 166.635 39.6031 166.679C38.3424 166.777 37.0855 167.524 36.6456 168.704C36.2493 168.71 35.8676 168.856 35.5698 169.116C35.2717 169.376 35.0765 169.733 35.0196 170.124C34.9936 170.274 35.0035 170.429 35.0482 170.575C35.0934 170.721 35.1724 170.854 35.2788 170.964C35.5651 171.169 35.9186 171.258 36.2686 171.214Z" fill="#D7E8F0"/>
<path d="M100.863 170.659L100.14 167.699C99.6553 165.71 98.5127 163.94 96.8953 162.675C95.2783 161.41 93.2811 160.723 91.2242 160.725H81.299C80.1667 160.723 79.0493 160.982 78.0336 161.481C77.0183 161.98 76.1322 162.705 75.4441 163.601C74.7564 164.496 74.2854 165.538 74.0679 166.644C73.8503 167.75 73.8923 168.891 74.19 169.979L75.0109 172.985C75.5352 174.92 76.6856 176.628 78.2838 177.846C79.8823 179.064 81.8391 179.723 83.852 179.722H93.7183C94.8325 179.721 95.9323 179.468 96.9342 178.982C97.9362 178.496 98.8144 177.791 99.5021 176.918C100.19 176.045 100.67 175.028 100.906 173.944C101.142 172.86 101.127 171.737 100.863 170.659ZM89.9477 171.39L86.5582 173.466C86.4278 173.549 86.2797 173.6 86.1257 173.616C85.9718 173.632 85.8162 173.613 85.6713 173.559C85.5264 173.505 85.396 173.418 85.2899 173.306C85.1843 173.194 85.1061 173.058 85.0617 172.911L83.7852 168.759C83.7318 168.575 83.7318 168.379 83.7856 168.195C83.8394 168.011 83.9447 167.845 84.0889 167.719C84.2334 167.591 84.4113 167.508 84.6014 167.478C84.7919 167.447 84.9867 167.471 85.1638 167.547L89.8652 169.615C90.0333 169.691 90.1775 169.81 90.282 169.961C90.3861 170.113 90.4465 170.29 90.4568 170.473C90.467 170.656 90.4261 170.838 90.3393 171C90.2521 171.162 90.1221 171.297 89.9634 171.39H89.9477Z" fill="white"/>
<path d="M98.6474 197.244H81.2833C80.4883 197.243 79.7111 197.011 79.0457 196.578C78.3804 196.145 77.856 195.529 77.5363 194.804C77.4373 194.582 77.3839 194.341 77.3792 194.097C77.3835 193.625 77.574 193.174 77.9102 192.842C78.2464 192.51 78.7005 192.323 79.1741 192.322H97.6341C96.7661 193.784 97.206 195.805 98.6474 197.244Z" fill="#D7E8F0"/>
<path d="M109.896 195.469C109.895 195.94 109.707 196.391 109.373 196.723C109.039 197.056 108.586 197.243 108.113 197.244H98.6475C97.206 195.805 96.7661 193.784 97.6341 192.322H105.969C106.762 192.322 107.538 192.552 108.204 192.983C108.869 193.414 109.394 194.028 109.716 194.75C109.824 194.975 109.886 195.22 109.896 195.469Z" fill="#F9C604"/>
<path d="M105.533 197.244C105.484 197.338 105.427 197.429 105.364 197.514C104.123 199.199 101.436 199.355 99.3505 197.838C99.1015 197.659 98.8662 197.46 98.6475 197.244C97.206 195.805 96.7661 193.784 97.6341 192.322C97.6828 192.229 97.7394 192.14 97.803 192.056C99.0324 190.359 101.731 190.211 103.804 191.716C104.056 191.9 104.293 192.103 104.515 192.322C105.969 193.761 106.389 195.782 105.533 197.244Z" fill="white"/>
<path d="M114.244 206.34C114.24 206.811 114.049 207.262 113.713 207.594C113.377 207.927 112.923 208.113 112.449 208.115H43.629C44.5088 206.645 44.0689 204.631 42.6235 203.196H110.34C111.134 203.196 111.912 203.426 112.576 203.859C113.241 204.291 113.765 204.908 114.083 205.632C114.185 205.854 114.24 206.095 114.244 206.34Z" fill="#F9C604"/>
<path d="M43.629 208.094H35.0549C34.2611 208.095 33.4846 207.865 32.8193 207.434C32.1543 207.003 31.6292 206.389 31.3079 205.666C31.207 205.44 31.1536 205.195 31.1508 204.947C31.1504 204.714 31.196 204.483 31.2855 204.268C31.3751 204.052 31.5063 203.857 31.672 203.692C31.8378 203.527 32.0345 203.397 32.2513 203.308C32.4678 203.22 32.6999 203.175 32.934 203.176H42.6235C44.0689 204.611 44.5087 206.624 43.629 208.094Z" fill="#D7E8F0"/>
<path d="M43.6289 208.095C43.5885 208.191 43.5358 208.281 43.4718 208.364C42.2425 210.061 39.5442 210.206 37.4664 208.701C37.2162 208.516 36.9798 208.314 36.7595 208.095C35.3259 206.656 34.886 204.646 35.7422 203.176C35.7897 203.081 35.8463 202.991 35.9111 202.906C37.1522 201.221 39.8387 201.065 41.9243 202.578C42.1733 202.758 42.407 202.958 42.6234 203.176C44.0688 204.611 44.5087 206.625 43.6289 208.095Z" fill="white"/>
<path d="M49.7011 218.85H38.8058C38.0124 218.849 37.2359 218.62 36.571 218.188C35.906 217.758 35.3809 217.144 35.0588 216.422C34.9508 216.204 34.8892 215.965 34.8782 215.722C34.8794 215.25 35.0683 214.797 35.4041 214.463C35.7395 214.129 36.1943 213.941 36.6692 213.939H48.676C47.8394 215.417 48.2675 217.427 49.7011 218.85Z" fill="#F9C604"/>
<path d="M117.979 217.102C117.973 217.571 117.78 218.018 117.443 218.346C117.106 218.674 116.652 218.855 116.18 218.849H49.7011C48.2675 217.411 47.8276 215.401 48.6838 213.931H114.075C114.869 213.931 115.647 214.161 116.311 214.594C116.976 215.026 117.5 215.642 117.818 216.367C117.922 216.598 117.977 216.849 117.979 217.102Z" fill="#D7E8F0"/>
<path d="M56.5823 218.851C56.5348 218.946 56.4783 219.036 56.4135 219.12C55.1841 220.817 52.4858 220.962 50.412 219.457C50.1606 219.273 49.923 219.07 49.7011 218.851C48.2675 217.412 47.8276 215.402 48.6838 213.932C48.7329 213.839 48.7895 213.748 48.8527 213.663C50.0939 211.978 52.7804 211.829 54.866 213.334C55.1158 213.514 55.3495 213.714 55.5651 213.932C57.0105 215.383 57.4504 217.404 56.5823 218.851Z" fill="white"/>
<g opacity="0.21">
<path opacity="0.21" d="M58.4833 188.401L52.9453 162.648C52.8306 162.104 52.5309 161.615 52.0965 161.265C51.6625 160.914 51.1201 160.723 50.5612 160.725H23.0952C22.7232 160.725 22.3564 160.809 22.0227 160.973C21.689 161.136 21.3975 161.374 21.1706 161.667C20.9456 161.954 20.7898 162.289 20.7149 162.645C20.64 163.002 20.6481 163.371 20.7386 163.723L27.1603 189.781C27.2388 190.144 27.4073 190.482 27.6512 190.762C27.872 191.04 28.1532 191.265 28.4733 191.419C28.7938 191.574 29.1453 191.654 29.5012 191.654H29.564L56.1385 191.337C56.4967 191.333 56.8494 191.249 57.1711 191.093C57.4931 190.937 57.7763 190.712 58.0002 190.434C58.226 190.151 58.3863 189.822 58.4699 189.471C58.5532 189.12 58.5579 188.754 58.4833 188.401ZM22.561 163.274C22.541 163.196 22.5394 163.115 22.5567 163.037C22.5736 162.959 22.6089 162.886 22.6592 162.824C22.7083 162.758 22.7723 162.705 22.8462 162.668C22.9196 162.632 23.0009 162.613 23.0834 162.613H50.5455C50.6692 162.612 50.7894 162.654 50.886 162.73C50.9826 162.807 51.0494 162.915 51.0757 163.035L55.3019 182.65C41.1859 169.083 39.5913 184.648 39.5913 184.648C31.63 180.519 29.3244 185.039 28.6606 188.014L22.561 163.274Z" fill="#D7E8F0"/>
<path opacity="0.21" d="M30.4948 172.619C32.0227 172.146 32.7532 170.124 32.1209 168.107C31.4885 166.089 29.7407 164.831 28.1932 165.304C26.6457 165.777 25.9348 167.798 26.5633 169.819C27.1917 171.841 28.9866 173.107 30.4948 172.619Z" fill="#D7E8F0"/>
<path opacity="0.21" d="M37.2348 172.16H46.2409C47.3642 172.16 48.4835 172.16 49.6069 172.16H49.764C50.0793 172.169 50.3924 172.11 50.683 171.988C50.8849 171.89 51.0565 171.74 51.1803 171.554C51.3044 171.367 51.3763 171.151 51.388 170.928C51.4002 170.705 51.3519 170.482 51.2486 170.284C51.1457 170.085 50.991 169.918 50.8009 169.798C50.5911 169.7 50.3991 169.567 50.2313 169.408C50.1253 169.233 50.0511 169.041 50.0114 168.841C49.8032 168.277 49.403 167.804 48.8802 167.504C48.4981 167.247 48.0672 167.07 47.6144 166.983C47.1615 166.896 46.6957 166.902 46.2448 166.999C45.808 167.112 45.4094 167.339 45.0901 167.656C44.8073 167.93 44.7562 168.293 44.5402 168.602C44.3988 168.802 44.3085 168.739 44.116 168.626C43.9235 168.512 43.8175 168.438 43.6604 168.356C43.3505 168.192 43.0288 168.051 42.6981 167.934C42.0245 167.685 41.3062 167.578 40.589 167.621C39.3282 167.719 38.0714 168.469 37.6275 169.646C37.2312 169.653 36.8502 169.799 36.5529 170.06C36.2556 170.321 36.0616 170.679 36.0054 171.069C35.9799 171.22 35.9901 171.374 36.0341 171.519C36.0785 171.665 36.1558 171.799 36.2607 171.91C36.5443 172.108 36.8903 172.197 37.2348 172.16Z" fill="#D7E8F0"/>
<path opacity="0.21" d="M101.829 171.601L101.106 168.646C100.621 166.655 99.4773 164.885 97.8599 163.619C96.2421 162.354 94.2441 161.666 92.1865 161.667H82.2456C81.1144 161.666 79.9986 161.925 78.9841 162.424C77.9695 162.922 77.0843 163.646 76.3969 164.54C75.7092 165.434 75.2379 166.473 75.0191 167.578C74.8007 168.683 74.8408 169.823 75.1365 170.909L75.9574 173.92C76.4825 175.855 77.6337 177.563 79.2327 178.781C80.8316 179.998 82.7892 180.658 84.8025 180.656H94.6687C95.7834 180.656 96.8835 180.405 97.8862 179.921C98.889 179.436 99.7684 178.731 100.458 177.86C101.147 176.988 101.629 175.972 101.866 174.887C102.104 173.804 102.091 172.68 101.829 171.601ZM90.91 172.325L87.5086 174.412C87.3782 174.495 87.2305 174.546 87.077 174.563C86.9234 174.579 86.7683 174.559 86.6233 174.505C86.4788 174.451 86.3484 174.365 86.2431 174.252C86.1379 174.14 86.0601 174.005 86.0161 173.857L84.7593 169.701C84.7066 169.518 84.7074 169.322 84.7616 169.139C84.8158 168.955 84.9211 168.791 85.0656 168.664C85.2098 168.538 85.3869 168.454 85.577 168.424C85.7667 168.394 85.9611 168.418 86.1379 168.493L90.8039 170.558C90.9697 170.634 91.1111 170.753 91.214 170.903C91.3169 171.053 91.377 171.228 91.3876 171.41C91.3986 171.591 91.3601 171.772 91.2756 171.933C91.1916 172.094 91.0651 172.229 90.91 172.325Z" fill="#D7E8F0"/>
<path opacity="0.21" d="M99.5979 198.187H82.2338C81.4396 198.185 80.6627 197.954 79.9974 197.522C79.3324 197.09 78.8077 196.474 78.4868 195.751C78.3643 195.481 78.3124 195.184 78.336 194.889C78.3592 194.594 78.4574 194.309 78.6207 194.062C78.7837 193.814 79.0072 193.612 79.2704 193.473C79.5331 193.334 79.8269 193.264 80.1246 193.268H98.5846C97.7205 194.727 98.1525 196.752 99.5979 198.187Z" fill="#D7E8F0"/>
<path opacity="0.21" d="M110.823 196.411C110.823 196.882 110.636 197.333 110.302 197.665C109.969 197.998 109.516 198.186 109.044 198.186H99.5979C98.1525 196.752 97.7126 194.726 98.5806 193.268H106.919C107.713 193.268 108.49 193.497 109.155 193.928C109.82 194.359 110.345 194.973 110.666 195.696C110.767 195.922 110.82 196.165 110.823 196.411Z" fill="#E85C4D"/>
<path opacity="0.21" d="M106.479 198.186C106.433 198.282 106.376 198.372 106.31 198.456C105.069 200.141 102.383 200.297 100.297 198.784C100.049 198.603 99.8151 198.403 99.5979 198.186C98.1525 196.751 97.7126 194.726 98.5806 193.268C98.6297 193.173 98.6875 193.083 98.7534 192.998C99.9828 191.301 102.681 191.157 104.755 192.662C105.007 192.846 105.244 193.049 105.466 193.268C106.899 194.707 107.339 196.716 106.479 198.186Z" fill="white"/>
<path opacity="0.21" d="M115.191 207.264C115.186 207.735 114.995 208.186 114.659 208.517C114.323 208.849 113.869 209.035 113.396 209.035H44.5794C45.4592 207.565 45.0193 205.555 43.5739 204.117H111.287C112.082 204.117 112.86 204.347 113.525 204.781C114.191 205.214 114.715 205.831 115.034 206.556C115.134 206.779 115.188 207.02 115.191 207.264Z" fill="#E85C4D"/>
<path opacity="0.21" d="M44.5794 209.035H36.0014C35.2084 209.035 34.4323 208.806 33.7674 208.375C33.1024 207.945 32.5769 207.332 32.2545 206.611C32.1559 206.384 32.1025 206.14 32.0974 205.892C32.0974 205.421 32.2851 204.97 32.6197 204.637C32.954 204.304 33.4076 204.117 33.8805 204.117H43.5739C45.0193 205.555 45.4592 207.565 44.5794 209.035Z" fill="#D7E8F0"/>
<path opacity="0.21" d="M44.5794 209.036C44.539 209.133 44.4848 209.224 44.4184 209.306C43.189 211.003 40.4907 211.151 38.417 209.646C38.1652 209.461 37.9276 209.256 37.706 209.036C36.2725 207.602 35.8326 205.588 36.6927 204.118C36.7391 204.022 36.7956 203.932 36.8616 203.848C38.1027 202.163 40.7893 202.007 42.8748 203.524C43.1219 203.705 43.3556 203.903 43.574 204.118C45.0193 205.557 45.4592 207.566 44.5794 209.036Z" fill="white"/>
<path opacity="0.21" d="M50.6476 219.806H39.7366C38.9436 219.804 38.1683 219.575 37.5033 219.145C36.8388 218.715 36.3129 218.103 35.9896 217.382C35.891 217.159 35.8376 216.918 35.8325 216.674C35.8345 216.201 36.0242 215.748 36.3604 215.414C36.6966 215.079 37.1522 214.89 37.6275 214.888H49.6343C48.7741 216.358 49.214 218.371 50.6476 219.806Z" fill="#E85C4D"/>
<path opacity="0.21" d="M118.93 218.043C118.929 218.275 118.883 218.505 118.793 218.72C118.703 218.934 118.571 219.129 118.406 219.293C118.24 219.456 118.044 219.586 117.828 219.674C117.612 219.762 117.38 219.807 117.147 219.806H50.6477C49.2141 218.371 48.7742 216.358 49.6344 214.888H115.022C115.817 214.888 116.595 215.118 117.261 215.552C117.926 215.985 118.45 216.602 118.769 217.327C118.871 217.552 118.926 217.796 118.93 218.043Z" fill="#D7E8F0"/>
<path opacity="0.21" d="M57.5329 219.807C57.4838 219.902 57.426 219.992 57.36 220.077C56.1307 221.774 53.4324 221.922 51.3586 220.417C51.1068 220.231 50.8692 220.028 50.6477 219.807C49.2141 218.372 48.7742 216.359 49.6344 214.889C49.6807 214.793 49.7373 214.703 49.8033 214.619C51.0444 212.934 53.7309 212.789 55.8165 214.294C56.0635 214.475 56.2972 214.674 56.5156 214.889C57.961 216.327 58.4009 218.349 57.5329 219.807Z" fill="white"/>
</g>
</svg>
