<svg width="61" height="61" viewBox="0 0 61 61" fill="none" xmlns="http://www.w3.org/2000/svg">
<circle cx="30.5" cy="30.5" r="23.5" fill="#E85C4D"/>
<path d="M30.5 59.2293C30.5 60.2072 29.7064 61.0054 28.7301 60.9487C21.2864 60.5163 14.2345 57.368 8.93324 52.0668C3.21338 46.3469 -2.25024e-07 38.5891 0 30.5C2.25024e-07 22.4109 3.21338 14.6531 8.93324 8.93324C14.2345 3.63197 21.2864 0.483741 28.7301 0.0513506C29.7064 -0.00535954 30.5 0.792764 30.5 1.77069C30.5 2.74861 29.7062 3.53532 28.7304 3.59947C22.2267 4.02705 16.0744 6.80038 11.4374 11.4374C6.38165 16.4931 3.54138 23.3501 3.54138 30.5C3.54138 37.6499 6.38165 44.5069 11.4374 49.5626C16.0744 54.1996 22.2267 56.9729 28.7304 57.4005C29.7062 57.4647 30.5 58.2514 30.5 59.2293Z" fill="#E85C4D"/>
<path d="M43.0476 30.5L24.2262 41.3666V19.6334L43.0476 30.5Z" fill="white"/>
</svg>
