<svg width="112" height="20" viewBox="0 0 112 20" fill="none" xmlns="http://www.w3.org/2000/svg">
<path d="M10 3.90594L11.2601 6.93547L11.6119 7.78141L12.5252 7.85463L15.7958 8.11683L13.3039 10.2514L12.6081 10.8474L12.8207 11.7386L13.582 14.9302L10.7819 13.2199L10 12.7423L9.21812 13.2199L6.418 14.9302L7.17931 11.7386L7.39189 10.8474L6.69608 10.2514L4.2042 8.11683L7.47484 7.85463L8.3881 7.78141L8.73995 6.93547L10 3.90594Z" fill="#F1C644" stroke="#F1C644" stroke-width="3"/>
<path d="M33 3.90594L34.2601 6.93547L34.6119 7.78141L35.5252 7.85463L38.7958 8.11683L36.3039 10.2514L35.6081 10.8474L35.8207 11.7386L36.582 14.9302L33.7819 13.2199L33 12.7423L32.2181 13.2199L29.418 14.9302L30.1793 11.7386L30.3919 10.8474L29.6961 10.2514L27.2042 8.11683L30.4748 7.85463L31.3881 7.78141L31.7399 6.93547L33 3.90594Z" fill="#F1C644" stroke="#F1C644" stroke-width="3"/>
<path d="M56 3.90594L57.2601 6.93547L57.6119 7.78141L58.5252 7.85463L61.7958 8.11683L59.3039 10.2514L58.6081 10.8474L58.8207 11.7386L59.582 14.9302L56.7819 13.2199L56 12.7423L55.2181 13.2199L52.418 14.9302L53.1793 11.7386L53.3919 10.8474L52.6961 10.2514L50.2042 8.11683L53.4748 7.85463L54.3881 7.78141L54.7399 6.93547L56 3.90594Z" fill="#F1C644" stroke="#F1C644" stroke-width="3"/>
<path d="M79 3.90594L80.2601 6.93547L80.6119 7.78141L81.5252 7.85463L84.7958 8.11683L82.3039 10.2514L81.6081 10.8474L81.8207 11.7386L82.582 14.9302L79.7819 13.2199L79 12.7423L78.2181 13.2199L75.418 14.9302L76.1793 11.7386L76.3919 10.8474L75.6961 10.2514L73.2042 8.11683L76.4748 7.85463L77.3881 7.78141L77.7399 6.93547L79 3.90594Z" fill="#F1C644" stroke="#F1C644" stroke-width="3"/>
<path d="M102 0L104.645 6.35942L111.511 6.90983L106.28 11.3906L107.878 18.0902L102 14.5L96.1221 18.0902L97.7202 11.3906L92.4894 6.90983L99.355 6.35942L102 0Z" fill="#D4D4D4"/>
<path d="M102 0L104.645 6.35942L111.511 6.90983L106.28 11.3906L107.878 18.0902L102 14.5L96.1221 18.0902L97.7202 11.3906L92.4894 6.90983L99.355 6.35942L102 0Z" fill="url(#paint0_linear_35_69)"/>
<defs>
<linearGradient id="paint0_linear_35_69" x1="92" y1="10" x2="112" y2="10" gradientUnits="userSpaceOnUse">
<stop stop-color="#F1C644"/>
<stop offset="0.8" stop-color="#F1C644"/>
<stop offset="0.8" stop-color="#F1C644" stop-opacity="0"/>
<stop offset="1" stop-color="#F1C644" stop-opacity="0"/>
</linearGradient>
</defs>
</svg>
