<svg width="51" height="51" viewBox="0 0 51 51" fill="none" xmlns="http://www.w3.org/2000/svg">
<circle cx="25.5" cy="25.5" r="24.5" fill="#F8D656" stroke="black" stroke-width="2"/>
<circle cx="25.5" cy="25.5" r="24.5" fill="black" stroke="black" stroke-width="2"/>
<path d="M25.1304 1.47852C12.1217 1.47852 1.47827 12.141 1.47827 25.2732C1.47827 37.1468 10.135 47.0018 21.4407 48.7829V32.1599H15.433V25.2732H21.4407V20.0251C21.4407 14.0645 24.9649 10.7874 30.3812 10.7874C32.9593 10.7874 35.6556 11.2386 35.6556 11.2386V17.1041H32.6755C29.7426 17.1041 28.8202 18.9327 28.8202 20.8087V25.2732H35.3955L34.3311 32.1599H28.8202V48.7829C34.3936 47.8991 39.4688 45.0439 43.1295 40.7327C46.7902 36.4215 48.7952 30.9384 48.7826 25.2732C48.7826 12.141 38.1391 1.47852 25.1304 1.47852Z" fill="#E85C4D"/>
</svg>
