<svg width="51" height="51" viewBox="0 0 51 51" fill="none" xmlns="http://www.w3.org/2000/svg">
<circle cx="25.5" cy="25.5" r="24.5" fill="#E85C4D" stroke="black" stroke-width="2"/>
<path d="M19.012 10.0801H31.948C36.876 10.0801 40.88 14.0841 40.88 19.0121V31.9481C40.88 34.317 39.939 36.5889 38.2639 38.264C36.5888 39.939 34.3169 40.8801 31.948 40.8801H19.012C14.084 40.8801 10.08 36.8761 10.08 31.9481V19.0121C10.08 16.6432 11.0211 14.3713 12.6961 12.6962C14.3712 11.0211 16.6431 10.0801 19.012 10.0801ZM18.704 13.1601C17.2337 13.1601 15.8235 13.7442 14.7838 14.7839C13.7441 15.8236 13.16 17.2337 13.16 18.7041V32.2561C13.16 35.3207 15.6394 37.8001 18.704 37.8001H32.256C33.7264 37.8001 35.1365 37.216 36.1762 36.1763C37.2159 35.1366 37.8 33.7264 37.8 32.2561V18.7041C37.8 15.6395 35.3206 13.1601 32.256 13.1601H18.704ZM33.565 15.4701C34.0756 15.4701 34.5652 15.6729 34.9262 16.0339C35.2872 16.3949 35.49 16.8845 35.49 17.3951C35.49 17.9056 35.2872 18.3953 34.9262 18.7563C34.5652 19.1173 34.0756 19.3201 33.565 19.3201C33.0545 19.3201 32.5648 19.1173 32.2038 18.7563C31.8428 18.3953 31.64 17.9056 31.64 17.3951C31.64 16.8845 31.8428 16.3949 32.2038 16.0339C32.5648 15.6729 33.0545 15.4701 33.565 15.4701ZM25.48 17.7801C27.5222 17.7801 29.4807 18.5913 30.9247 20.0354C32.3688 21.4794 33.18 23.4379 33.18 25.4801C33.18 27.5222 32.3688 29.4808 30.9247 30.9248C29.4807 32.3688 27.5222 33.1801 25.48 33.1801C23.4378 33.1801 21.4793 32.3688 20.0353 30.9248C18.5913 29.4808 17.78 27.5222 17.78 25.4801C17.78 23.4379 18.5913 21.4794 20.0353 20.0354C21.4793 18.5913 23.4378 17.7801 25.48 17.7801ZM25.48 20.8601C24.2547 20.8601 23.0796 21.3468 22.2132 22.2132C21.3468 23.0797 20.86 24.2548 20.86 25.4801C20.86 26.7054 21.3468 27.8805 22.2132 28.7469C23.0796 29.6133 24.2547 30.1001 25.48 30.1001C26.7053 30.1001 27.8804 29.6133 28.7469 28.7469C29.6133 27.8805 30.1 26.7054 30.1 25.4801C30.1 24.2548 29.6133 23.0797 28.7469 22.2132C27.8804 21.3468 26.7053 20.8601 25.48 20.8601Z" fill="black"/>
</svg>
