<svg width="51" height="51" viewBox="0 0 51 51" fill="none" xmlns="http://www.w3.org/2000/svg">
<circle cx="25.5" cy="25.5" r="24.5" fill="#E85C4D" stroke="black" stroke-width="2"/>
<path d="M41.9765 16.63C40.7908 17.169 39.5127 17.5231 38.1884 17.6925C39.5435 16.8764 40.5906 15.5829 41.0833 14.0276C39.8053 14.7976 38.3886 15.3365 36.8949 15.6445C35.6785 14.3202 33.9692 13.5503 32.029 13.5503C28.4103 13.5503 25.4538 16.5068 25.4538 20.1563C25.4538 20.6798 25.5154 21.188 25.6232 21.6653C20.1413 21.3882 15.26 18.755 12.0109 14.7668C11.4411 15.7369 11.1178 16.8764 11.1178 18.0775C11.1178 20.3719 12.2727 22.4045 14.0589 23.5594C12.9656 23.5594 11.9493 23.2514 11.0562 22.7894C11.0562 22.7894 11.0562 22.7894 11.0562 22.8356C11.0562 26.0385 13.3352 28.7179 16.3533 29.3184C15.7989 29.4724 15.2138 29.5494 14.6132 29.5494C14.1975 29.5494 13.7817 29.5032 13.3814 29.4262C14.2129 32.0286 16.6304 33.9688 19.5408 34.015C17.2926 35.8012 14.4439 36.8483 11.3333 36.8483C10.8098 36.8483 10.2862 36.8175 9.7627 36.7559C12.6884 38.6345 16.1685 39.7278 19.8949 39.7278C32.029 39.7278 38.6966 29.6572 38.6966 20.9262C38.6966 20.6336 38.6966 20.3565 38.6812 20.0639C39.9746 19.14 41.0833 17.9697 41.9765 16.63Z" fill="black"/>
</svg>
