<svg width="51" height="51" viewBox="0 0 51 51" fill="none" xmlns="http://www.w3.org/2000/svg">
<circle cx="25.5" cy="25.5" r="24.5" fill="#E85C4D" stroke="black" stroke-width="2"/>
<path d="M25.9311 8.25342C17.5235 8.25342 10.6712 15.1058 10.6712 23.5134C10.6712 26.2081 11.3795 28.8259 12.7038 31.1357L10.548 39.0505L18.6322 36.9255C20.865 38.142 23.375 38.7887 25.9311 38.7887C34.3387 38.7887 41.1911 31.9364 41.1911 23.5288C41.1911 19.4482 39.605 15.6139 36.7255 12.7344C33.846 9.83947 30.0117 8.25342 25.9311 8.25342ZM25.9465 10.825C29.3342 10.825 32.5063 12.1493 34.9085 14.5514C37.2953 16.9536 38.6195 20.1411 38.6195 23.5288C38.6195 30.5197 32.9221 36.2018 25.9311 36.2018C23.6521 36.2018 21.4194 35.6012 19.4791 34.431L19.0172 34.1692L14.2128 35.4319L15.4909 30.7507L15.1829 30.2579C13.9203 28.2715 13.2427 25.9156 13.2427 23.5134C13.2581 16.5224 18.9402 10.825 25.9465 10.825ZM20.5262 16.4608C20.2799 16.4608 19.8641 16.5532 19.5099 16.9382C19.1712 17.3232 18.1703 18.2625 18.1703 20.1257C18.1703 22.0043 19.5407 23.806 19.7101 24.0677C19.9257 24.3295 22.4203 28.1791 26.2545 29.8114C27.163 30.2271 27.8713 30.4581 28.4257 30.6275C29.3342 30.9201 30.1657 30.8739 30.8279 30.7815C31.567 30.6737 33.0761 29.8576 33.3994 28.9645C33.7228 28.0714 33.7228 27.3168 33.6304 27.1474C33.5226 26.9935 33.2762 26.9011 32.8913 26.7317C32.5063 26.5161 30.6277 25.5922 30.2889 25.469C29.9347 25.3458 29.7192 25.2842 29.4266 25.6538C29.1802 26.0387 28.4411 26.9011 28.2255 27.1474C27.9945 27.4092 27.779 27.44 27.4094 27.2552C27.009 27.055 25.7771 26.6547 24.3297 25.3612C23.1902 24.3449 22.4357 23.0976 22.2047 22.7127C22.0199 22.3431 22.1893 22.1121 22.3741 21.9427C22.5434 21.7733 22.7898 21.4962 22.9438 21.2652C23.144 21.0496 23.2056 20.8802 23.3288 20.6339C23.452 20.3721 23.3904 20.1565 23.298 19.9717C23.2056 19.8023 22.4357 17.8929 22.1123 17.1384C21.8043 16.3993 21.4963 16.4916 21.25 16.4762C21.0344 16.4762 20.788 16.4608 20.5262 16.4608Z" fill="black"/>
</svg>
